<svg width="77" height="58" viewBox="0 0 77 58" fill="none" xmlns="http://www.w3.org/2000/svg">
<path fill-rule="evenodd" clip-rule="evenodd" d="M59.5142 23.9972L59.5142 -1.52866e-06L51.5162 -2.22786e-06L44.2239 23.9972L44.2239 58L77 58L77 23.9972L59.5142 23.9972ZM75 25.9972L57.5142 25.9972L57.5142 2L52.9988 2L46.2239 24.2944L46.2239 56L75 56L75 25.9972ZM15.2903 23.9972L15.2903 -5.39484e-06L7.29229 -6.09404e-06L2.97262e-06 23.9972L0 58L32.7761 58L32.7761 23.9972L15.2903 23.9972ZM30.7761 25.9972L13.2903 25.9972L13.2903 1.99999L8.77483 1.99999L2 24.2944L2 56L30.7761 56L30.7761 25.9972Z" fill="#588534"/>
</svg>
