<svg width="108" height="108" viewBox="0 0 108 108" fill="none" xmlns="http://www.w3.org/2000/svg">
<circle cx="54" cy="54" r="43" fill="#9BB686"/>
<path d="M105.233 54C106.761 54 108.007 52.7603 107.929 51.2344C107.311 39.1734 102.663 27.6368 94.6883 18.497C86.1056 8.66074 74.2502 2.26658 61.3162 0.497912C48.3822 -1.27075 35.2454 1.70582 24.337 8.87675C13.4286 16.0477 5.48718 26.9275 1.98247 39.5025C-1.52225 52.0776 -0.35296 65.4966 5.27393 77.276C10.9008 89.0553 20.6043 98.3976 32.5886 103.574C44.5729 108.75 58.0266 109.409 70.4597 105.43C82.0124 101.733 91.9572 94.2633 98.7246 84.2608C99.5808 82.9953 99.1556 81.2898 97.8479 80.4995C96.5403 79.7092 94.8459 80.134 93.9823 81.3945C87.9122 90.2544 79.0517 96.871 68.7731 100.161C57.614 103.732 45.5389 103.14 34.7825 98.4941C24.0262 93.8484 15.317 85.4634 10.2666 74.891C5.21632 64.3186 4.16684 52.2746 7.31245 40.988C10.4581 29.7015 17.5858 19.9365 27.3764 13.5003C37.1671 7.06415 48.9579 4.39257 60.5665 5.98001C72.1752 7.56744 82.8159 13.3064 90.5192 22.1348C97.6146 30.2665 101.775 40.5122 102.388 51.2346C102.475 52.7601 103.706 54 105.233 54Z" fill="#9BB686"/>
<path d="M35.125 38.0733C34.3128 38.0733 33.5338 38.3971 32.9595 38.9735C32.3852 39.5498 32.0625 40.3315 32.0625 41.1466V65.7332C32.0625 66.5483 32.3852 67.33 32.9595 67.9064C33.5338 68.4828 34.3128 68.8065 35.125 68.8065H64.4821C66.1064 68.8069 67.6641 69.4547 68.8125 70.6075L74.9375 76.7542V41.1466C74.9375 40.3315 74.6148 39.5498 74.0405 38.9735C73.4662 38.3971 72.6872 38.0733 71.875 38.0733H35.125ZM71.875 35C73.4995 35 75.0574 35.6476 76.206 36.8003C77.3547 37.953 78 39.5165 78 41.1466V80.4637C77.9999 80.7677 77.91 81.0649 77.7415 81.3177C77.5731 81.5704 77.3337 81.7673 77.0537 81.8835C76.7737 81.9996 76.4656 82.0298 76.1685 81.9702C75.8714 81.9106 75.5986 81.7638 75.3846 81.5485L66.6473 72.7804C66.0731 72.204 65.2943 71.88 64.4821 71.8799H35.125C33.5005 71.8799 31.9426 71.2323 30.794 70.0796C29.6453 68.9268 29 67.3634 29 65.7332V41.1466C29 39.5165 29.6453 37.953 30.794 36.8003C31.9426 35.6476 33.5005 35 35.125 35H71.875Z" fill="white"/>
<circle cx="41.5" cy="54.5" r="2.5" fill="white"/>
<circle cx="53.5" cy="54.5" r="2.5" fill="white"/>
<circle cx="65.5" cy="54.5" r="2.5" fill="white"/>
</svg>
