<svg width="64" height="64" viewBox="0 0 64 64" fill="none" xmlns="http://www.w3.org/2000/svg">
<path d="M59.3871 0.305176H56.9672L56.6647 4.38871H52.5812L52.3544 0.305176H45.6997L45.3972 4.38871H41.3137L41.0868 0.305176H34.5078L34.2053 4.38871H30.1218L29.8193 0.305176H23.2403L22.9378 4.38871H18.8543L18.6274 0.305176H12.0484L11.7459 4.38871H7.66238L7.3599 0.305176H4.94003L0.327148 4.91805V59.4407L3.35199 62.4656L5.24251 60.5751L5.46937 64.0536H13.7877L14.0902 59.9701H16.4344L16.7369 64.0536H25.0552L25.3577 59.9701H26.8701C27.1726 60.0457 27.4751 60.0457 27.7775 60.1213L28.08 64.0536H36.3983L36.7008 60.1213C37.0033 60.0457 37.3058 60.0457 37.6083 59.9701H39.1207L39.4232 64.0536H47.7415L48.044 59.9701H50.237L50.5395 64.0536H58.8578L59.0846 60.5751L60.9751 62.4656L64 59.4407V4.91805L59.3871 0.305176ZM58.7821 6.65733L59.009 3.17877L61.7313 5.90112V13.2364C60.2189 10.8165 58.3284 8.62348 56.2866 6.65733H58.7821ZM38.9694 2.5738L39.1207 4.69119C38.2889 4.46433 37.3814 4.31308 36.474 4.16184L36.6252 2.5738H38.9694ZM27.7019 2.5738L27.7775 4.16184C26.8701 4.31308 26.0383 4.46433 25.1308 4.69119L25.3577 2.5738H27.7019ZM5.31813 3.17877L5.54499 6.65733H8.04048C5.99872 8.62348 4.1082 10.8165 2.59578 13.2364V5.8255L5.31813 3.17877ZM7.66238 61.7094L7.3599 57.6258H4.94003L3.35199 59.2139L2.59578 58.4577V51.1224C5.01565 54.9035 8.11611 58.1552 11.7459 60.7263L11.6703 61.7094H7.66238ZM22.9378 61.7094H18.8543L18.5518 57.6258H11.9728V58.0039C8.04048 54.9791 4.78878 51.0468 2.59578 46.5096V17.7736C4.71316 13.3876 7.738 9.60655 11.519 6.58171H13.8633L14.0902 2.5738H16.4344L16.7369 6.65733H19.913C10.3847 11.1946 3.80571 20.9497 3.80571 32.1416C3.80571 44.619 11.8972 55.206 23.0891 58.987L22.9378 61.7094ZM34.2053 61.7094H30.1218L29.8193 57.6258H27.0213C15.1489 55.2816 6.14996 44.7703 6.14996 32.1416C6.14996 19.2104 15.6026 8.47224 28.0044 6.43047V6.58171H36.3227V6.43047C48.7245 8.47224 58.1772 19.2104 58.1772 32.1416C58.1772 44.7703 49.1783 55.2816 37.2302 57.6258H34.4322L34.2053 61.7094ZM45.6997 57.6258L45.3972 61.7094H41.3137L41.1625 58.987C52.3544 55.206 60.4458 44.619 60.4458 32.1416C60.4458 20.8741 53.8668 11.1946 44.3385 6.65733H47.5146L47.8171 2.5738H50.237L50.5395 6.65733H52.8837C56.5891 9.68217 59.614 13.4632 61.807 17.8492V46.5096C59.614 51.0468 56.3623 54.9791 52.43 58.0796V57.7015H45.6997V57.6258ZM60.9751 59.2139L59.3871 57.6258H56.9672L56.6647 61.7094H52.5812L52.5056 60.7263C56.1354 58.1552 59.2359 54.8279 61.6557 51.1224V58.4577L60.9751 59.2139Z" fill="white"/>
<path d="M32.1636 24.8057C28.1557 24.8057 24.8284 28.0574 24.8284 32.1409C24.8284 36.2244 28.0801 39.4761 32.1636 39.4761C36.2471 39.4761 39.4988 36.2244 39.4988 32.1409C39.4988 28.0574 36.1715 24.8057 32.1636 24.8057ZM32.1636 37.2075C29.3656 37.2075 27.097 34.9389 27.097 32.1409C27.097 29.3429 29.3656 27.0743 32.1636 27.0743C34.9616 27.0743 37.2302 29.3429 37.2302 32.1409C37.2302 34.9389 34.9616 37.2075 32.1636 37.2075Z" fill="white"/>
<path d="M32.1636 18.3789C24.5259 18.3789 18.4006 24.5042 18.4006 32.1419C18.4006 39.7796 24.5259 45.9805 32.1636 45.9805C39.8014 45.9805 46.0023 39.7796 46.0023 32.1419C46.0023 24.5042 39.8014 18.3789 32.1636 18.3789ZM32.1636 43.7119C25.8115 43.7119 20.5936 38.5697 20.5936 32.1419C20.5936 25.7141 25.7359 20.5719 32.1636 20.5719C38.5914 20.5719 43.7336 25.7141 43.7336 32.1419C43.7336 38.5697 38.5158 43.7119 32.1636 43.7119Z" fill="white"/>
<path d="M52.6567 32.1407C52.6567 20.7976 43.431 11.6475 32.1634 11.6475C20.8959 11.6475 11.6702 20.7976 11.6702 32.1407C11.6702 43.4839 20.8959 52.634 32.1634 52.634C43.431 52.634 52.6567 43.4839 52.6567 32.1407ZM32.1634 50.3654C22.1059 50.3654 13.9388 42.1983 13.9388 32.1407C13.9388 22.0831 22.1059 13.9161 32.1634 13.9161C42.221 13.9161 50.3881 22.0831 50.3881 32.1407C50.3881 42.1983 42.221 50.3654 32.1634 50.3654Z" fill="white"/>
</svg>
