<svg xmlns="http://www.w3.org/2000/svg" xmlns:xlink="http://www.w3.org/1999/xlink" width="0" height="0" style="position:absolute">
	
		<symbol id="SortIcon" viewBox="0 0 18 18">
			<path fill-rule="evenodd" clip-rule="evenodd" d="M.465 3.828L3.647.646a.5.5 0 0 1 .707 0l3.182 3.182a.5.5 0 1 1-.707.708L4.5 2.207V17a.5.5 0 0 1-1 0V2.207L1.172 4.536a.5.5 0 1 1-.707-.708zM10.465 14.172l3.182 3.182a.5.5 0 0 0 .707 0l3.182-3.182a.5.5 0 0 0-.707-.708L14.5 15.793V1a.5.5 0 1 0-1 0v14.793l-2.328-2.329a.5.5 0 1 0-.707.708z"></path>
		</symbol>
	
		<symbol id="btn-right-arrow" viewBox="0 0 41 14">
			<path fill-rule="evenodd" clip-rule="evenodd" d="M34.343.278l6.364 6.05c.39.371.39.973 0 1.344l-6.364 6.05a1.037 1.037 0 0 1-1.414 0 .918.918 0 0 1 0-1.345l4.657-4.426H1c-.552 0-1-.426-1-.951 0-.525.448-.95 1-.95h36.586l-4.657-4.427a.918.918 0 0 1 0-1.345 1.037 1.037 0 0 1 1.414 0z"></path>
		</symbol>
	
		<symbol id="calendar" viewBox="0 0 21 24">
			<path d="M17.889 5H3.11C1.945 5 1 6.075 1 7.4v13.2c0 1.325.945 2.4 2.111 2.4H17.89C19.055 23 20 21.925 20 20.6V7.4c0-1.325-.945-2.4-2.111-2.4z" stroke="#588535" stroke-width="2"></path><path d="M1 10.846h19M6.937 17h7.125M5.75 1v4.923M15.25 1v4.923" stroke="#588535" stroke-width="2" stroke-linecap="round"></path>
		</symbol>
	
		<symbol id="card-copyURL" viewBox="0 0 24 24">
			<g clip-path="url(#a)"><path d="M14.582 9.466a5.366 5.366 0 0 0-7.589 0L2.12 14.345A5.366 5.366 0 0 0 5.913 23.5a5.332 5.332 0 0 0 3.79-1.564l4.025-4.024a.383.383 0 0 0-.272-.655h-.154a6.45 6.45 0 0 1-2.452-.476.383.383 0 0 0-.418.085l-2.894 2.897a2.3 2.3 0 1 1-3.254-3.254l4.894-4.89a2.3 2.3 0 0 1 3.25 0c.606.57 1.55.57 2.154 0 .26-.26.419-.606.445-.974a1.533 1.533 0 0 0-.444-1.18z"></path><path d="M21.982 2.072a5.366 5.366 0 0 0-7.589 0l-4.02 4.016a.383.383 0 0 0 .28.656h.141a6.438 6.438 0 0 1 2.45.479c.143.059.308.025.417-.085l2.886-2.882a2.301 2.301 0 0 1 3.254 3.254l-3.595 3.591-.03.035-1.258 1.25a2.3 2.3 0 0 1-3.25 0 1.571 1.571 0 0 0-2.154 0c-.262.262-.42.61-.444.98-.029.44.133.87.444 1.18a5.32 5.32 0 0 0 1.533 1.074c.08.038.161.069.242.104.08.034.164.06.245.091.08.031.165.058.245.081l.226.061c.154.039.307.07.464.096.19.028.38.046.571.054H13.331l.23-.027c.085-.004.173-.023.273-.023h.13l.264-.038.123-.023.222-.046h.042a5.366 5.366 0 0 0 2.488-1.41l4.879-4.88a5.366 5.366 0 0 0 0-7.588z"></path></g><defs><clipPath id="a"><path transform="translate(.55 .5)" d="M0 0h23v23H0z"></path></clipPath></defs>
		</symbol>
	
		<symbol id="card-ok" viewBox="0 0 15 24">
			<path fill-rule="evenodd" clip-rule="evenodd" d="M7.694 8.749c1.59 0 2.917-1.326 2.917-2.916 0-1.591-1.326-2.917-2.917-2.917-1.59 0-2.916 1.326-2.916 2.917 0 1.723 1.193 2.916 2.916 2.916zm6.496 5.435c-.663.795-1.591 1.326-2.52 1.591-.927.397-1.855.53-2.915.662.132.133.265.266.265.398l3.977 3.977c.397.398.53 1.061.265 1.591s-.928.928-1.46.928c-.396 0-.661-.265-.926-.53l-3.05-3.05c-.264-.265-.397-.265-.662 0-1.06 1.061-1.99 2.122-3.05 3.05-.53.397-1.06.53-1.59.265s-.928-.928-.928-1.459c0-.397.265-.662.53-.927l3.978-3.977.264-.266c-1.855-.132-3.446-.662-4.772-1.723-.132-.132-.397-.265-.53-.397-.663-.53-.663-1.193-.132-1.989.397-.53 1.06-.795 1.855-.397.133 0 .265.132.398.265 2.652 1.723 6.098 1.856 8.749.132.265-.132.53-.397.796-.397.662-.133 1.192.132 1.59.662.398.398.398 1.061-.132 1.591zM7.694 0c3.314 0 5.833 2.651 5.833 5.965 0 3.182-2.651 5.833-5.965 5.833-3.182 0-5.833-2.651-5.833-5.833A5.94 5.94 0 0 1 7.694 0z"></path>
		</symbol>
	
		<symbol id="card-tg" viewBox="0 0 30 24">
			<g clip-path="url(#a)"><path d="M1.424 9.953L27.306.14c1.16-.424 2.393.565 2.175 1.765L25.06 22.588c-.29 1.27-1.813 1.835-2.9 1.13l-9.933-6.777c-.507-.353-.58-1.059-.072-1.482l8.7-8.895c.435-.353-.073-.988-.58-.706L7.659 14.047c-.29.14-.58.14-.798.07L1.57 12.564C.264 12.141.19 10.447 1.424 9.953z"></path></g><defs><clipPath id="a"><path transform="translate(.55)" d="M0 0h29v24H0z"></path></clipPath></defs>
		</symbol>
	
		<symbol id="card-vk" viewBox="0 0 33 22">
			<g clip-path="url(#a)"><path d="M17.698 21.119C6.601 21.119.285 13.523 0 .88h5.577c.17 9.297 4.268 13.208 7.511 14.002V.881h5.236v7.993c3.187-.34 6.601-3.968 7.74-7.993h5.235a16.413 16.413 0 0 1-2.504 5.782 15.877 15.877 0 0 1-4.61 4.309c2.049 1.02 3.813 2.437 5.293 4.194 1.422 1.758 2.504 3.799 3.073 5.953h-5.805a9.794 9.794 0 0 0-3.13-4.875c-1.48-1.304-3.357-2.098-5.292-2.325v7.2h-.626z"></path></g><defs><clipPath id="a"><path transform="translate(0 .88)" d="M0 0h32.551v20.238H0z"></path></clipPath></defs>
		</symbol>
	
		<symbol id="close-additional-arrow" viewBox="0 0 6 12">
			<path fill-rule="evenodd" clip-rule="evenodd" d="M6 6L.764 12 0 11.392 4.706 6 0 .608.764 0 6 6z"></path>
		</symbol>
	
		<symbol id="closeCross" viewBox="0 0 18 18">
			<path fill-rule="evenodd" clip-rule="evenodd" d="M.47.47a.75.75 0 0 1 1.06 0L9 7.94 16.47.47a.75.75 0 1 1 1.06 1.06L10.06 9l7.47 7.47a.75.75 0 1 1-1.06 1.06L9 10.06l-7.47 7.47a.75.75 0 0 1-1.06-1.06L7.94 9 .47 1.53a.75.75 0 0 1 0-1.06z"></path>
		</symbol>
	
		<symbol id="cross-menu" viewBox="0 0 30 30">
			<path d="M23.387 3.818c.338-.452.249-1.096-.225-1.403a15 15 0 1 0 6.494 9.39c-.12-.552-.691-.863-1.233-.706-.542.158-.85.724-.736 1.277a12.956 12.956 0 1 1-5.755-8.321c.477.302 1.116.214 1.455-.237z"></path><g fill-rule="evenodd" clip-rule="evenodd"><path d="M7.293 7.293a1 1 0 0 1 1.414 0l14 14a1 1 0 0 1-1.414 1.414l-14-14a1 1 0 0 1 0-1.414z"></path><path d="M22.707 7.293a1 1 0 0 0-1.414 0l-14 14a1 1 0 1 0 1.414 1.414l14-14a1 1 0 0 0 0-1.414z"></path></g>
		</symbol>
	
		<symbol id="ellipse" viewBox="0 0 114 114">
			<path d="M90.121 12.838c.596-.794.437-1.923-.376-2.494a57 57 0 1 0 22.465 32.483c-.247-.961-1.247-1.51-2.201-1.232-.953.277-1.498 1.274-1.253 2.236a53.408 53.408 0 0 1-28.819 61.397 53.406 53.406 0 1 1 7.65-92.006c.814.568 1.939.41 2.534-.384z"></path>
		</symbol>
	
		<symbol id="email" viewBox="0 0 20 17">
			<path d="M18 .208H2c-1.1 0-2 .9-2 2v12c0 1.1.9 2 2 2h16c1.1 0 2-.9 2-2v-12c0-1.1-.9-2-2-2zm-.4 4.25l-6.54 4.09c-.65.41-1.47.41-2.12 0L2.4 4.458a.85.85 0 1 1 .9-1.44l6.7 4.19 6.7-4.19a.85.85 0 1 1 .9 1.44z"></path>
		</symbol>
	
		<symbol id="filterIcon" viewBox="0 0 19 17">
			<path fill-rule="evenodd" clip-rule="evenodd" d="M2.5 0a.5.5 0 0 1 .5.5v8a.5.5 0 0 1-1 0v-8a.5.5 0 0 1 .5-.5zm7 0a.5.5 0 0 1 .5.5v3a.5.5 0 0 1-1 0v-3a.5.5 0 0 1 .5-.5zm7 0a.5.5 0 0 1 .5.5v9a.5.5 0 0 1-1 0v-9a.5.5 0 0 1 .5-.5zm-7 7a.5.5 0 0 1 .5.5v9a.5.5 0 0 1-1 0v-9a.5.5 0 0 1 .5-.5zm-7 5a.5.5 0 0 1 .5.5v4a.5.5 0 0 1-1 0v-4a.5.5 0 0 1 .5-.5zm14 1a.5.5 0 0 1 .5.5v3a.5.5 0 0 1-1 0v-3a.5.5 0 0 1 .5-.5z"></path><path fill-rule="evenodd" clip-rule="evenodd" d="M2.5 9a1.5 1.5 0 1 0 0 3 1.5 1.5 0 0 0 0-3zM0 10.5a2.5 2.5 0 1 1 5 0 2.5 2.5 0 0 1-5 0zM9.5 4a1.5 1.5 0 1 0 0 3 1.5 1.5 0 0 0 0-3zM7 5.5a2.5 2.5 0 1 1 5 0 2.5 2.5 0 0 1-5 0zM16.5 10a1.5 1.5 0 1 0 0 3 1.5 1.5 0 0 0 0-3zM14 11.5a2.5 2.5 0 1 1 5 0 2.5 2.5 0 0 1-5 0z"></path>
		</symbol>
	
		<symbol id="footer-viber" viewBox="0 0 34 36">
			<path d="M10.069 7.405a1.491 1.491 0 0 0-.946.18h-.025a7.19 7.19 0 0 0-1.764 1.4c-.423.472-.652.949-.711 1.408-.036.272-.011.548.072.808l.031.018a19.891 19.891 0 0 0 1.854 3.87 22.816 22.816 0 0 0 3.577 4.722l.042.058.067.047.04.046.05.04a23.872 23.872 0 0 0 4.901 3.472c2.035 1.07 3.27 1.576 4.012 1.787v.01c.217.065.414.094.613.094a2.887 2.887 0 0 0 1.699-.704 6.758 6.758 0 0 0 1.434-1.709v-.012c.354-.647.234-1.256-.277-1.67a21.374 21.374 0 0 0-3.314-2.297c-.79-.413-1.59-.163-1.915.256l-.692.844c-.356.418-1.001.36-1.001.36l-.018.01c-4.812-1.186-6.096-5.89-6.096-5.89s-.06-.64.386-.967l.867-.674c.415-.327.704-1.1.259-1.862a20.128 20.128 0 0 0-2.373-3.2 1.327 1.327 0 0 0-.776-.447l.004.002zm8.13-2.046a.897.897 0 0 0-.622.25.836.836 0 0 0-.258.601c0 .226.093.442.258.602.165.16.39.25.623.25 2.227 0 4.077.702 5.54 2.05a7.518 7.518 0 0 1 1.724 2.566c.386.958.562 1.98.516 3.005a.835.835 0 0 0 .232.612.9.9 0 0 0 1.246.05.84.84 0 0 0 .284-.59 8.841 8.841 0 0 0-.636-3.693 9.235 9.235 0 0 0-2.121-3.155l-.018-.017c-1.816-1.676-4.114-2.53-6.767-2.53z"></path><path d="M18.138 8.156a.897.897 0 0 0-.623.25.836.836 0 0 0-.258.601c0 .226.093.442.258.602.166.16.39.25.623.25h.03c1.607.11 2.777.627 3.596 1.476.84.875 1.276 1.962 1.242 3.307a.836.836 0 0 0 .244.607.896.896 0 0 0 .617.263c.234.005.46-.08.629-.235a.838.838 0 0 0 .272-.596c.043-1.765-.546-3.288-1.712-4.503v-.003c-1.193-1.236-2.83-1.89-4.8-2.017l-.03-.003-.088.001z"></path><path d="M18.105 11.007a.913.913 0 0 0-.655.206.827.827 0 0 0-.066 1.223.882.882 0 0 0 .63.27c.736.037 1.206.251 1.502.539.298.29.52.754.56 1.48a.827.827 0 0 0 .281.607.887.887 0 0 0 .647.227.905.905 0 0 0 .618-.291.843.843 0 0 0 .213-.633c-.057-1.02-.388-1.923-1.066-2.586-.682-.664-1.61-.987-2.664-1.042z"></path><path fill-rule="evenodd" clip-rule="evenodd" d="M8.487.908a40.372 40.372 0 0 1 17.026 0l.598.127a9.183 9.183 0 0 1 4.348 2.27 8.709 8.709 0 0 1 2.474 4.134 32.445 32.445 0 0 1 0 16.507 8.708 8.708 0 0 1-2.474 4.133 9.183 9.183 0 0 1-4.348 2.27l-.6.128a40.36 40.36 0 0 1-10.706.85l-4.675 4.04a1.366 1.366 0 0 1-1.319.253 1.323 1.323 0 0 1-.573-.383 1.257 1.257 0 0 1-.292-.61l-.774-4.463a9.135 9.135 0 0 1-3.892-2.34 8.692 8.692 0 0 1-2.213-3.878 32.444 32.444 0 0 1 0-16.507 8.709 8.709 0 0 1 2.474-4.133 9.184 9.184 0 0 1 4.348-2.27l.598-.128zm16.45 2.49a37.638 37.638 0 0 0-15.874 0l-.6.129a6.511 6.511 0 0 0-3.081 1.61 6.174 6.174 0 0 0-1.753 2.93 29.976 29.976 0 0 0 0 15.251c.293 1.115.9 2.13 1.754 2.93a6.511 6.511 0 0 0 3.082 1.61l.16.034c.256.056.49.184.67.368.18.184.3.417.344.667l.518 2.992 3.298-2.85c.132-.115.286-.202.453-.258.168-.055.345-.078.521-.066a37.642 37.642 0 0 0 10.508-.757l.598-.13a6.51 6.51 0 0 0 3.082-1.61 6.174 6.174 0 0 0 1.754-2.93 29.986 29.986 0 0 0 0-15.25 6.174 6.174 0 0 0-1.754-2.931 6.51 6.51 0 0 0-3.082-1.61l-.598-.13z"></path>
		</symbol>
	
		<symbol id="footer-vk" viewBox="0 0 34 36">
			<path d="M13.443 1.004L14.476 1h5.048l1.035.004 1.294.014.614.01.592.016.571.02.55.023.53.03.51.035.488.042.472.047c2.465.279 4.155.875 5.43 2.153 1.275 1.277 1.87 2.97 2.148 5.441l.048.473.041.491.035.511.029.53.035.835.017.582.019.914.012 1.3.006 1.39-.001 4.704-.005 1.036-.014 1.298-.01.614-.015.594-.02.572-.023.55-.03.532-.035.511-.043.49-.046.473c-.278 2.47-.873 4.163-2.148 5.441-1.275 1.278-2.964 1.874-5.43 2.152l-.472.049-.49.041-.51.035-.528.029-.833.035-.581.017-.912.019-1.297.013-1.388.005-4.694-.001-1.034-.004-1.295-.015-.613-.01-.592-.015-.571-.02-.55-.023-.53-.03-.51-.035-.488-.043-.472-.047c-2.465-.278-4.155-.874-5.43-2.152-1.275-1.278-1.87-2.97-2.148-5.441l-.048-.473-.041-.491-.035-.512-.029-.53-.035-.834-.017-.582-.019-.914-.012-1.3L0 20.21l.001-4.704.005-1.036.014-1.298.01-.615.015-.593.02-.572.023-.551.03-.531.035-.511.043-.49.046-.473c.278-2.47.873-4.164 2.148-5.441C3.665 2.116 5.354 1.52 7.82 1.24l.472-.048.49-.041.51-.036.528-.028.833-.035.581-.018.912-.018 1.297-.013zM9.619 11.362H5.738c.184 8.86 4.604 14.183 12.353 14.183h.439v-5.068c2.848.284 5 2.37 5.865 5.068h4.023c-1.105-4.032-4.009-6.26-5.822-7.113 1.813-1.05 4.363-3.606 4.972-7.07h-3.655c-.793 2.811-3.145 5.367-5.383 5.608v-5.608h-3.655v9.825c-2.267-.568-5.128-3.322-5.256-9.825z"></path>
		</symbol>
	
		<symbol id="footer-whatsup" viewBox="0 0 34 36">
			<path d="M29.045 5.238a16.749 16.749 0 0 0-5.488-3.888A16.033 16.033 0 0 0 17.068 0C7.74 0 .137 8.01.137 17.838c0 3.15.786 6.21 2.255 8.91L0 36l8.97-2.484a16.262 16.262 0 0 0 8.098 2.178c9.329 0 16.932-8.01 16.932-17.838 0-4.77-1.76-9.252-4.955-12.618zM17.068 32.67c-2.528 0-5.006-.72-7.176-2.07l-.512-.324-5.33 1.476 1.417-5.472-.341-.558a15.468 15.468 0 0 1-2.153-7.884c0-8.172 6.321-14.832 14.078-14.832 3.759 0 7.296 1.548 9.944 4.356a14.805 14.805 0 0 1 3.057 4.812 15.42 15.42 0 0 1 1.06 5.682c.035 8.172-6.287 14.814-14.044 14.814zm7.723-11.088c-.427-.216-2.512-1.296-2.887-1.458-.393-.144-.667-.216-.957.216-.29.45-1.094 1.458-1.333 1.746-.24.306-.495.342-.922.108-.428-.216-1.794-.702-3.4-2.214-1.265-1.188-2.102-2.646-2.358-3.096-.24-.45-.034-.684.188-.918.188-.198.427-.522.632-.774.205-.252.29-.45.427-.738.137-.306.068-.558-.034-.774-.103-.216-.957-2.412-1.299-3.312-.341-.864-.7-.756-.957-.774h-.82c-.29 0-.734.108-1.127.558-.376.45-1.47 1.53-1.47 3.726 0 2.196 1.521 4.32 1.726 4.608.205.306 2.99 4.806 7.227 6.732 1.008.468 1.794.738 2.41.936 1.007.342 1.93.288 2.665.18.82-.126 2.511-1.08 2.853-2.124.359-1.044.359-1.926.239-2.124-.12-.198-.376-.288-.803-.504z"></path>
		</symbol>
	
		<symbol id="footer_telegram" viewBox="0 0 34 36">
			<path d="M17 1C7.616 1 0 8.632 0 18.036 0 27.439 7.616 35.07 17 35.07s17-7.632 17-17.035C34 8.632 26.384 1 17 1zm7.888 11.584c-.255 2.692-1.36 9.234-1.921 12.249-.238 1.277-.714 1.703-1.156 1.755-.986.085-1.734-.648-2.686-1.278-1.496-.988-2.346-1.601-3.791-2.555-1.683-1.108-.595-1.721.374-2.71.255-.255 4.607-4.224 4.692-4.582a.342.342 0 0 0-.085-.306c-.102-.086-.238-.052-.357-.034-.153.034-2.533 1.618-7.174 4.752-.68.46-1.292.699-1.836.682-.612-.017-1.768-.34-2.635-.63-1.071-.341-1.904-.529-1.836-1.125.034-.306.459-.613 1.258-.937 4.964-2.163 8.262-3.594 9.911-4.276 4.726-1.976 5.695-2.316 6.341-2.316.136 0 .459.034.663.204.17.136.221.324.238.46-.017.102.017.409 0 .647z"></path>
		</symbol>
	
		<symbol id="main-logo" viewBox="0 0 270 75">
			<path d="M86.75 52.636V21.267h13.38c1.595 0 3.19.532 4.785 1.506 2.216 1.418 3.279 3.545 3.279 6.203 0 1.95-.62 3.722-1.861 5.228-.443.532-1.063 1.064-1.861 1.684 1.861.886 3.19 2.127 4.165 3.81.798 1.33 1.152 2.925 1.152 4.608 0 2.304-.797 4.254-2.481 5.849-1.684 1.594-3.456 2.392-5.317 2.392H86.75v.089zm6.291-18.786h4.874c.975-.177 1.772-.532 2.481-1.24.709-.71.975-1.507.975-2.57 0-1.064-.355-1.95-1.063-2.57-.71-.62-1.507-.975-2.393-.975h-4.874v7.355zm.089 13.735h5.671c.886 0 1.684-.355 2.481-.975.975-.797 1.418-1.86 1.418-3.19 0-1.24-.443-2.304-1.329-3.101-.798-.71-1.595-1.064-2.393-1.064H93.13v8.33zM112.625 52.636V21.267h14.266c2.127 0 4.077.886 5.672 2.658 1.595 1.773 2.392 3.988 2.392 6.646 0 2.924-.975 5.228-2.924 7-1.418 1.241-2.836 1.861-4.076 1.861l7.532 13.204h-7.089l-9.393-16.925v16.925h-6.38zm6.38-17.368h5.848c.798 0 1.595-.355 2.304-1.064.886-.886 1.33-2.038 1.33-3.367 0-1.329-.444-2.304-1.241-3.101-.709-.71-1.506-.975-2.481-.975h-5.849v8.507h.089zM138.588 43.775V21.267h6.38v22.508c0 .974.354 1.86 1.152 2.57 1.063.974 2.658 1.417 4.696 1.417 1.95 0 3.456-.443 4.431-1.418.797-.797 1.152-1.595 1.24-2.48V21.266h6.381v22.508c0 2.835-1.064 5.139-3.102 6.911-2.038 1.772-5.051 2.747-8.95 2.747-4.076 0-7.177-.886-9.304-2.658-1.949-1.684-2.924-3.988-2.924-7zM166.146 29.508c0-2.659.975-4.785 2.925-6.557 1.949-1.773 4.253-2.57 6.911-2.57 1.064 0 2.127.177 3.19.443 1.064.266 2.216.797 3.19 1.418v6.114c-1.24-.798-2.215-1.33-2.835-1.684-1.241-.62-2.304-.886-3.19-.886-1.241 0-2.215.355-3.013 1.152-.797.798-1.152 1.595-1.152 2.57 0 1.152 1.063 2.304 3.19 3.456 3.367 1.772 5.405 2.924 6.026 3.456 2.126 1.86 3.278 4.164 3.278 7.088 0 2.304-.709 4.342-2.215 6.203-1.949 2.57-4.696 3.81-8.329 3.81h-1.152c-1.684-.177-3.722-.886-5.937-2.037V44.66a10.562 10.562 0 0 0 3.81 2.659c1.152.443 2.038.709 2.835.709 1.33 0 2.393-.443 3.279-1.33.886-.886 1.329-2.038 1.329-3.278 0-1.24-1.063-2.481-3.101-3.545-3.279-1.772-5.228-2.924-5.848-3.455-2.127-1.773-3.191-4.077-3.191-6.912zM187.146 21.267h6.824l7 17.722 6.734-17.722h6.824L200.97 53.965l-13.824-32.698zM216.92 37.129c0-4.608 1.595-8.507 4.696-11.874 3.102-3.367 7.001-4.962 11.52-4.962 4.519 0 8.418 1.595 11.608 4.785 3.19 3.19 4.785 7 4.785 11.608 0 4.608-1.595 8.595-4.696 11.874-3.102 3.278-6.912 4.873-11.431 4.873-4.608 0-8.507-1.595-11.786-4.785-3.101-3.101-4.696-6.912-4.696-11.52zm6.38.088c0 2.747.975 5.14 3.013 7 2.038 1.861 4.43 2.836 7.266 2.836 2.747 0 5.051-1.063 6.823-3.101 1.861-2.038 2.747-4.52 2.747-7.355 0-2.747-.975-5.05-3.013-6.912-2.038-1.86-4.43-2.835-7.266-2.835-2.747 0-5.051 1.063-6.912 3.101-1.683 2.038-2.658 4.52-2.658 7.266zM252.986 52.636V21.267h6.38v25.875h9.216v5.405h-15.596v.089zM92.245 61.319v3.81h.71v2.658h-1.419v-1.329H88.17v1.418h-1.33v-2.658c.178 0 .267-.089.355-.089.089-.089.177-.089.266-.177.089-.089.177-.177.266-.355.089-.088.089-.265.089-.354 0-.089.088-.266.088-.443v-2.393h4.342v-.088zm-1.595 1.24h-1.329v1.595c0 .178-.089.266-.089.355 0 .088-.088.177-.177.354-.089.089-.177.266-.266.355h1.861v-2.659zM98.626 64.154h-3.633c0 .178 0 .266.089.444.088.177.088.265.177.442.088.09.088.09.177.178a.274.274 0 0 0 .177.088c.089 0 .177 0 .177.089s.09 0 .178 0h.354c.089 0 .177-.089.266-.089l.089-.088.088-.089c0-.089.089-.089.089-.177l1.506.177c-.088.177-.088.355-.177.443a1.224 1.224 0 0 1-.266.355l-.266.265c-.088.09-.177.09-.266.178-.265.177-.443.266-.708.266-.266.088-.532.088-.798.088h-.532c-.177 0-.354-.088-.531-.088-.178-.09-.355-.09-.443-.266-.178-.089-.266-.178-.443-.355l-.532-.797c-.177-.355-.177-.71-.177-1.152 0-.177 0-.355.088-.532.089-.177.089-.354.178-.532l.265-.531c.089-.177.178-.266.355-.443.177-.178.266-.266.443-.355.177-.088.354-.177.443-.266a.964.964 0 0 1 .443-.088h.886c.177 0 .355.088.532.088.177.09.354.178.531.266.178.089.355.266.444.443.177.178.265.355.354.532.089.177.177.354.177.532.089.177.089.354.089.531v.532-.089h.177zm-1.506-.974c0-.089-.089-.178-.089-.266 0-.089-.089-.089-.089-.177 0-.089-.088-.089-.177-.178-.088-.088-.177-.177-.354-.177-.089-.088-.266-.088-.443-.088-.178 0-.355 0-.532.088-.089.089-.266.177-.266.266-.088.089-.088.177-.177.266-.089.088-.089.177-.089.266h2.216zM101.107 69.028h-1.595V61.32h1.595v.62c.088-.177.266-.354.443-.443.177-.088.266-.177.443-.265.177-.089.266-.089.354-.089h.355c.177 0 .443 0 .62.089.177.088.354.088.443.177.177.088.266.177.355.266l.265.266c.178.265.355.531.532.886.177.354.177.709.177 1.152 0 .443-.088.797-.177 1.152a7.64 7.64 0 0 1-.532.886c-.265.266-.531.443-.797.531-.266.089-.532.178-.886.178-.266 0-.443 0-.621-.089-.177-.089-.354-.089-.443-.177l-.265-.266-.178-.177v3.012h-.088zm1.152-6.468h-.266c-.089 0-.177.088-.266.088-.089 0-.177.09-.177.09s-.089.088-.177.088c-.089.177-.178.266-.266.443-.089.177-.089.354-.089.443 0 .177 0 .354.089.443.088.177.177.266.266.443.088.089.265.177.443.266.177.088.354.088.531.088.178 0 .266 0 .443-.088.178-.089.266-.177.355-.266.088-.089.177-.266.266-.443.088-.177.088-.355.088-.532 0-.177 0-.354-.088-.531-.089-.178-.178-.266-.266-.444-.089-.088-.266-.177-.355-.265-.177.177-.354.177-.531.177zM111.03 64.154h-3.633c0 .178 0 .266.089.444.088.177.088.265.177.442l.177.178a.276.276 0 0 0 .178.088c.088 0 .177 0 .177.089s.088 0 .177 0h.354c.089 0 .178-.089.266-.089l.089-.088.088-.089c0-.089.089-.089.089-.177l1.506.177c-.088.177-.088.355-.177.443a1.206 1.206 0 0 1-.266.355l-.265.265c-.089.09-.178.09-.266.178-.266.177-.443.266-.709.266-.266.088-.532.088-.798.088h-.531c-.178 0-.355-.088-.532-.088-.177-.09-.354-.09-.443-.266-.177-.089-.266-.178-.443-.355l-.532-.797c-.177-.355-.177-.71-.177-1.152 0-.177 0-.355.089-.532.088-.177.088-.354.177-.532l.266-.531c.088-.177.177-.266.354-.443.177-.178.266-.266.443-.355.177-.088.355-.177.443-.266a.965.965 0 0 1 .443-.088h.886c.178 0 .355.088.532.088.177.09.355.178.532.266.177.089.354.266.443.443.177.178.266.355.354.532.089.177.177.354.177.532.089.177.089.354.089.531v.532-.089h.177zm-1.417-.974c0-.089-.089-.178-.089-.266 0-.089-.089-.089-.089-.177 0-.089-.088-.089-.177-.178-.089-.088-.177-.177-.354-.177-.089-.088-.266-.088-.443-.088-.178 0-.355 0-.532.088-.089.089-.266.177-.266.266-.089.089-.089.177-.177.266-.089.088-.089.177-.089.266h2.216zM114.574 61.319h.621c.088 0 .177.088.354.088.089 0 .177.09.266.178.089.088.177.265.266.443.088.177.088.354.088.62 0 .177 0 .266-.088.443-.089.177-.089.266-.266.355-.089.088-.177.177-.443.265.177 0 .266.089.354.178.089.088.266.177.355.177.088.177.177.266.266.443 0 .177.088.266.088.443 0 .266 0 .443-.088.62-.089.177-.178.266-.266.443l-.177.177c-.089.09-.178.09-.266.178-.089.088-.178.088-.355.088h-3.367v-5.14h2.658zm-.354 2.038h.177c.089 0 .177 0 .177-.089.089-.088.089-.088.089-.177v-.177c0-.089 0-.177-.089-.266 0-.089-.088-.089-.088-.089-.089 0-.089-.088-.177-.088h-.887v.975h.798v-.09zm.089 1.95h.265c.089 0 .178-.09.266-.09.089-.088.089-.088.089-.177v-.265c0-.089 0-.178-.089-.178 0-.088-.088-.088-.088-.177l-.089-.088H113.6v1.063h.709v-.089zM118.474 64.597c-.177 0-.265-.088-.443-.177-.177-.088-.265-.177-.354-.266-.177-.177-.266-.354-.266-.531 0-.177-.089-.355-.089-.532 0-.177 0-.443.089-.62s.177-.443.355-.62c.088-.09.265-.178.354-.266.177-.089.266-.089.443-.178.177 0 .266-.088.443-.088h2.747v5.14h-1.595v-1.773h-.177l-1.241 1.772h-1.683l1.417-1.86zm1.595-2.126h-.797c-.089 0-.177.088-.266.088-.089.089-.089.089-.089.178 0 .088-.088.177-.088.265 0 .09 0 .178.088.266 0 .089.089.089.089.178 0 0 .089.088.177.088.089 0 .089 0 .178.089h.797V62.47h-.089zM122.816 61.319h1.595v1.772h1.773V61.32h1.595v5.14h-1.595V64.42h-1.773v2.038h-1.595v-5.14zM128.93 61.319h1.595v1.772h1.772V61.32h1.595v5.14h-1.595V64.42h-1.772v2.038h-1.595v-5.14zM137.615 63.091h.443c.089 0 .266.089.354.089.089 0 .178.088.266.177.089.089.177.089.177.177.089.089.178.177.178.266.088.089.088.177.088.354 0 .089.089.178.089.266v.532c0 .088 0 .177-.089.354-.088.178-.088.266-.088.355-.089.088-.178.177-.266.354-.089.089-.177.177-.355.266-.088.089-.265.089-.354.177-.089 0-.266.089-.355.089h-2.924v-5.14h1.595v1.773h1.241v-.089zm-.443 2.127h.266l.088-.089c.089-.089.089-.089.089-.177v-.177c0-.089 0-.178-.089-.266 0-.089-.088-.089-.088-.089-.089-.088-.178-.088-.266-.088h-.798v1.063h.798v-.177zm4.253-3.9v5.14h-1.506v-5.14h1.506zM147.628 64.154h-3.633c0 .178 0 .266.089.444.088.177.088.265.177.442.088.09.088.09.177.178s.177.088.177.088c.089 0 .177 0 .177.089s.089 0 .178 0h.354c.089 0 .177-.089.266-.089l.089-.088.088-.089c0-.089.089-.089.089-.177l1.506.177c-.088.177-.088.355-.177.443a1.224 1.224 0 0 1-.266.355l-.266.265c-.088.09-.177.09-.266.178-.265.177-.443.266-.708.266-.266.088-.532.088-.798.088h-.532c-.177 0-.354-.088-.531-.088-.178-.09-.355-.09-.443-.266-.178-.089-.266-.178-.443-.355l-.532-.797c-.177-.355-.177-.71-.177-1.152 0-.177 0-.355.088-.532.089-.177.089-.354.177-.532l.266-.531c.089-.177.178-.266.355-.443.177-.178.266-.266.443-.355.177-.088.354-.177.443-.266a.962.962 0 0 1 .443-.088h.886c.177 0 .355.088.532.088.177.09.354.178.531.266.178.089.355.266.443.443.178.178.266.355.355.532.089.177.177.354.177.532.089.177.089.354.089.531v.532-.089h.177zm-1.418-.974c0-.089-.088-.178-.088-.266 0-.089-.089-.089-.089-.177 0-.089-.089-.089-.177-.178-.089-.088-.177-.177-.355-.177-.088-.088-.266-.088-.443-.088s-.354 0-.531.088c-.089.089-.266.177-.266.266-.089.089-.089.177-.177.266-.089.088-.089.177-.089.266h2.215zM156.399 61.319v3.81h.709v2.658h-1.417v-1.329h-3.279v1.418h-1.418v-2.658c.177 0 .266-.089.355-.089.088-.089.177-.089.265-.177.089-.089.178-.177.266-.355.089-.088.089-.265.089-.354 0-.089.088-.266.088-.443v-2.393h4.342v-.088zm-1.595 1.24h-1.329v1.595c0 .178-.088.266-.088.355 0 .088-.089.177-.178.354-.088.089-.177.266-.265.355h1.86v-2.659zM163.313 63.889c0 .177 0 .354-.089.532 0 .177-.089.354-.177.531-.089.177-.177.355-.266.443-.089.177-.177.266-.354.443-.089.089-.266.178-.355.355-.177.088-.266.177-.443.266-.177.088-.354.177-.62.177-.177 0-.443.088-.709.088-.266 0-.443 0-.709-.088-.266-.089-.443-.089-.62-.177-.177-.09-.355-.178-.443-.266a.691.691 0 0 1-.355-.355c-.088-.088-.266-.266-.354-.443-.089-.177-.177-.354-.266-.443-.089-.177-.089-.354-.177-.531 0-.178-.089-.355-.089-.532 0-.177 0-.355.089-.532 0-.177.088-.354.177-.532.089-.177.177-.354.266-.443.088-.177.177-.265.354-.443l.355-.354c.177-.089.266-.177.443-.266.177-.089.354-.177.62-.177.177 0 .443-.089.709-.089.266 0 .443 0 .709.089.177 0 .443.088.62.177s.355.177.443.266a.695.695 0 0 1 .355.354c.088.089.265.266.354.443.089.178.177.355.266.444.088.177.088.354.177.531.089.177.089.355.089.532zm-2.924-1.33c-.355 0-.621.09-.887.355-.088.089-.177.266-.265.443-.089.177-.089.355-.089.532 0 .266 0 .443.089.62.088.177.177.266.265.355.089.088.178.177.355.265.177.089.354.089.532.089.177 0 .354 0 .443-.089.177-.088.265-.177.354-.266.089-.088.177-.265.266-.442.088-.178.088-.355.088-.532 0-.177 0-.355-.088-.532-.089-.177-.177-.266-.266-.443-.089-.266-.443-.354-.797-.354zM164.729 61.319h1.241l1.24 2.835 1.241-2.835h1.24l.887 5.14h-1.507l-.354-2.748-1.241 2.747h-.532l-1.152-2.747-.354 2.747h-1.506l.797-5.14zM175.187 61.32h1.595v5.139h-1.595v-.62c-.089.177-.266.354-.355.442-.088.089-.266.178-.354.266-.089.089-.266.089-.355.089h-.886c-.177 0-.266-.177-.443-.177-.177-.089-.266-.178-.443-.266-.177-.089-.266-.266-.443-.355a2.366 2.366 0 0 1-.532-.886c-.088-.354-.177-.62-.177-.975 0-.443.089-.797.177-1.151.089-.355.355-.62.532-.887.177-.266.443-.354.709-.531.266-.089.62-.178.975-.178h.354c.089 0 .266.09.443.09.177.088.266.088.443.265.178.088.266.266.355.354v-.62zm-1.152 1.24c-.177 0-.355 0-.443.088-.089.089-.266.177-.355.266-.088.089-.177.177-.266.355-.088.177-.088.354-.088.531v.355c0 .177.088.177.088.266 0 .088.089.177.089.177 0 .088.089.088.089.177.088.089.266.177.443.266.177.088.354.088.531.088.178 0 .355 0 .443-.088.089-.089.266-.177.355-.266.089-.089.177-.266.266-.355.088-.177.088-.354.088-.531 0-.177 0-.355-.088-.532-.089-.177-.177-.266-.266-.443-.089-.089-.266-.177-.443-.266-.089-.088-.266-.088-.443-.088zM186.44 63.889c0 .177 0 .354-.089.532 0 .177-.089.354-.177.531-.089.177-.177.355-.266.443-.089.177-.177.266-.354.443-.089.089-.266.178-.355.355-.177.088-.266.177-.443.266-.177.088-.354.177-.62.177s-.443.088-.709.088c-.266 0-.443 0-.709-.088-.266-.089-.443-.089-.62-.177-.178-.09-.355-.178-.443-.266a.691.691 0 0 1-.355-.355c-.088-.088-.266-.266-.354-.443-.089-.177-.178-.354-.266-.443-.089-.088-.089-.354-.177-.531 0-.178-.089-.355-.089-.532 0-.177 0-.355.089-.532.088-.177.088-.354.177-.532.088-.177.177-.354.266-.443.088-.177.177-.265.354-.443l.355-.354c.177-.089.265-.177.443-.266.177-.089.354-.177.62-.177.177 0 .443-.089.709-.089.266 0 .443 0 .709.089.177 0 .443.088.62.177s.354.177.443.266a.695.695 0 0 1 .355.354c.088.089.265.266.354.443.089.178.177.355.266.444.088.177.088.354.177.531.089.177.089.355.089.532zm-2.836-1.33c-.354 0-.62.09-.886.355-.089.089-.177.266-.266.443-.088.177-.088.355-.088.532 0 .266 0 .443.088.62.089.177.177.266.266.355.089.088.177.177.354.265.178.089.355.089.532.089.177 0 .355 0 .443-.089.177-.088.266-.177.355-.266.088-.088.177-.265.265-.442.089-.178.089-.355.089-.532 0-.177 0-.355-.089-.532-.088-.177-.177-.266-.265-.443-.178-.266-.443-.354-.798-.354zM189.719 62.648v3.81h-1.595v-3.81h-1.329v-1.33h4.165v1.33h-1.241zM194.768 61.319h4.785v5.14h-1.595v-3.811h-1.683v3.81h-1.595v-5.14h.088zM202.3 69.028h-1.595V61.32h1.595v.62c.089-.177.266-.354.443-.443.177-.088.266-.177.443-.265.177-.089.266-.089.355-.089h.354c.177 0 .443 0 .62.089.178.088.355.088.443.177.178.088.266.177.355.266l.266.266c.177.265.354.531.531.886.178.354.178.709.178 1.152 0 .443-.089.797-.178 1.152-.177.354-.354.62-.531.886-.266.266-.532.443-.798.531-.266.089-.531.178-.886.178-.266 0-.443 0-.62-.089s-.355-.089-.443-.177l-.266-.266-.177-.177v3.012h-.089zm1.152-6.468h-.266c-.088 0-.177.088-.266.088-.088 0-.177.09-.177.09-.088 0-.088.088-.177.088-.089.177-.177.266-.266.443-.089.177-.089.354-.089.443 0 .177 0 .354.089.443.089.177.177.266.266.443.089.089.266.177.443.266.177.088.354.088.532.088.177 0 .265 0 .443-.088.177-.089.266-.177.354-.266.089-.089.177-.266.266-.443.089-.177.089-.355.089-.532 0-.177 0-.354-.089-.531-.089-.178-.177-.266-.266-.444-.088-.088-.266-.177-.354-.265-.178.177-.355.177-.532.177zM212.758 63.889c0 .177 0 .354-.089.532 0 .177-.088.354-.177.531-.088.177-.177.355-.266.443-.088.177-.177.266-.354.443-.089.089-.266.178-.355.355-.177.088-.265.177-.443.266-.177.088-.354.177-.62.177s-.443.088-.709.088c-.266 0-.443 0-.709-.088-.177 0-.443-.089-.62-.177-.177-.09-.354-.178-.443-.266a.69.69 0 0 1-.354-.355c-.089-.088-.266-.266-.355-.443-.089-.177-.177-.354-.266-.443-.088-.177-.088-.354-.177-.531 0-.178-.089-.355-.089-.532 0-.177 0-.355.089-.532.089-.177.089-.354.177-.532.089-.177.177-.354.266-.443.089-.177.177-.265.355-.443l.354-.354c.089-.089.266-.177.443-.266.177-.089.354-.177.62-.177.178 0 .443-.089.709-.089.266 0 .443 0 .709.089.177 0 .443.088.62.177.178.089.355.177.443.266.089.088.266.177.355.354.089.089.266.266.354.443.089.178.178.355.266.444.089.177.089.354.177.531.089.177.089.355.089.532zm-2.836-1.33c-.354 0-.62.09-.886.355-.088.089-.177.266-.266.443-.088.177-.088.355-.088.532 0 .266 0 .443.088.62.089.177.178.266.266.355.089.088.178.177.355.265.177.089.354.089.531.089.178 0 .355 0 .443-.089.178-.088.266-.177.355-.266.089-.088.177-.265.266-.442.088-.178.088-.355.088-.532 0-.177 0-.355-.088-.532-.089-.177-.177-.266-.266-.443-.177-.266-.443-.354-.798-.354zM215.238 61.319v2.924l2.038-2.924h1.417v5.14h-1.595v-2.925l-2.038 2.924h-1.417v-5.14h1.595zM219.846 61.762c.089 0 .089-.089.177-.089.089 0 .177-.088.177-.088.089 0 .178-.089.178-.089l.177-.088c.177-.089.354-.089.531-.178h.887c.088 0 .265 0 .443.09.177 0 .354.088.443.176.177.089.266.177.443.266.177.177.266.266.266.443.088.177.088.355.088.532 0 .177 0 .354-.088.443 0 .177-.089.266-.266.443l-.177.177c-.089.089-.178.089-.178.089.178.088.355.088.443.177l.178.177c.088.089.177.266.265.355.089.177.089.266.089.443s0 .354-.089.531a1.842 1.842 0 0 1-.354.532 1.927 1.927 0 0 1-.709.443c-.266.089-.62.089-1.063.089-.177 0-.443 0-.621-.089-.177-.088-.443-.088-.62-.177-.088 0-.177-.089-.266-.177-.088-.089-.177-.089-.265-.177-.089-.09-.178-.09-.178-.178-.088 0-.088-.088-.177-.088l.62-1.064.266.266c.089.089.177.177.266.177.089 0 .266.089.354.089.178 0 .266.089.355.089h.266c.088 0 .177-.089.266-.089.088-.089.177-.089.177-.177v-.177c0-.09 0-.178-.089-.178 0-.088-.088-.088-.177-.088h-.089-1.152v-1.152h.887c.088 0 .088 0 .177-.089.088-.088.177-.088.177-.177v-.177c0-.089 0-.089-.089-.178l-.177-.177s-.088 0-.177-.088h-.709c-.089 0-.177.088-.266.088-.177.089-.354.177-.531.355l-.089-1.24zM227.644 61.319h.62c.089 0 .177.088.355.088.088 0 .177.09.266.178.088.088.177.265.265.443.089.177.089.354.089.62 0 .177 0 .266-.089.443-.088.177-.088.266-.265.355-.089.088-.178.177-.444.265.178 0 .266.089.355.178.089.088.266.177.354.177.089.177.178.266.266.443 0 .177.089.266.089.443 0 .266 0 .443-.089.62-.088.177-.177.266-.266.443l-.177.177c-.088.09-.177.09-.266.178-.088.088-.177.088-.354.088h-3.279v-5.14h2.57zm-.354 2.038h.177c.088 0 .177 0 .177-.089.089-.088.089-.088.089-.177v-.177c0-.089 0-.177-.089-.266 0-.089-.089-.089-.089-.089-.088 0-.088-.088-.177-.088h-.886v.975h.798v-.09zm0 1.95h.265c.089 0 .178-.09.266-.09.089-.088.089-.088.089-.177v-.265c0-.089 0-.178-.089-.178 0-.088-.088-.088-.088-.177l-.089-.088h-1.063v1.063h.709v-.089zM235.973 63.889c0 .177 0 .354-.089.532 0 .177-.088.354-.177.531-.089.177-.177.355-.266.443-.088.177-.177.266-.354.443-.089.089-.266.178-.355.355-.177.088-.266.177-.443.266-.177.088-.354.177-.62.177s-.443.088-.709.088c-.266 0-.443 0-.709-.088-.177 0-.443-.089-.62-.177-.177-.09-.355-.178-.443-.266a.695.695 0 0 1-.355-.355c-.088-.088-.265-.266-.354-.443-.089-.177-.177-.354-.266-.443-.089-.177-.089-.354-.177-.531 0-.178-.089-.355-.089-.532 0-.177 0-.355.089-.532.088-.177.088-.354.177-.532.089-.177.177-.354.266-.443.089-.177.177-.265.354-.443l.355-.354c.088-.089.266-.177.443-.266.177-.089.354-.177.62-.177.177 0 .443-.089.709-.089.266 0 .443 0 .709.089.177 0 .443.088.62.177s.355.177.443.266c.089.088.266.177.355.354.088.089.266.266.354.443.089.178.177.355.266.444.089.177.089.354.177.531.089.177.089.355.089.532zm-2.836-1.33c-.354 0-.62.09-.886.355-.088.089-.177.266-.266.443-.088.177-.088.355-.088.532 0 .266 0 .443.088.62.089.177.178.266.266.355.089.088.177.177.355.265.177.089.354.089.531.089.178 0 .355 0 .443-.089.178-.088.266-.177.355-.266.088-.088.177-.265.266-.442.088-.178.088-.355.088-.532 0-.177 0-.355-.088-.532-.089-.177-.178-.266-.266-.443-.177-.266-.443-.354-.798-.354zM241.734 61.319v3.81h.709v2.658h-1.418v-1.329h-3.367v1.418h-1.418v-2.658c.177 0 .266-.089.355-.089.088-.089.177-.089.266-.177.088-.089.177-.177.265-.355.089-.088.089-.265.089-.354 0-.177.089-.266.089-.443v-2.393h4.43v-.088zm-1.595 1.24h-1.329v1.595c0 .178-.089.266-.089.355 0 .088-.088.177-.177.354-.088.089-.177.266-.266.355h1.861v-2.659zM244.745 61.319v2.924l2.038-2.924h1.418v5.14h-1.595v-2.925l-2.038 2.924h-1.418v-5.14h1.595zM251.834 62.648v3.81h-1.595v-3.81h-1.329v-1.33h4.165v1.33h-1.241zM258.746 64.154h-3.544c0 .178 0 .266.089.444.088.177.088.265.177.442.088.09.088.09.177.178s.177.088.177.088c.089 0 .177 0 .177.089h.532c.089 0 .177-.089.266-.089l.089-.088.088-.089c0-.089.089-.089.089-.177l1.506.177c-.088.177-.088.355-.177.443-.089.089-.177.266-.266.355l-.266.265c-.088.09-.177.09-.266.178-.265.177-.443.266-.708.266-.266.088-.532.088-.798.088h-.532c-.177 0-.354-.088-.531-.088-.178-.09-.355-.09-.443-.266-.178-.089-.266-.178-.443-.355l-.532-.797c-.177-.355-.177-.71-.177-1.152 0-.177 0-.355.088-.532.089-.177.089-.354.178-.532l.265-.531c.089-.177.178-.266.355-.443.177-.178.266-.266.443-.355.177-.088.354-.177.443-.266a.962.962 0 0 1 .443-.088h.886c.177 0 .355.088.532.088.177.09.354.178.531.266.178.089.355.266.444.443.177.178.265.355.354.532.089.177.177.354.177.532.089.177.089.354.089.531v.532-.089h.088zm-1.417-.974c0-.089-.089-.178-.089-.266 0-.089-.089-.089-.089-.177 0-.089-.088-.089-.177-.178-.088-.088-.177-.177-.354-.177-.089-.088-.266-.088-.443-.088-.178 0-.355 0-.532.088-.089.089-.266.177-.266.266-.088.089-.088.177-.177.266-.089.088-.089.177-.089.266h2.216zM264.506 66.459h-1.595v-3.81h-1.24v2.214c0 .178-.089.355-.089.444-.089.177-.089.266-.177.354-.089.089-.089.177-.177.266-.089.089-.178.177-.355.266-.089.089-.266.089-.354.177-.089 0-.266.089-.355.089h-.709c-.088 0-.177 0-.266-.089v-1.329h.355c.089 0 .177 0 .177-.089 0-.088.089-.088.177-.088l.089-.089s0-.088.089-.177c0-.089 0-.177.088-.266v-3.19h4.342v5.317zM266.722 64.597c-.177 0-.266-.088-.443-.177-.178-.088-.266-.177-.355-.266-.177-.177-.266-.354-.266-.531 0-.177-.088-.355-.088-.532 0-.177 0-.443.088-.62.089-.177.178-.443.355-.62.088-.09.266-.178.354-.266.089-.089.266-.089.443-.178.178-.088.266-.088.443-.088H270v5.14h-1.595v-1.773h-.177l-1.152 1.684h-1.683l1.329-1.773zm1.595-2.126h-.798c-.088 0-.177.088-.266.088-.088.089-.088.089-.088.178 0 .088-.089.177-.089.265 0 .09 0 .178.089.266.088.089.088.089.088.178 0 0 .089.088.178.088.088 0 .088 0 .177.089.088.088.088 0 .177 0h.62V62.47h-.088zM69.206 0H66.37l-.354 4.785H61.23L60.965 0h-7.798l-.354 4.785h-4.785L47.762 0h-7.71l-.354 4.785h-4.785L34.559 0h-7.71l-.354 4.785H21.71L21.444 0h-7.71l-.354 4.785H8.595L8.241 0H5.405L0 5.405v63.89l3.544 3.544 2.216-2.215.266 4.076h9.747l.354-4.785h2.747l.355 4.785h9.747l.355-4.785h1.772c.354.088.709.088 1.063.177l.355 4.608h9.747l.354-4.608c.355-.089.71-.089 1.064-.177h1.772l.354 4.785h9.748l.354-4.785h2.57l.354 4.785h9.747l.266-4.076 2.216 2.215 3.544-3.545V5.405L69.206 0zm-.71 7.443l.267-4.076 3.19 3.19v8.596c-1.773-2.836-3.988-5.406-6.38-7.71h2.924zM45.282 2.658l.177 2.481c-.975-.265-2.038-.443-3.102-.62l.178-1.86h2.747zm-13.203 0l.088 1.861c-1.063.177-2.038.355-3.101.62l.265-2.48h2.748zm-26.23.71l.266 4.075h2.924c-2.392 2.304-4.607 4.874-6.38 7.71V6.469l3.19-3.102zm2.747 68.585l-.354-4.785H5.405l-1.86 1.86-.887-.886v-8.595A40.553 40.553 0 0 0 13.38 70.801l-.088 1.152H8.595zm17.9 0H21.71l-.355-4.785h-7.709v.443c-4.608-3.545-8.418-8.153-10.988-13.47V20.47A37.704 37.704 0 0 1 13.115 7.355h2.746l.266-4.697h2.747l.355 4.785h3.721C11.785 12.76 4.076 24.191 4.076 37.306c0 14.62 9.482 27.026 22.596 31.457l-.177 3.19zm13.203 0h-4.785l-.354-4.785h-3.28C17.369 64.42 6.824 52.104 6.824 37.305 6.823 22.154 17.9 9.57 32.432 7.179v.177h9.747v-.177C56.711 9.57 67.788 22.153 67.788 37.306c0 14.798-10.545 27.115-24.545 29.862h-3.28l-.265 4.785zm13.469-4.785l-.354 4.785h-4.785l-.178-3.19c13.115-4.43 22.596-16.837 22.596-31.458 0-13.203-7.709-24.545-18.874-29.862h3.722l.354-4.785h2.836l.354 4.785h2.747c4.342 3.545 7.887 7.975 10.456 13.115v33.584c-2.57 5.316-6.38 9.924-10.987 13.557v-.443h-7.887v-.088zm17.9 1.86l-1.861-1.86H66.37l-.354 4.785H61.23l-.089-1.152c4.253-3.013 7.887-6.912 10.722-11.254v8.595l-.797.887z"></path><path d="M37.306 28.71c-4.696 0-8.595 3.81-8.595 8.595a8.547 8.547 0 0 0 8.595 8.596 8.547 8.547 0 0 0 8.596-8.596c0-4.785-3.9-8.595-8.596-8.595zm0 14.532a5.937 5.937 0 1 1 .001-11.874 5.937 5.937 0 0 1 0 11.874z"></path><path d="M37.305 21.178a16.073 16.073 0 0 0-16.127 16.128c0 8.95 7.177 16.216 16.127 16.216s16.216-7.267 16.216-16.216c0-8.95-7.266-16.128-16.216-16.128zm0 29.685c-7.443 0-13.558-6.025-13.558-13.557a13.501 13.501 0 0 1 13.558-13.558 13.501 13.501 0 0 1 13.558 13.558c0 7.532-6.114 13.557-13.558 13.557z"></path><path d="M61.319 37.305c0-13.291-10.811-24.014-24.014-24.014S13.29 24.014 13.29 37.305c0 13.292 10.81 24.014 24.014 24.014 13.203 0 24.014-10.722 24.014-24.014zM37.305 58.661c-11.786 0-21.356-9.57-21.356-21.356 0-11.785 9.57-21.355 21.356-21.355 11.785 0 21.355 9.57 21.355 21.355 0 11.786-9.57 21.356-21.355 21.356z"></path>
		</symbol>
	
		<symbol id="mobile-menu" viewBox="0 0 30 30">
			<path fill-rule="evenodd" clip-rule="evenodd" d="M7 9.965C7 9.432 7.438 9 7.979 9H22.02c.54 0 .979.432.979.965a.972.972 0 0 1-.979.965H7.98A.972.972 0 0 1 7 9.965zM7 15c0-.533.438-.965.979-.965H22.02c.54 0 .979.432.979.965a.972.972 0 0 1-.979.965H7.98A.972.972 0 0 1 7 15zm0 5.035c0-.533.438-.965.979-.965H22.02c.54 0 .979.432.979.965a.972.972 0 0 1-.979.965H7.98A.972.972 0 0 1 7 20.035z"></path><path d="M23.387 3.818c.338-.452.249-1.096-.225-1.403a15 15 0 1 0 6.494 9.39c-.12-.552-.691-.863-1.233-.706-.542.158-.85.724-.736 1.277a12.956 12.956 0 1 1-5.755-8.321c.477.302 1.116.214 1.455-.237z"></path>
		</symbol>
	
		<symbol id="pagArrow" viewBox="0 0 28 14">
			<path fill-rule="evenodd" clip-rule="evenodd" d="M21.343.278l6.364 6.05c.39.371.39.973 0 1.344l-6.364 6.05a1.037 1.037 0 0 1-1.414 0 .918.918 0 0 1 0-1.345l4.657-4.426H0V6.049h24.586l-4.657-4.426a.918.918 0 0 1 0-1.345 1.037 1.037 0 0 1 1.414 0z"></path>
		</symbol>
	
		<symbol id="preloader" viewBox="0 0 58 58">
			<g transform="translate(2 1)" stroke="#588534" stroke-width="1.5" fill-rule="evenodd"><circle cx="42.601" cy="11.462" r="5"><animate attributeName="fill-opacity" begin="0s" dur="1.3s" values="1;0;0;0;0;0;0;0" calcMode="linear" repeatCount="indefinite"></animate></circle><circle cx="49.063" cy="27.063" r="5" fill-opacity="0"><animate attributeName="fill-opacity" begin="0s" dur="1.3s" values="0;1;0;0;0;0;0;0" calcMode="linear" repeatCount="indefinite"></animate></circle><circle cx="42.601" cy="42.663" r="5" fill-opacity="0"><animate attributeName="fill-opacity" begin="0s" dur="1.3s" values="0;0;1;0;0;0;0;0" calcMode="linear" repeatCount="indefinite"></animate></circle><circle cx="27" cy="49.125" r="5" fill-opacity="0"><animate attributeName="fill-opacity" begin="0s" dur="1.3s" values="0;0;0;1;0;0;0;0" calcMode="linear" repeatCount="indefinite"></animate></circle><circle cx="11.399" cy="42.663" r="5" fill-opacity="0"><animate attributeName="fill-opacity" begin="0s" dur="1.3s" values="0;0;0;0;1;0;0;0" calcMode="linear" repeatCount="indefinite"></animate></circle><circle cx="4.938" cy="27.063" r="5" fill-opacity="0"><animate attributeName="fill-opacity" begin="0s" dur="1.3s" values="0;0;0;0;0;1;0;0" calcMode="linear" repeatCount="indefinite"></animate></circle><circle cx="11.399" cy="11.462" r="5" fill-opacity="0"><animate attributeName="fill-opacity" begin="0s" dur="1.3s" values="0;0;0;0;0;0;1;0" calcMode="linear" repeatCount="indefinite"></animate></circle><circle cx="27" cy="5" r="5" fill-opacity="0"><animate attributeName="fill-opacity" begin="0s" dur="1.3s" values="0;0;0;0;0;0;0;1" calcMode="linear" repeatCount="indefinite"></animate></circle></g>
		</symbol>
	
		<symbol id="ps_logo" viewBox="0 0 135 28">
			<g fill-rule="evenodd" clip-rule="evenodd"><path d="M31.755 12.913h-2.608V8.737l2.567.01c1.306 0 1.99 1.038 1.99 2.065 0 .881-.678 2.101-1.95 2.101zM28.28 6.84c-.636 0-1.015.376-1.015 1.005v10.843c0 .599.355.956.95.956.585 0 .934-.357.934-.956V14.82l2.615-.003c2.516-.012 3.874-2.098 3.874-4.055 0-2.2-1.778-3.922-4.05-3.922h-3.308zM39.826 17.75V7.778c0-.597-.355-.955-.95-.955-.585 0-.934.358-.934.955v10.584c0 .815.417 1.282 1.145 1.282h5.604c.595 0 .951-.357.951-.956 0-.587-.356-.938-.95-.938h-4.866zM67.473 16.97c-.6.603-1.736 1.024-2.763 1.024-2.586 0-3.94-2.404-3.94-4.777 0-2.239 1.228-4.647 3.924-4.647.916 0 2.17.33 2.797.96.196.195.525.298.749.298.532 0 .934-.431.934-1.004 0-.325-.146-.613-.42-.845-1.127-1.057-2.81-1.434-4.011-1.434-3.93 0-5.987 3.414-5.987 6.786 0 3.19 1.843 6.622 5.89 6.622 1.483 0 3.035-.552 4.056-1.446.238-.218.358-.509.358-.864 0-.571-.375-.955-.934-.955a.888.888 0 0 0-.653.282zM73.346 17.75v-3.79h4.327c.595 0 .95-.345.95-.922 0-.61-.355-.972-.95-.972h-4.328V8.75h5.107c.595 0 .95-.35.95-.938 0-.598-.355-.956-.95-.956h-5.976c-.635 0-1.015.406-1.015 1.086v10.616c0 .704.162 1.086 1.015 1.086h6.106c.656 0 1.047-.35 1.047-.939 0-.287-.102-.955-1.047-.955h-5.236zM86.96 12.405l-.491-.258c-1.105-.577-2.149-1.122-2.149-1.833 0-1.004.906-1.685 1.752-1.69h.023c1.112 0 1.942.46 2.469.865l.084.054c.223.144.455.294.73.294.512 0 .928-.443.928-.988 0-.46-.314-.786-.6-1.03-.254-.196-1.611-1.172-3.373-1.172-2.394 0-4.066 1.535-4.066 3.732 0 1.895 1.898 2.87 3.626 3.758.267.139.549.263.827.385 1.171.514 1.844.881 1.889 1.896.058 1.297-2.446 2.363-4.745.95-.257-.157-.518-.252-.769-.252-.57 0-.91.34-.91.907 0 .28.104.684.607 1.015a5.538 5.538 0 0 0 3.03.872c3.11 0 4.824-1.27 4.824-3.574 0-2.178-1.546-2.906-2.91-3.549-.265-.125-.528-.248-.776-.382zM93.486 6.91c-.636 0-1 .347-1 .955 0 .588.374.939 1 .939h3.075v9.873c0 .649.362 1.036.967 1.036.585 0 .934-.387.934-1.036V8.804h3.092c.606 0 .967-.351.967-.939 0-.598-.361-.956-.967-.956h-8.068zM109.142 14.323h-3.122l1.582-4.348 1.54 4.348zm-.283-6.433c-.227-.622-.678-.965-1.27-.965s-1.043.343-1.271.969l-3.674 10.46a1.4 1.4 0 0 0-.083.437c0 .552.349.922.869.922.281 0 .793-.11 1.061-.854l.932-2.645h4.337l1.174 2.88c.149.399.473.62.911.62.531 0 .902-.374.902-.908 0-.096-.012-.285-.089-.471L108.859 7.89zM119.349 12.967h-2.565V8.804h2.566c1.45 0 1.99 1.266 1.99 2.064 0 .812-.54 2.099-1.991 2.099zm1.584 1.479c1.602-.649 2.337-2.284 2.337-3.627 0-1.896-1.42-3.91-4.053-3.91h-3.045c-.882 0-1.275.45-1.275 1.46v10.254c0 .984.665 1.09.95 1.09.585 0 .934-.405.934-1.085V14.86h2.17l2.505 4.35c.118.236.364.52.864.52.52 0 .869-.358.869-.89a1.68 1.68 0 0 0-.191-.745l-2.065-3.65zM125.859 6.91c-.635 0-.999.348-.999.956 0 .587.374.938.999.938h3.076v9.873c0 .65.361 1.037.967 1.037.584 0 .933-.387.933-1.037V8.804h3.093c.605 0 .966-.35.966-.938 0-.599-.361-.956-.966-.956h-8.069zM53.88 14.281h-3.122l1.582-4.347 1.54 4.347zM53.6 7.85c-.227-.623-.678-.965-1.27-.965-.593 0-1.044.342-1.272.968l-3.674 10.459a1.389 1.389 0 0 0-.083.438c0 .552.35.922.87.922.281 0 .793-.11 1.06-.855l.932-2.644H54.5l1.174 2.879c.15.4.473.62.912.62.53 0 .901-.373.901-.906a1.28 1.28 0 0 0-.089-.473L53.6 7.85zM10.957 20.645c-.704-.006-2.165-.279-3.297-.533a1.12 1.12 0 0 0-1.026.295l-4.852 4.791c-.002-5.683-.003-13.716-.001-13.923.056-5.086 4.206-9.224 9.25-9.224h.061c2.447.016 4.76 1.01 6.511 2.8 1.747 1.781 2.696 4.11 2.675 6.557-.045 5.007-4.275 9.237-9.237 9.237h-.084zm.146-20.28h-.071C5.074.366.174 5.253.107 11.256c-.003.247 0 9.678.001 13.707v1.534c0 .32.128.615.359.83a1.123 1.123 0 0 0 1.569-.018l5.558-5.487c.9.192 2.46.499 3.35.507h.097c5.863 0 10.86-4.995 10.912-10.907.026-2.896-1.095-5.65-3.155-7.753C16.73 1.558 13.999.386 11.104.366z"></path><path d="M12.715 7.002a.846.846 0 0 0-.571 1.055.841.841 0 0 0 .406.505 3.206 3.206 0 0 1 1.665 2.815 3.197 3.197 0 0 1-3.185 3.202 3.197 3.197 0 0 1-3.185-3.202c0-1.103.554-2.115 1.483-2.706a.856.856 0 0 0 .26-1.173.84.84 0 0 0-1.165-.262 4.886 4.886 0 0 0-2.268 4.141c0 2.702 2.187 4.901 4.875 4.901s4.875-2.198 4.875-4.9a4.903 4.903 0 0 0-2.547-4.308.831.831 0 0 0-.643-.068z"></path><path d="M10.082 6.738v3.602c0 .469.38.85.845.85a.848.848 0 0 0 .845-.85V6.738a.848.848 0 0 0-.845-.85.848.848 0 0 0-.845.85z"></path></g>
		</symbol>
	
		<symbol id="search-icon" viewBox="0 0 30 30">
			<path d="M18.88 20.62a9.844 9.844 0 1 1 1.74-1.739l4.987 4.988a1.229 1.229 0 0 1-1.185 2.081 1.228 1.228 0 0 1-.554-.341L18.88 20.62zm1.346-7.777a7.383 7.383 0 0 0-12.64-5.29 7.382 7.382 0 1 0 12.64 5.29z"></path>
		</symbol>
	
		<symbol id="smallAroow" viewBox="0 0 8 10">
			<path fill-rule="evenodd" clip-rule="evenodd" d="M3.733.5c.263 0 .476.224.476.5v6.793l2.213-2.329a.459.459 0 0 1 .672 0 .519.519 0 0 1 0 .708L4.07 9.354a.459.459 0 0 1-.672 0L.373 6.172a.519.519 0 0 1 0-.708.459.459 0 0 1 .672 0l2.213 2.329V1c0-.276.213-.5.475-.5z"></path>
		</symbol>
	
		<symbol id="swiper-arrow" viewBox="0 0 33 15">
			<path fill-rule="evenodd" clip-rule="evenodd" d="M6.657.882L.293 6.932a.918.918 0 0 0 0 1.344l6.364 6.05c.39.37 1.024.37 1.414 0a.918.918 0 0 0 0-1.345L3.414 8.554H32c.552 0 1-.425 1-.95 0-.525-.448-.951-1-.951H3.414l4.657-4.427a.918.918 0 0 0 0-1.344 1.037 1.037 0 0 0-1.414 0z"></path>
		</symbol>
	
		<symbol id="tail-spin" viewBox="0 0 38 38">
			<defs><linearGradient x1="8.042%" y1="0%" x2="65.682%" y2="23.865%" id="a"><stop stop-color="#fff" stop-opacity="0" offset="0%"></stop><stop stop-color="#fff" stop-opacity=".631" offset="63.146%"></stop><stop stop-color="#fff" offset="100%"></stop></linearGradient></defs><g transform="translate(1 1)" fill-rule="evenodd"><path d="M36 18c0-9.94-8.06-18-18-18" stroke="url(#a)" stroke-width="2"><animateTransform attributeName="transform" type="rotate" from="0 18 18" to="360 18 18" dur="0.9s" repeatCount="indefinite"></animateTransform></path><circle cx="36" cy="18" r="1"><animateTransform attributeName="transform" type="rotate" from="0 18 18" to="360 18 18" dur="0.9s" repeatCount="indefinite"></animateTransform></circle></g>
		</symbol>
	
		<symbol id="telegram" viewBox="0 0 30 30">
			<path d="M15.759 2.679c-6.432 0-11.652 5.4-11.652 12.053 0 6.654 5.22 12.054 11.652 12.054 6.432 0 11.652-5.4 11.652-12.054 0-6.653-5.22-12.053-11.652-12.053zm5.406 8.196c-.174 1.905-.932 6.533-1.316 8.667-.163.904-.49 1.205-.793 1.241-.675.06-1.188-.458-1.84-.904-1.026-.699-1.609-1.133-2.599-1.808-1.153-.783-.408-1.217.256-1.916.175-.181 3.158-2.99 3.216-3.243a.25.25 0 0 0-.058-.217c-.07-.06-.163-.036-.245-.024-.105.024-1.736 1.145-4.917 3.363-.466.326-.885.494-1.258.482-.42-.012-1.212-.24-1.806-.446-.734-.24-1.305-.373-1.258-.795.023-.217.314-.434.862-.663 3.402-1.531 5.662-2.544 6.793-3.026 3.239-1.398 3.903-1.639 4.346-1.639.093 0 .314.024.454.145a.485.485 0 0 1 .163.325c-.011.072.012.29 0 .458z"></path>
		</symbol>
	
		<symbol id="viber" viewBox="0 0 30 30">
			<path d="M10.757 7.45a.95.95 0 0 0-.638.13h-.017a4.92 4.92 0 0 0-1.19 1.012c-.284.34-.439.685-.48 1.016-.023.197-.006.396.05.584l.021.012c.32.975.739 1.913 1.25 2.795a16.42 16.42 0 0 0 2.411 3.41l.029.042.045.035.027.033.034.03c.994.977 2.104 1.82 3.305 2.506 1.372.773 2.204 1.139 2.705 1.29v.008c.146.047.279.068.413.068a1.88 1.88 0 0 0 1.145-.509c.386-.354.713-.77.967-1.234v-.008c.24-.468.158-.907-.186-1.206a14.433 14.433 0 0 0-2.235-1.66c-.532-.298-1.073-.117-1.291.185l-.467.61c-.24.302-.675.26-.675.26l-.012.008c-3.244-.857-4.11-4.255-4.11-4.255s-.04-.462.26-.698l.585-.487c.28-.236.475-.794.174-1.344a14.51 14.51 0 0 0-1.6-2.31.884.884 0 0 0-.523-.324l.003.001zm5.482-1.477a.584.584 0 0 0-.42.18.625.625 0 0 0 0 .87c.112.114.263.18.42.18 1.502 0 2.75.507 3.736 1.48a5.514 5.514 0 0 1 1.51 4.024.628.628 0 0 0 .157.442.583.583 0 0 0 .84.037.624.624 0 0 0 .191-.428 6.791 6.791 0 0 0-.428-2.667 6.715 6.715 0 0 0-1.43-2.278l-.013-.012c-1.224-1.21-2.774-1.828-4.563-1.828z"></path><path d="M16.197 7.993a.584.584 0 0 0-.42.18.625.625 0 0 0 0 .87c.112.115.263.18.42.18h.02c1.084.08 1.873.453 2.425 1.066.567.632.86 1.417.838 2.388a.627.627 0 0 0 .164.439.583.583 0 0 0 .84.02.625.625 0 0 0 .184-.43c.028-1.275-.369-2.375-1.155-3.253v-.002c-.804-.892-1.908-1.364-3.236-1.456l-.02-.003-.06.001z"></path><path d="M16.175 10.052a.574.574 0 0 0-.442.148.611.611 0 0 0-.204.432.634.634 0 0 0 .16.452.593.593 0 0 0 .424.195c.497.027.814.182 1.013.39.201.208.35.544.378 1.069a.633.633 0 0 0 .19.438.59.59 0 0 0 .436.164.578.578 0 0 0 .417-.211.62.62 0 0 0 .143-.457c-.038-.737-.262-1.388-.719-1.868-.46-.479-1.086-.713-1.796-.752z"></path><path fill-rule="evenodd" clip-rule="evenodd" d="M9.69 2.758c3.78-.874 7.7-.874 11.48 0l.403.092a6.065 6.065 0 0 1 2.932 1.64 6.389 6.389 0 0 1 1.668 2.985c.96 3.912.96 8.01 0 11.92a6.388 6.388 0 0 1-1.668 2.986 6.064 6.064 0 0 1-2.932 1.64l-.404.092a25.467 25.467 0 0 1-7.22.613l-3.15 2.917a.863.863 0 0 1-.89.183.891.891 0 0 1-.387-.276.936.936 0 0 1-.197-.441l-.521-3.223a6.098 6.098 0 0 1-2.625-1.69 6.4 6.4 0 0 1-1.492-2.8c-.96-3.912-.96-8.01 0-11.921A6.389 6.389 0 0 1 6.355 4.49a6.066 6.066 0 0 1 2.932-1.64l.403-.092zm11.092 1.798a23.735 23.735 0 0 0-10.704 0l-.404.094a4.3 4.3 0 0 0-2.078 1.162 4.53 4.53 0 0 0-1.182 2.116 23.137 23.137 0 0 0 0 11.014 4.53 4.53 0 0 0 1.183 2.117 4.3 4.3 0 0 0 2.079 1.162l.106.025c.173.04.33.132.453.265.122.134.202.301.232.482l.349 2.16 2.224-2.058a.885.885 0 0 1 .657-.233c2.375.174 4.762-.01 7.085-.547l.403-.094a4.3 4.3 0 0 0 2.079-1.162 4.532 4.532 0 0 0 1.182-2.117c.886-3.613.886-7.4 0-11.014a4.531 4.531 0 0 0-1.183-2.116 4.3 4.3 0 0 0-2.078-1.162l-.403-.094z"></path>
		</symbol>
	
		<symbol id="whatsapp" viewBox="0 0 33 32">
			<path fill-rule="evenodd" clip-rule="evenodd" d="M24.517 19.644c0-.185-.364-.185-.73-.366-.367-.185-2.377-1.28-2.561-1.28-.366-.183-.549-.183-.73.181-.185.366-.914 1.28-1.28 1.648-.185.18-.367.18-.733 0-.366-.183-1.644-.549-3.109-2.012-1.278-.914-2.011-2.379-2.192-2.56-.185-.367 0-.548.18-.733.184-.181.368-.364.55-.549.184-.18.184-.365.365-.546.183-.183 0-.368 0-.549 0-.185-.731-2.194-1.28-2.743-.366-.733-.548-.548-.73-.548h-.733c-.18 0-.546 0-.914.364-.366.365-1.461 1.464-1.461 3.108 0 2.013 1.461 3.842 1.644 4.025.184.18 2.743 4.388 6.766 5.851 4.022 1.644 4.022.915 4.756.915.73 0 2.377-.915 2.558-1.829-.366-1.28-.366-2.194-.366-2.377M16.283 2.819c-7.314 0-13.349 6.035-13.349 13.349 0 2.924.915 5.486 2.562 7.68L3.85 28.785l5.12-1.646c2.194 1.461 4.571 2.195 7.314 2.195 7.314 0 13.35-6.035 13.35-13.35 0-7.313-5.851-13.165-13.35-13.165m16.096 13.35c0 6.947-5.122 12.982-11.705 14.995-4.389 1.28-8.41.365-11.886-1.463l-6.217 2.011C1.474 32.078.56 30.98.927 30.065l2.01-6.034c-1.28-2.195-2.01-4.753-2.194-7.496C.379 8.672 6.228 1.722 14.093.444 23.785-1.202 32.56 6.478 32.38 16.169"></path>
		</symbol>
	
		<symbol id="whatsup" viewBox="0 0 30 30">
			<path d="M24.075 5.807a12.574 12.574 0 0 0-4.11-2.72 12.74 12.74 0 0 0-4.86-.944c-6.987 0-12.681 5.602-12.681 12.476 0 2.203.588 4.343 1.689 6.232L2.32 27.32l6.718-1.737a12.848 12.848 0 0 0 6.066 1.524c6.986 0 12.68-5.603 12.68-12.476 0-3.336-1.317-6.471-3.71-8.825zm-8.97 19.186c-1.894 0-3.75-.504-5.375-1.448l-.384-.227-3.992 1.033 1.062-3.828-.256-.39a10.28 10.28 0 0 1-1.612-5.514c0-5.715 4.735-10.373 10.544-10.373a10.52 10.52 0 0 1 7.447 3.046c.982.962 1.76 2.106 2.29 3.366.53 1.26.8 2.61.794 3.974.026 5.715-4.709 10.36-10.518 10.36zm5.784-7.755c-.32-.151-1.881-.907-2.163-1.02-.294-.1-.499-.151-.716.151-.218.315-.82 1.02-.999 1.221-.179.214-.37.24-.69.076-.32-.151-1.344-.491-2.547-1.549-.947-.83-1.574-1.85-1.766-2.165-.18-.315-.025-.479.14-.642.142-.139.32-.365.474-.542.154-.176.218-.314.32-.516.103-.214.051-.39-.025-.541-.077-.151-.717-1.687-.973-2.316-.256-.605-.525-.53-.717-.542h-.614c-.217 0-.55.076-.844.39-.282.315-1.1 1.07-1.1 2.607 0 1.535 1.138 3.02 1.292 3.222.153.214 2.239 3.362 5.412 4.709a15.65 15.65 0 0 0 1.805.654c.755.24 1.446.202 1.996.126.614-.088 1.88-.755 2.137-1.485.269-.73.269-1.347.179-1.486-.09-.138-.281-.201-.601-.352z"></path>
		</symbol>
	
</svg>
