<svg xmlns="http://www.w3.org/2000/svg" xmlns:xlink="http://www.w3.org/1999/xlink" width="0" height="0" style="position:absolute">
	
		<symbol id="apostrov" viewBox="0 0 77 58">
			<path fill-rule="evenodd" clip-rule="evenodd" d="M59.514 23.997V0h-7.998l-7.292 23.997V58H77V23.997H59.514zm15.486 2H57.514V2H53l-6.775 22.294V56H75V25.997zm-59.71-2V0H7.292L0 23.997V58h32.776V23.997H15.29zm15.486 2H13.29V2H8.775L2 24.294V56h28.776V25.997z" fill="#588534"></path>
		</symbol>
	
		<symbol id="chat" viewBox="0 0 108 108">
			<circle cx="54" cy="54" r="43" fill="#9BB686"></circle><path d="M105.233 54c1.528 0 2.774-1.24 2.696-2.766a54 54 0 1 0-9.204 33.027c.856-1.266.43-2.971-.877-3.761-1.308-.79-3.002-.366-3.866.894a48.47 48.47 0 0 1-59.2 17.1 48.467 48.467 0 1 1 67.606-47.26c.087 1.526 1.318 2.766 2.845 2.766z" fill="#9BB686"></path><path d="M35.125 38.073c-.812 0-1.591.324-2.166.9a3.079 3.079 0 0 0-.897 2.174v24.586c0 .815.323 1.597.898 2.173.574.577 1.353.9 2.165.9h29.357c1.624 0 3.182.649 4.33 1.802l6.126 6.146V41.147c0-.816-.323-1.597-.898-2.173a3.057 3.057 0 0 0-2.165-.9h-36.75zM71.875 35c1.624 0 3.182.648 4.331 1.8A6.158 6.158 0 0 1 78 41.147v39.317a1.54 1.54 0 0 1-.946 1.42 1.527 1.527 0 0 1-1.67-.335l-8.737-8.769a3.057 3.057 0 0 0-2.165-.9H35.125a6.114 6.114 0 0 1-4.331-1.8A6.158 6.158 0 0 1 29 65.733V41.147c0-1.63.645-3.194 1.794-4.347a6.114 6.114 0 0 1 4.331-1.8h36.75z" fill="#fff"></path><circle cx="41.5" cy="54.5" r="2.5" fill="#fff"></circle><circle cx="53.5" cy="54.5" r="2.5" fill="#fff"></circle><circle cx="65.5" cy="54.5" r="2.5" fill="#fff"></circle>
		</symbol>
	
		<symbol id="ps" viewBox="0 0 234.85 47.26">
			<defs><style>.cls-1{fill:#113820}.cls-2{fill:#9bbf2e}</style></defs><title>PS_main</title><g id="Слой_2" data-name="Слой 2"><g id="Слой_1-2" data-name="Слой 1"><path class="cls-1" d="M54.86 11.22h-5.77A1.61 1.61 0 0 0 47.32 13v18.8a1.65 1.65 0 1 0 3.29 0v-6.75h4.55a6.78 6.78 0 0 0 6.75-7 6.86 6.86 0 0 0-7.05-6.83zm3.69 6.88a3.6 3.6 0 0 1-3.4 3.64h-4.54v-7.23h4.47a3.42 3.42 0 0 1 3.47 3.59zM77.68 30.13h-8.47V12.85a1.65 1.65 0 1 0-3.29 0v18.34c0 1.41.73 2.22 2 2.22h9.76a1.64 1.64 0 1 0 0-3.28zM118.52 28.29a1.55 1.55 0 0 0-1.14.49 7.3 7.3 0 0 1-4.81 1.77c-4.51 0-6.87-4.16-6.87-8.28 0-3.88 2.14-8 6.84-8a7.62 7.62 0 0 1 4.87 1.66 2 2 0 0 0 1.31.52 1.65 1.65 0 0 0 1.63-1.74 1.88 1.88 0 0 0-.74-1.46 10.62 10.62 0 0 0-7-2.49c-6.84 0-10.43 5.92-10.43 11.76C102.19 28 105.4 34 112.45 34a11.15 11.15 0 0 0 7.07-2.51 1.93 1.93 0 0 0 .63-1.5 1.55 1.55 0 0 0-1.63-1.7zM136.74 30.13h-9.13v-6.57h7.54a1.5 1.5 0 0 0 1.66-1.6 1.54 1.54 0 0 0-1.66-1.68h-7.54v-5.75h8.9a1.51 1.51 0 0 0 1.66-1.63 1.52 1.52 0 0 0-1.66-1.65H126.1a1.68 1.68 0 0 0-1.77 1.88v18.4c0 1.22.28 1.88 1.77 1.88h10.64c1.14 0 1.82-.61 1.82-1.63 0-.49-.17-1.65-1.82-1.65zM152.68 21.53c-.46-.22-.92-.43-1.35-.66l-.86-.45c-1.92-1-3.74-2-3.74-3.18a3.06 3.06 0 0 1 3.05-2.93 7 7 0 0 1 4.3 1.5l.15.1a2.4 2.4 0 0 0 1.27.51 1.68 1.68 0 0 0 1.62-1.72 2.4 2.4 0 0 0-1-1.78 10.25 10.25 0 0 0-5.87-2c-4.17 0-7.09 2.66-7.09 6.46 0 3.29 3.31 5 6.32 6.52.47.24 1 .45 1.44.67 2 .89 3.21 1.52 3.29 3.28.1 2.25-4.26 4.1-8.27 1.65a2.63 2.63 0 0 0-1.34-.44 1.45 1.45 0 0 0-1.6 1.54 2 2 0 0 0 1.06 1.76 9.7 9.7 0 0 0 5.28 1.51c5.42 0 8.4-2.2 8.4-6.19.01-3.78-2.68-5.04-5.06-6.15zM176.76 11.34H162.7A1.54 1.54 0 0 0 161 13a1.54 1.54 0 0 0 1.74 1.62h5.36v17.12a1.6 1.6 0 0 0 1.68 1.79 1.58 1.58 0 0 0 1.63-1.79V14.62h5.39a1.52 1.52 0 0 0 1.64-1.62 1.54 1.54 0 0 0-1.68-1.66zM196.11 31.14L189.49 13a2.3 2.3 0 0 0-4.43 0l-6.4 18.13a2.32 2.32 0 0 0-.15.75 1.48 1.48 0 0 0 1.52 1.6 1.93 1.93 0 0 0 1.85-1.48l1.62-4.58h7.56l2 5a1.6 1.6 0 0 0 1.59 1.07 1.5 1.5 0 0 0 1.61-1.49 2.3 2.3 0 0 0-.15-.86zM190 24.19h-5.44l2.76-7.53zM210.53 24.4a6.82 6.82 0 0 0-3-13.06h-5.31c-1.54 0-2.22.78-2.22 2.53v17.77c0 1.71 1.16 1.89 1.66 1.89 1 0 1.62-.7 1.62-1.88v-6.53h3.78l4.37 7.54a1.57 1.57 0 0 0 1.5.9 1.45 1.45 0 0 0 1.53-1.56 2.8 2.8 0 0 0-.34-1.29zm.7-6.2a3.51 3.51 0 0 1-3.47 3.64h-4.47v-7.22h4.47a3.48 3.48 0 0 1 3.47 3.58zM233.17 11.34h-14.06a1.54 1.54 0 0 0-1.74 1.66 1.54 1.54 0 0 0 1.74 1.62h5.36v17.12a1.6 1.6 0 0 0 1.68 1.79 1.58 1.58 0 0 0 1.63-1.79V14.62h5.39a1.52 1.52 0 0 0 1.68-1.62 1.54 1.54 0 0 0-1.68-1.66zM99.82 31.07L93.2 13a2.3 2.3 0 0 0-4.43 0l-6.4 18.1a2.39 2.39 0 0 0-.14.76 1.47 1.47 0 0 0 1.51 1.6A1.93 1.93 0 0 0 85.59 32l1.62-4.58h7.56l2 5a1.59 1.59 0 0 0 1.59 1.07 1.5 1.5 0 0 0 1.64-1.6 2.14 2.14 0 0 0-.18-.82zm-6.13-6.95h-5.44L91 16.59z"></path><g id="surface1"><path class="cls-2" d="M32.57 5.72A18.9 18.9 0 0 0 19.16 0H19A19.14 19.14 0 0 0 0 18.87v26.42a2 2 0 0 0 2 2 1.94 1.94 0 0 0 1.38-.57l9.69-9.5a38.23 38.23 0 0 0 5.83.88h.17a19.35 19.35 0 0 0 19-18.91 18.85 18.85 0 0 0-5.5-13.47zM19.05 35.15h-.14a36.77 36.77 0 0 1-5.75-.93 2 2 0 0 0-1.78.51L2.92 43V18.91A16.2 16.2 0 0 1 19 2.92h.1a16 16 0 0 1 11.39 4.85 15.92 15.92 0 0 1 4.66 11.37 16.38 16.38 0 0 1-16.1 16.01z"></path><path class="cls-2" d="M23.09 11.62A1.46 1.46 0 0 0 22 11.5a1.48 1.48 0 0 0-.88.71 1.46 1.46 0 0 0-.12 1.12 1.48 1.48 0 0 0 .71.88 5.56 5.56 0 1 1-5.61.19 1.47 1.47 0 1 0-1.58-2.49 8.49 8.49 0 1 0 8.6-.29z"></path><path class="cls-2" d="M18.85 9.57a1.47 1.47 0 0 0-1.47 1.48v6.24a1.48 1.48 0 0 0 2.95 0v-6.24a1.48 1.48 0 0 0-1.48-1.48z"></path></g></g></g>
		</symbol>
	
		<symbol id="star" viewBox="0 0 10 10">
			<path d="M9.75 4.555L7.738 6.378l.603 2.713a.767.767 0 0 1-.026.427.739.739 0 0 1-.25.34.697.697 0 0 1-.788.036l-2.28-1.436-2.275 1.436a.694.694 0 0 1-.788-.036.738.738 0 0 1-.25-.34.767.767 0 0 1-.026-.427l.602-2.71L.248 4.554a.745.745 0 0 1-.222-.361.768.768 0 0 1 .009-.429.742.742 0 0 1 .235-.351.7.7 0 0 1 .384-.158l2.653-.239L4.342.454a.733.733 0 0 1 .262-.33.693.693 0 0 1 .79 0c.116.08.208.196.262.33l1.038 2.563 2.652.239a.7.7 0 0 1 .384.158c.11.09.192.213.235.351a.768.768 0 0 1 .009.429.745.745 0 0 1-.222.361H9.75z" fill="#BCCEAE"></path>
		</symbol>
	
</svg>
