<svg width="41" height="14" viewBox="0 0 41 14" fill="none" xmlns="http://www.w3.org/2000/svg">
<path id="Arrow 3 (Stroke)" fill-rule="evenodd" clip-rule="evenodd" d="M34.3431 0.27842L40.7071 6.32784C41.0976 6.69907 41.0976 7.30094 40.7071 7.67216L34.3431 13.7216C33.9526 14.0928 33.3195 14.0928 32.9289 13.7216C32.5384 13.3504 32.5384 12.7485 32.9289 12.3773L37.5858 7.95058L0.999999 7.95058C0.447715 7.95058 -6.57855e-07 7.52499 -6.11959e-07 7C-5.66064e-07 6.47501 0.447715 6.04942 0.999999 6.04942L37.5858 6.04943L32.9289 1.62274C32.5384 1.25151 32.5384 0.649643 32.9289 0.27842C33.3195 -0.0928028 33.9526 -0.0928027 34.3431 0.27842Z" fill="white"/>
</svg>
