<svg width="24" height="24" viewBox="0 0 24 24" fill="none" xmlns="http://www.w3.org/2000/svg">
<g clip-path="url(#clip0_735_5458)">
<path d="M14.5825 9.46594C14.31 9.19188 14.0079 8.94894 13.6818 8.74157C12.818 8.18846 11.8139 7.89454 10.7882 7.89454C9.36453 7.89189 7.99875 8.45754 6.99385 9.46594L2.11872 14.3449C1.11553 15.35 0.551681 16.7118 0.550782 18.1319C0.548896 21.0953 2.94963 23.4992 5.91304 23.5011C7.33447 23.506 8.699 22.943 9.70354 21.9373L13.7278 17.9131C13.8009 17.8406 13.8418 17.7417 13.8412 17.6387C13.84 17.427 13.6674 17.2565 13.4557 17.2577H13.3024C12.4616 17.2606 11.6283 17.0992 10.8495 16.7824C10.706 16.7234 10.5411 16.7567 10.4318 16.8667L7.53811 19.7642C6.63957 20.6628 5.18274 20.6628 4.2842 19.7642C3.38565 18.8657 3.38565 17.4089 4.2842 16.5103L9.1785 11.6199C10.0763 10.7232 11.5308 10.7232 12.4286 11.6199C13.0337 12.1893 13.9775 12.1893 14.5825 11.6199C14.8428 11.3593 15.0007 11.0138 15.0271 10.6464C15.0551 10.2073 14.8932 9.77737 14.5825 9.46594Z" fill="#588535"/>
<path d="M21.9818 2.07166C19.8862 -0.0238858 16.4887 -0.0238858 14.3932 2.07166L10.3727 6.08825C10.2623 6.19919 10.2305 6.36605 10.2922 6.50986C10.3533 6.65408 10.4959 6.74665 10.6525 6.74364H10.7943C11.6341 6.74211 12.466 6.90483 13.2433 7.22273C13.3868 7.28179 13.5517 7.24847 13.6611 7.13843L16.547 4.25627C17.4456 3.35772 18.9024 3.35772 19.801 4.25627C20.6995 5.15481 20.6995 6.61163 19.801 7.51018L16.2059 11.1014L16.1752 11.1358L14.9182 12.3853C14.0203 13.282 12.5659 13.282 11.6681 12.3853C11.063 11.8158 10.1192 11.8158 9.51413 12.3853C9.25214 12.6478 9.09418 12.9964 9.06952 13.3664C9.0415 13.8055 9.20341 14.2354 9.51413 14.5469C9.95774 14.9924 10.4768 15.3557 11.0472 15.62C11.1277 15.6584 11.2081 15.689 11.2886 15.7235C11.3691 15.758 11.4534 15.7848 11.5339 15.8155C11.6144 15.8462 11.6987 15.873 11.7792 15.896L12.0053 15.9573C12.1586 15.9956 12.3119 16.0263 12.469 16.0531C12.6583 16.0812 12.8489 16.0991 13.0401 16.1068H13.3084H13.3314L13.5614 16.08C13.6457 16.0761 13.7338 16.057 13.8335 16.057H13.9638L14.2282 16.0187L14.3509 15.9957L14.5732 15.9497H14.6153C15.5568 15.7132 16.4164 15.2257 17.1027 14.5392L21.9817 9.66029C24.0773 7.56475 24.0773 4.1672 21.9818 2.07166Z" fill="#588535"/>
</g>
<defs>
<clipPath id="clip0_735_5458">
<rect width="23" height="23" fill="white" transform="translate(0.550781 0.5)"/>
</clipPath>
</defs>
</svg>
