<svg width="15" height="24" viewBox="0 0 15 24" fill="none" xmlns="http://www.w3.org/2000/svg">
<path fill-rule="evenodd" clip-rule="evenodd" d="M7.6939 8.749C9.2849 8.749 10.6109 7.423 10.6109 5.833C10.6109 4.242 9.2849 2.916 7.6939 2.916C6.1039 2.916 4.7779 4.242 4.7779 5.833C4.7779 7.556 5.9709 8.749 7.6939 8.749ZM14.1899 14.184C13.5269 14.979 12.5989 15.51 11.6709 15.775C10.7429 16.172 9.8149 16.305 8.7549 16.437C8.8869 16.57 9.0199 16.703 9.0199 16.835C10.3449 18.161 11.6709 19.486 12.9969 20.812C13.3939 21.21 13.5269 21.873 13.2619 22.403C12.9969 22.933 12.3339 23.331 11.8029 23.331C11.4059 23.331 11.1409 23.066 10.8759 22.801C9.8149 21.74 8.8869 20.812 7.8269 19.751C7.5619 19.486 7.4289 19.486 7.1639 19.751C6.1039 20.812 5.1749 21.873 4.1149 22.801C3.5849 23.198 3.0539 23.331 2.5239 23.066C1.9939 22.801 1.5959 22.138 1.5959 21.607C1.5959 21.21 1.8609 20.945 2.1269 20.68L6.1039 16.703C6.2359 16.57 6.2359 16.57 6.3679 16.437C4.5129 16.305 2.9219 15.775 1.5959 14.714C1.4639 14.582 1.1989 14.449 1.0659 14.317C0.402902 13.787 0.402902 13.124 0.933902 12.328C1.3309 11.798 1.9939 11.533 2.7889 11.931C2.9219 11.931 3.0539 12.063 3.1869 12.196C5.8389 13.919 9.2849 14.052 11.9359 12.328C12.2009 12.196 12.4659 11.931 12.7319 11.931C13.3939 11.798 13.9239 12.063 14.3219 12.593C14.7199 12.991 14.7199 13.654 14.1899 14.184ZM7.6939 0C11.0079 0 13.5269 2.651 13.5269 5.965C13.5269 9.147 10.8759 11.798 7.5619 11.798C4.3799 11.798 1.7289 9.147 1.7289 5.965C1.7289 2.651 4.3799 0 7.6939 0Z" fill="#588535"/>
</svg>
