<svg width="33" height="22" viewBox="0 0 33 22" fill="none" xmlns="http://www.w3.org/2000/svg">
<g clip-path="url(#clip0_735_5451)">
<path d="M17.698 21.1189C6.60118 21.1189 0.284534 13.5225 0 0.880859H5.57686C5.74758 10.1779 9.84486 14.0894 13.0885 14.8831V0.880859H18.324V8.87402C21.5107 8.53389 24.9251 4.90578 26.0633 0.880859H31.2987C30.8434 2.97836 29.9898 4.90578 28.7948 6.66315C27.5428 8.42051 26.0064 9.83773 24.1853 10.9715C26.234 11.9919 27.9981 13.4091 29.4777 15.1665C30.9003 16.9239 31.9816 18.9647 32.5506 21.1189H26.7461C26.234 19.2481 25.1528 17.5474 23.6163 16.2436C22.1367 14.9398 20.2588 14.1461 18.324 13.9193V21.1189H17.698Z" fill="#588535"/>
</g>
<defs>
<clipPath id="clip0_735_5451">
<rect width="32.5506" height="20.238" fill="white" transform="translate(0 0.880859)"/>
</clipPath>
</defs>
</svg>
