<svg width="30" height="30" viewBox="0 0 30 30" fill="none" xmlns="http://www.w3.org/2000/svg">
<g id="Frame 9009">
<path id="Ellipse 19" d="M23.3867 3.81771C23.7254 3.3661 23.6356 2.72219 23.162 2.41501C20.476 0.672872 17.2939 -0.169139 14.0805 0.0282084C10.5261 0.246503 7.16525 1.72226 4.59922 4.19149C2.03319 6.66073 0.429353 9.96235 0.0746097 13.5058C-0.280133 17.0492 0.637359 20.6032 2.66296 23.5321C4.68857 26.4611 7.69014 28.5738 11.1308 29.4924C14.5714 30.411 18.2266 30.0755 21.4425 28.546C24.6584 27.0165 27.2253 24.3927 28.684 21.144C30.0026 18.2071 30.3378 14.9326 29.6557 11.8045C29.5354 11.253 28.9646 10.9417 28.4226 11.0993C27.8805 11.2568 27.573 11.8235 27.6873 12.3763C28.2375 15.0367 27.9389 17.8126 26.8191 20.3067C25.5592 23.1126 23.3422 25.3788 20.5645 26.6999C17.7868 28.021 14.6298 28.3107 11.6581 27.5173C8.68636 26.7239 6.09385 24.8991 4.3443 22.3694C2.59476 19.8396 1.8023 16.7699 2.1087 13.7094C2.4151 10.6489 3.80036 7.79724 6.01668 5.66452C8.233 3.5318 11.1358 2.25717 14.2058 2.06862C16.9346 1.90103 19.6373 2.60124 21.9324 4.05495C22.4092 4.35702 23.048 4.26931 23.3867 3.81771Z" fill="#588534"/>
<g id="Group 4629">
<path id="Vector 53 (Stroke)" fill-rule="evenodd" clip-rule="evenodd" d="M7.29289 7.29289C7.68342 6.90237 8.31658 6.90237 8.70711 7.29289L22.7071 21.2929C23.0976 21.6834 23.0976 22.3166 22.7071 22.7071C22.3166 23.0976 21.6834 23.0976 21.2929 22.7071L7.29289 8.70711C6.90237 8.31658 6.90237 7.68342 7.29289 7.29289Z" fill="#588534"/>
<path id="Vector 54 (Stroke)" fill-rule="evenodd" clip-rule="evenodd" d="M22.7071 7.29289C22.3166 6.90237 21.6834 6.90237 21.2929 7.29289L7.29289 21.2929C6.90237 21.6834 6.90237 22.3166 7.29289 22.7071C7.68342 23.0976 8.31658 23.0976 8.70711 22.7071L22.7071 8.70711C23.0976 8.31658 23.0976 7.68342 22.7071 7.29289Z" fill="#588534"/>
</g>
</g>
</svg>
