<svg width="114" height="114" viewBox="0 0 114 114" fill="none" xmlns="http://www.w3.org/2000/svg">
<path d="M90.1215 12.838C90.7172 12.0438 90.5576 10.9145 89.745 10.3442C79.1888 2.9351 66.4138 -0.68554 53.5059 0.107192C39.9991 0.93671 27.228 6.54459 17.477 15.9277C7.72612 25.3108 1.63154 37.8569 0.283517 51.3219C-1.06451 64.7869 2.42196 78.2923 10.1193 89.4222C17.8166 100.552 29.2225 108.58 42.2969 112.071C55.3712 115.562 69.261 114.287 81.4815 108.475C93.7021 102.663 103.456 92.6923 108.999 80.3473C114.296 68.5497 115.417 55.3189 112.21 42.8272C111.963 41.8657 110.963 41.3178 110.009 41.5949C109.056 41.8719 108.511 42.8689 108.756 43.831C111.726 55.5025 110.667 67.8559 105.72 78.8748C100.526 90.4412 91.3873 99.7827 79.9375 105.228C68.4877 110.674 55.4739 111.868 43.2242 108.598C30.9745 105.327 20.2878 97.8052 13.076 87.3773C5.86418 76.9494 2.59759 64.2958 3.8606 51.68C5.1236 39.0643 10.8338 27.3094 19.9697 18.5181C29.1057 9.72679 41.0713 4.4726 53.7263 3.69539C65.7823 2.95498 77.7145 6.32377 87.5869 13.2217C88.4007 13.7903 89.5259 13.6322 90.1215 12.838Z" fill="#588535"/>
</svg>
