<svg width="20" height="17" viewBox="0 0 20 17" fill="none" xmlns="http://www.w3.org/2000/svg">
<g id="Frame 8982">
<path id="Vector" d="M18 0.20752H2C0.9 0.20752 0 1.10752 0 2.20752V14.2075C0 15.3075 0.9 16.2075 2 16.2075H18C19.1 16.2075 20 15.3075 20 14.2075V2.20752C20 1.10752 19.1 0.20752 18 0.20752ZM17.6 4.45752L11.06 8.54752C10.41 8.95752 9.59 8.95752 8.94 8.54752L2.4 4.45752C2.29973 4.40123 2.21192 4.32518 2.14189 4.23397C2.07186 4.14277 2.02106 4.0383 1.99258 3.92689C1.96409 3.81548 1.9585 3.69945 1.97616 3.58583C1.99381 3.4722 2.03434 3.36333 2.09528 3.26582C2.15623 3.16831 2.23632 3.08418 2.33073 3.01851C2.42513 2.95285 2.53187 2.90703 2.6445 2.88382C2.75712 2.86061 2.87328 2.86049 2.98595 2.88347C3.09863 2.90645 3.20546 2.95205 3.3 3.01752L10 7.20752L16.7 3.01752C16.7945 2.95205 16.9014 2.90645 17.014 2.88347C17.1267 2.86049 17.2429 2.86061 17.3555 2.88382C17.4681 2.90703 17.5749 2.95285 17.6693 3.01851C17.7637 3.08418 17.8438 3.16831 17.9047 3.26582C17.9657 3.36333 18.0062 3.4722 18.0238 3.58583C18.0415 3.69945 18.0359 3.81548 18.0074 3.92689C17.9789 4.0383 17.9281 4.14277 17.8581 4.23397C17.7881 4.32518 17.7003 4.40123 17.6 4.45752Z" fill="white"/>
</g>
</svg>
