<svg width="19" height="17" viewBox="0 0 19 17" fill="none" xmlns="http://www.w3.org/2000/svg">
<path fill-rule="evenodd" clip-rule="evenodd" d="M2.5 0C2.77614 0 3 0.223858 3 0.5V8.5C3 8.77614 2.77614 9 2.5 9C2.22386 9 2 8.77614 2 8.5V0.5C2 0.223858 2.22386 0 2.5 0ZM9.5 0C9.77614 0 10 0.223858 10 0.5V3.5C10 3.77614 9.77614 4 9.5 4C9.22386 4 9 3.77614 9 3.5V0.5C9 0.223858 9.22386 0 9.5 0ZM16.5 0C16.7761 0 17 0.223858 17 0.5V9.5C17 9.77614 16.7761 10 16.5 10C16.2239 10 16 9.77614 16 9.5V0.5C16 0.223858 16.2239 0 16.5 0ZM9.5 7C9.77614 7 10 7.22386 10 7.5V16.5C10 16.7761 9.77614 17 9.5 17C9.22386 17 9 16.7761 9 16.5V7.5C9 7.22386 9.22386 7 9.5 7ZM2.5 12C2.77614 12 3 12.2239 3 12.5V16.5C3 16.7761 2.77614 17 2.5 17C2.22386 17 2 16.7761 2 16.5V12.5C2 12.2239 2.22386 12 2.5 12ZM16.5 13C16.7761 13 17 13.2239 17 13.5V16.5C17 16.7761 16.7761 17 16.5 17C16.2239 17 16 16.7761 16 16.5V13.5C16 13.2239 16.2239 13 16.5 13Z" fill="#7A7D77"/>
<path fill-rule="evenodd" clip-rule="evenodd" d="M2.5 9C1.67157 9 1 9.67157 1 10.5C1 11.3284 1.67157 12 2.5 12C3.32843 12 4 11.3284 4 10.5C4 9.67157 3.32843 9 2.5 9ZM0 10.5C0 9.11929 1.11929 8 2.5 8C3.88071 8 5 9.11929 5 10.5C5 11.8807 3.88071 13 2.5 13C1.11929 13 0 11.8807 0 10.5Z" fill="#7A7D77"/>
<path fill-rule="evenodd" clip-rule="evenodd" d="M9.5 4C8.67157 4 8 4.67157 8 5.5C8 6.32843 8.67157 7 9.5 7C10.3284 7 11 6.32843 11 5.5C11 4.67157 10.3284 4 9.5 4ZM7 5.5C7 4.11929 8.11929 3 9.5 3C10.8807 3 12 4.11929 12 5.5C12 6.88071 10.8807 8 9.5 8C8.11929 8 7 6.88071 7 5.5Z" fill="#7A7D77"/>
<path fill-rule="evenodd" clip-rule="evenodd" d="M16.5 10C15.6716 10 15 10.6716 15 11.5C15 12.3284 15.6716 13 16.5 13C17.3284 13 18 12.3284 18 11.5C18 10.6716 17.3284 10 16.5 10ZM14 11.5C14 10.1193 15.1193 9 16.5 9C17.8807 9 19 10.1193 19 11.5C19 12.8807 17.8807 14 16.5 14C15.1193 14 14 12.8807 14 11.5Z" fill="#7A7D77"/>
</svg>
