<svg width="34" height="36" viewBox="0 0 34 36" fill="none" xmlns="http://www.w3.org/2000/svg">
<g id="Frame 39">
<path id="Vector" d="M17 1C7.616 1 0 8.63197 0 18.0356C0 27.4393 7.616 35.0713 17 35.0713C26.384 35.0713 34 27.4393 34 18.0356C34 8.63197 26.384 1 17 1ZM24.888 12.5842C24.633 15.2759 23.528 21.8176 22.967 24.8329C22.729 26.1105 22.253 26.5364 21.811 26.5875C20.825 26.6727 20.077 25.9402 19.125 25.3099C17.629 24.3218 16.779 23.7085 15.334 22.7545C13.651 21.6472 14.739 21.0339 15.708 20.0458C15.963 19.7903 20.315 15.821 20.4 15.4633C20.4118 15.4091 20.4102 15.3528 20.3954 15.2994C20.3806 15.2459 20.353 15.1969 20.315 15.1566C20.213 15.0714 20.077 15.1055 19.958 15.1225C19.805 15.1566 17.425 16.7409 12.784 19.8755C12.104 20.3355 11.492 20.5739 10.948 20.5569C10.336 20.5399 9.18 20.2162 8.313 19.9266C7.242 19.5859 6.409 19.3985 6.477 18.8022C6.511 18.4956 6.936 18.189 7.735 17.8653C12.699 15.7018 15.997 14.2708 17.646 13.5893C22.372 11.6132 23.341 11.2725 23.987 11.2725C24.123 11.2725 24.446 11.3066 24.65 11.4769C24.82 11.6132 24.871 11.8006 24.888 11.9369C24.871 12.0391 24.905 12.3457 24.888 12.5842Z" fill="white"/>
</g>
</svg>
