<svg width="34" height="36" viewBox="0 0 34 36" fill="none" xmlns="http://www.w3.org/2000/svg">
<g id="Frame 38">
<path id="Vector" d="M29.0452 5.23809C27.4788 3.57116 25.6131 2.2495 23.5568 1.3502C21.5005 0.450888 19.2948 -0.00806418 17.0683 0.000107225C7.7397 0.000107225 0.136684 8.01008 0.136684 17.8381C0.136684 20.988 0.922613 24.048 2.39196 26.748L0 36L8.96985 33.516C11.4472 34.938 14.2322 35.694 17.0683 35.694C26.397 35.694 34 27.684 34 17.8561C34 13.0861 32.2402 8.60408 29.0452 5.23809ZM17.0683 32.67C14.5397 32.67 12.0623 31.95 9.89246 30.6L9.3799 30.276L4.04925 31.752L5.46734 26.28L5.12563 25.722C3.72077 23.3586 2.97481 20.6267 2.97286 17.8381C2.97286 9.66608 9.29447 3.0061 17.0513 3.0061C20.81 3.0061 24.3467 4.55409 26.995 7.36209C28.3062 8.73722 29.3454 10.3729 30.0522 12.1742C30.759 13.9756 31.1194 15.9069 31.1126 17.8561C31.1467 26.028 24.8251 32.67 17.0683 32.67ZM24.791 21.582C24.3638 21.366 22.2794 20.286 21.9035 20.124C21.5106 19.98 21.2372 19.908 20.9467 20.34C20.6563 20.79 19.8533 21.798 19.6141 22.086C19.3749 22.392 19.1186 22.428 18.6915 22.194C18.2643 21.978 16.8975 21.492 15.2915 19.98C14.0271 18.7921 13.1899 17.3341 12.9337 16.8841C12.6945 16.4341 12.8995 16.2001 13.1216 15.9661C13.3095 15.7681 13.5487 15.4441 13.7538 15.1921C13.9588 14.9401 14.0442 14.7421 14.1809 14.4541C14.3176 14.1481 14.2492 13.8961 14.1467 13.6801C14.0442 13.4641 13.1899 11.2681 12.8482 10.3681C12.5065 9.50408 12.1477 9.61208 11.8915 9.59408H11.0714C10.7809 9.59408 10.3367 9.70208 9.94372 10.1521C9.56784 10.6021 8.47437 11.6821 8.47437 13.8781C8.47437 16.0741 9.99497 18.1981 10.2 18.4861C10.405 18.7921 13.1899 23.292 17.4271 25.218C18.4352 25.686 19.2211 25.956 19.8362 26.154C20.8442 26.496 21.7668 26.442 22.5015 26.334C23.3216 26.208 25.0131 25.254 25.3548 24.21C25.7136 23.166 25.7136 22.284 25.594 22.086C25.4744 21.888 25.2181 21.798 24.791 21.582Z" fill="white"/>
</g>
</svg>
