<svg width="34" height="36" viewBox="0 0 34 36" fill="none" xmlns="http://www.w3.org/2000/svg">
<g id="Frame 40">
<path id="Vector" d="M13.4427 1.00426L14.4755 1H19.5245L20.5587 1.00426L21.8535 1.01846L22.4669 1.02839L23.0591 1.04401L23.63 1.06389L24.1797 1.0866L24.7095 1.11642L25.2195 1.15191L25.7082 1.1945L26.18 1.24135C28.645 1.51961 30.3351 2.11588 31.6101 3.39361C32.8851 4.67133 33.4801 6.36361 33.7578 8.8353L33.8059 9.30806L33.847 9.79927L33.8824 10.3104L33.9108 10.8399L33.9462 11.6747L33.9632 12.2568L33.9816 13.1711L33.9943 14.4701L34 15.8614L33.9986 20.5648L33.9943 21.6012L33.9802 22.8988L33.9702 23.5135L33.9547 24.107L33.9348 24.6791L33.9122 25.2299L33.8824 25.7609L33.847 26.272L33.8045 26.7618L33.7578 27.2346C33.4801 29.7048 32.8851 31.3985 31.6101 32.6763C30.3351 33.954 28.6464 34.5503 26.18 34.8285L25.7082 34.8768L25.2181 34.918L24.7081 34.9534L24.1797 34.9818L23.3467 35.0173L22.7658 35.0344L21.8535 35.0528L20.5572 35.0656L19.1689 35.0713L14.4755 35.0699L13.4413 35.0656L12.1465 35.0514L11.5331 35.0415L10.9409 35.0258L10.37 35.006L9.82033 34.9833L9.2905 34.9534L8.7805 34.918L8.29175 34.8754L7.82 34.8285C5.355 34.5503 3.66492 33.954 2.38992 32.6763C1.11492 31.3985 0.519917 29.7062 0.24225 27.2346L0.194083 26.7618L0.153 26.2706L0.117583 25.7595L0.08925 25.2299L0.0538333 24.3952L0.0368333 23.8131L0.0184167 22.8988L0.00566667 21.5998L0 20.2085L0.00141667 15.505L0.00566667 14.4687L0.0198333 13.1711L0.02975 12.5563L0.0453333 11.9629L0.0651667 11.3908L0.0878333 10.8399L0.117583 10.3089L0.153 9.79785L0.1955 9.30806L0.24225 8.8353C0.519917 6.36503 1.11492 4.67133 2.38992 3.39361C3.66492 2.11588 5.35358 1.51961 7.82 1.24135L8.29175 1.19308L8.78192 1.15191L9.29192 1.11642L9.82033 1.08802L10.6533 1.05253L11.2342 1.03549L12.1465 1.01704L13.4427 1.00426ZM9.61917 11.3624H5.7375C5.92167 20.2213 10.3417 25.5451 18.0908 25.5451H18.53V20.4768C21.3775 20.7607 23.5308 22.8477 24.395 25.5451H28.4183C27.3133 21.5132 24.4092 19.2843 22.5958 18.4324C24.4092 17.3819 26.9592 14.8264 27.5683 11.3624H23.9133C23.12 14.1734 20.7683 16.7288 18.53 16.9702V11.3624H14.875V21.1867C12.6083 20.6188 9.74667 17.8646 9.61917 11.3624Z" fill="white"/>
</g>
</svg>
