<svg width="34" height="36" viewBox="0 0 34 36" fill="none" xmlns="http://www.w3.org/2000/svg">
<g id="Frame 37">
<g id="Group 10">
<path id="Vector" d="M10.0688 7.40487C9.74131 7.35884 9.40741 7.4225 9.12263 7.58526H9.09796C8.43726 7.95964 7.84174 8.43102 7.33432 8.98579C6.91147 9.45718 6.68243 9.93366 6.62252 10.3931C6.58729 10.6654 6.61195 10.9411 6.69476 11.2015L6.72648 11.2185C7.20218 12.568 7.82236 13.8664 8.57997 15.0882C9.55685 16.8044 10.759 18.3917 12.1566 19.8106L12.1989 19.8685L12.2658 19.9161L12.3063 19.962L12.3557 20.0029C13.8299 21.3569 15.4771 22.5235 17.2572 23.4744C19.2922 24.5448 20.5273 25.0503 21.269 25.2613V25.2715C21.4857 25.3362 21.6831 25.3651 21.8822 25.3651C22.5139 25.32 23.1118 25.072 23.5806 24.6606C24.1532 24.1705 24.6377 23.5936 25.0148 22.952V22.9401C25.3689 22.2934 25.2491 21.6842 24.7382 21.2707C23.7119 20.4046 22.6021 19.6353 21.4241 18.9733C20.6347 18.5598 19.8331 18.81 19.5089 19.2286L18.8165 20.0727C18.4606 20.4913 17.8157 20.4334 17.8157 20.4334L17.7981 20.4436C12.9864 19.2575 11.702 14.5522 11.702 14.5522C11.702 14.5522 11.6421 13.9123 12.0879 13.5856L12.9547 12.9117C13.3705 12.585 13.6595 11.8124 13.2137 11.05C12.5329 9.91114 11.738 8.83957 10.8405 7.85073C10.6447 7.61801 10.3702 7.45951 10.0652 7.40317L10.0688 7.40487ZM18.1998 5.35938C17.9662 5.35938 17.7421 5.44902 17.5769 5.60859C17.4117 5.76816 17.3189 5.98458 17.3189 6.21025C17.3189 6.43591 17.4117 6.65234 17.5769 6.8119C17.7421 6.97147 17.9662 7.06112 18.1998 7.06112C20.4268 7.06112 22.2768 7.76394 23.7409 9.11172C24.4933 9.84858 25.08 10.7216 25.464 11.678C25.8499 12.636 26.0261 13.6588 25.9803 14.6832C25.9705 14.9089 26.0539 15.1291 26.2121 15.2954C26.3704 15.4616 26.5906 15.5604 26.8242 15.5698C27.0579 15.5793 27.2858 15.4988 27.458 15.3459C27.6301 15.193 27.7323 14.9804 27.7422 14.7547C27.7968 13.4945 27.5802 12.2371 27.1061 11.0619C26.6299 9.88114 25.908 8.80731 24.9848 7.90689L24.9672 7.88987C23.1507 6.21365 20.8532 5.35938 18.1998 5.35938Z" fill="white"/>
<path id="Vector_2" d="M18.1383 8.15649C17.9046 8.15649 17.6806 8.24613 17.5153 8.4057C17.3501 8.56527 17.2573 8.78169 17.2573 9.00736C17.2573 9.23302 17.3501 9.44945 17.5153 9.60902C17.6806 9.76859 17.9046 9.85823 18.1383 9.85823H18.1682C19.775 9.96884 20.9449 10.4862 21.7642 11.3353C22.6046 12.21 23.0398 13.2975 23.0063 14.6418C23.001 14.8675 23.0886 15.086 23.25 15.2492C23.4114 15.4125 23.6334 15.5071 23.867 15.5123C24.1007 15.5175 24.3269 15.4328 24.4959 15.2769C24.6649 15.121 24.7628 14.9066 24.7682 14.681C24.8105 12.9163 24.222 11.3932 23.0557 10.1782V10.1748C21.8629 8.93929 20.2261 8.28582 18.2563 8.15819L18.2264 8.15479L18.1383 8.15649Z" fill="white"/>
<path id="Vector_3" d="M18.1049 11.0072C17.987 10.9972 17.8682 11.0102 17.7556 11.0454C17.643 11.0807 17.539 11.1375 17.4496 11.2125C17.3603 11.2875 17.2875 11.3791 17.2356 11.4818C17.1837 11.5846 17.1538 11.6963 17.1477 11.8105C17.1415 11.9247 17.1592 12.0388 17.1998 12.1462C17.2403 12.2536 17.3029 12.352 17.3836 12.4356C17.4644 12.5191 17.5618 12.5861 17.67 12.6325C17.7782 12.6788 17.8949 12.7037 18.0132 12.7055C18.7497 12.743 19.2201 12.9574 19.5161 13.245C19.8139 13.5343 20.0359 13.9989 20.0764 14.7255C20.0786 14.8397 20.1046 14.9523 20.1528 15.0566C20.201 15.1609 20.2704 15.2547 20.357 15.3325C20.4435 15.4103 20.5454 15.4705 20.6566 15.5095C20.7677 15.5485 20.8858 15.5654 21.0039 15.5594C21.122 15.5533 21.2376 15.5244 21.3438 15.4742C21.4501 15.4241 21.5448 15.3538 21.6223 15.2676C21.6998 15.1814 21.7586 15.081 21.7951 14.9723C21.8316 14.8637 21.8451 14.7491 21.8347 14.6353C21.7784 13.6143 21.4471 12.7123 20.7688 12.0487C20.087 11.385 19.1585 11.0617 18.1049 11.0072Z" fill="white"/>
<path id="Vector_4" fill-rule="evenodd" clip-rule="evenodd" d="M8.48663 0.907833C14.093 -0.302611 19.907 -0.302611 25.5134 0.907833L26.1107 1.03546C27.7496 1.38934 29.2548 2.17517 30.4591 3.30563C31.6634 4.43609 32.5197 5.86692 32.9327 7.43913C34.3558 12.8556 34.3558 18.5296 32.9327 23.9461C32.5197 25.5183 31.6634 26.9491 30.4591 28.0795C29.2548 29.21 27.7496 29.9958 26.1107 30.3497L25.5117 30.4773C22.0003 31.2358 18.3972 31.5216 14.8047 31.3265L10.1305 35.3665C9.95424 35.5189 9.7389 35.6228 9.50691 35.6674C9.27493 35.7119 9.0348 35.6956 8.8116 35.6199C8.58841 35.5443 8.39032 35.4122 8.23801 35.2374C8.0857 35.0626 7.98477 34.8515 7.94574 34.6262L7.17227 30.1642C5.68909 29.7185 4.34905 28.9128 3.28023 27.8241C2.2114 26.7355 1.44951 25.4002 1.06736 23.9461C-0.355788 18.5296 -0.355788 12.8556 1.06736 7.43913C1.48038 5.86692 2.33662 4.43609 3.54092 3.30563C4.74523 2.17517 6.25046 1.38934 7.88936 1.03546L8.48663 0.907833ZM24.9373 3.39749C19.7103 2.2689 14.2898 2.2689 9.06277 3.39749L8.46373 3.52682C7.30216 3.77809 6.23542 4.33541 5.38198 5.13689C4.52854 5.93837 3.9218 6.95264 3.62913 8.06707C2.31427 13.0714 2.31427 18.3137 3.62913 23.3181C3.92194 24.4328 4.52895 25.4472 5.38272 26.2487C6.23649 27.0502 7.30359 27.6074 8.46549 27.8584L8.62406 27.8924C8.88058 27.9478 9.11416 28.0759 9.29493 28.2602C9.47571 28.4445 9.59547 28.6767 9.6389 28.9271L10.1569 31.9187L13.4551 29.0683C13.5868 28.9541 13.741 28.8667 13.9083 28.8111C14.0757 28.7556 14.2529 28.7331 14.4294 28.745C17.9515 28.9863 21.4913 28.7312 24.9373 27.9877L25.5346 27.8584C26.6965 27.6074 27.7636 27.0502 28.6173 26.2487C29.4711 25.4472 30.0781 24.4328 30.3709 23.3181C31.6853 18.315 31.6853 13.0719 30.3709 8.06707C30.0781 6.95243 29.4711 5.93801 28.6173 5.13651C27.7636 4.33501 26.6965 3.77781 25.5346 3.52682L24.9373 3.39749Z" fill="white"/>
</g>
</g>
</svg>
