<svg width="270" height="75" viewBox="0 0 270 75" fill="none" xmlns="http://www.w3.org/2000/svg">
<path d="M86.75 52.6357V21.2671H100.13C101.725 21.2671 103.32 21.7988 104.915 22.7735C107.131 24.1913 108.194 26.318 108.194 28.9763C108.194 30.9258 107.574 32.698 106.333 34.2044C105.89 34.7361 105.27 35.2677 104.472 35.888C106.333 36.7741 107.662 38.0147 108.637 39.6983C109.435 41.0275 109.789 42.6225 109.789 44.3061C109.789 46.6101 108.992 48.5595 107.308 50.1545C105.624 51.7495 103.852 52.547 101.991 52.547H86.75V52.6357ZM93.0414 33.85H97.9151C98.8898 33.6727 99.6873 33.3183 100.396 32.6094C101.105 31.9005 101.371 31.103 101.371 30.0397C101.371 28.9763 101.016 28.0902 100.308 27.4699C99.5987 26.8496 98.8012 26.4952 97.9151 26.4952H93.0414V33.85ZM93.13 47.5848H98.8012C99.6873 47.5848 100.485 47.2303 101.282 46.6101C102.257 45.8125 102.7 44.7492 102.7 43.42C102.7 42.1795 102.257 41.1161 101.371 40.3186C100.573 39.6097 99.7759 39.2553 98.9784 39.2553H93.13V47.5848Z" fill="#1C1F18"/>
<path d="M112.625 52.6357V21.2671H126.891C129.018 21.2671 130.968 22.1532 132.563 23.9254C134.158 25.6977 134.955 27.913 134.955 30.5713C134.955 33.4955 133.98 35.7994 132.031 37.5717C130.613 38.8122 129.195 39.4325 127.955 39.4325L135.487 52.6357H128.398L119.005 35.7108V52.6357H112.625ZM119.005 35.2677H124.853C125.651 35.2677 126.448 34.9133 127.157 34.2044C128.043 33.3183 128.487 32.1663 128.487 30.8372C128.487 29.508 128.043 28.5333 127.246 27.7357C126.537 27.0269 125.74 26.761 124.765 26.761H118.916V35.2677H119.005Z" fill="#1C1F18"/>
<path d="M138.588 43.7745V21.2671H144.968V43.7745C144.968 44.7492 145.322 45.6353 146.12 46.3442C147.183 47.3189 148.778 47.762 150.816 47.762C152.766 47.762 154.272 47.3189 155.247 46.3442C156.044 45.5467 156.399 44.7492 156.487 43.8631V21.2671H162.868V43.7745C162.868 46.6101 161.804 48.914 159.766 50.6862C157.728 52.4584 154.715 53.4332 150.816 53.4332C146.74 53.4332 143.639 52.547 141.512 50.7748C139.563 49.0912 138.588 46.7873 138.588 43.7745Z" fill="#1C1F18"/>
<path d="M166.146 29.5079C166.146 26.8495 167.121 24.7228 169.071 22.9506C171.02 21.1784 173.324 20.3809 175.982 20.3809C177.046 20.3809 178.109 20.5581 179.172 20.8239C180.236 21.0898 181.388 21.6214 182.362 22.2417V28.3559C181.122 27.5584 180.147 27.0267 179.527 26.6723C178.286 26.052 177.223 25.7862 176.337 25.7862C175.096 25.7862 174.122 26.1406 173.324 26.9381C172.527 27.7356 172.172 28.5331 172.172 29.5079C172.172 30.6598 173.235 31.8118 175.362 32.9637C178.729 34.736 180.767 35.8879 181.388 36.4196C183.514 38.2804 184.666 40.5843 184.666 43.5085C184.666 45.8124 183.957 47.8505 182.451 49.7113C180.502 52.2811 177.755 53.5217 174.122 53.5217H172.97C171.286 53.3444 169.248 52.6355 167.033 51.4836V44.6605C168.096 45.8124 169.337 46.6986 170.843 47.3188C171.995 47.7619 172.881 48.0277 173.678 48.0277C175.008 48.0277 176.071 47.5847 176.957 46.6986C177.843 45.8124 178.286 44.6605 178.286 43.4199C178.286 42.1793 177.223 40.9388 175.185 39.8754C171.906 38.1032 169.957 36.9513 169.337 36.4196C167.21 34.6474 166.146 32.3434 166.146 29.5079Z" fill="#1C1F18"/>
<path d="M187.146 21.2671H193.97L200.97 38.9894L207.704 21.2671H214.528L200.97 53.9648L187.146 21.2671Z" fill="#1C1F18"/>
<path d="M216.92 37.1287C216.92 32.5209 218.515 28.622 221.616 25.2547C224.718 21.8875 228.617 20.2925 233.136 20.2925C237.655 20.2925 241.554 21.8875 244.744 25.0775C247.934 28.2675 249.529 32.0778 249.529 36.6857C249.529 41.2935 247.934 45.281 244.833 48.5596C241.731 51.8383 237.921 53.4333 233.402 53.4333C228.794 53.4333 224.895 51.8383 221.616 48.6482C218.515 45.5468 216.92 41.7365 216.92 37.1287ZM223.3 37.2173C223.3 39.9643 224.275 42.3568 226.313 44.2177C228.351 46.0785 230.743 47.0532 233.579 47.0532C236.326 47.0532 238.63 45.9899 240.402 43.9518C242.263 41.9137 243.149 39.4326 243.149 36.597C243.149 33.8501 242.174 31.5462 240.136 29.6853C238.098 27.8245 235.706 26.8497 232.87 26.8497C230.123 26.8497 227.819 27.9131 225.958 29.9512C224.275 31.9892 223.3 34.4704 223.3 37.2173Z" fill="#1C1F18"/>
<path d="M252.986 52.6357V21.2671H259.366V47.1417H268.582V52.547H252.986V52.6357Z" fill="#1C1F18"/>
<path d="M92.2452 61.3188V65.1292H92.9541V67.7875H91.5363V66.4583H88.169V67.8761H86.8398V65.2178C87.0171 65.2178 87.1057 65.1292 87.1943 65.1292C87.2829 65.0405 87.3715 65.0405 87.4601 64.9519C87.5487 64.8633 87.6373 64.7747 87.726 64.5975C87.8146 64.5089 87.8146 64.3316 87.8146 64.243C87.8146 64.1544 87.9032 63.9772 87.9032 63.8C87.9032 63.6228 87.9032 63.5341 87.9032 63.3569V61.4075H92.2452V61.3188ZM90.6502 62.5594H89.321V63.5341C89.321 63.8 89.321 63.9772 89.321 64.1544C89.321 64.3317 89.2324 64.4203 89.2324 64.5089C89.2324 64.5975 89.1437 64.6861 89.0551 64.8633C88.9665 64.9519 88.8779 65.1292 88.7893 65.2178H90.6502V62.5594Z" fill="#1C1F18"/>
<path d="M98.626 64.1544H94.9929C94.9929 64.3317 94.9929 64.4203 95.0816 64.5975C95.1702 64.7747 95.1702 64.8633 95.2588 65.0405C95.3474 65.1292 95.3474 65.1292 95.436 65.2178C95.5246 65.3064 95.6132 65.3064 95.6132 65.3064C95.7018 65.3064 95.7904 65.3064 95.7904 65.395C95.7904 65.4836 95.8791 65.395 95.9677 65.395C96.0563 65.395 96.2335 65.395 96.3221 65.395C96.4107 65.395 96.4993 65.3064 96.588 65.3064L96.6766 65.2178L96.7652 65.1292C96.7652 65.0405 96.8538 65.0405 96.8538 64.9519L98.3602 65.1292C98.2716 65.3064 98.2716 65.4836 98.183 65.5722C98.0944 65.7494 98.0057 65.8381 97.9171 65.9267C97.8285 66.0153 97.7399 66.1039 97.6513 66.1925C97.5627 66.2811 97.4741 66.2811 97.3855 66.3697C97.1196 66.5469 96.9424 66.6356 96.6766 66.6356C96.4107 66.7242 96.1449 66.7242 95.8791 66.7242C95.7018 66.7242 95.5246 66.7242 95.3474 66.7242C95.1702 66.7242 94.9929 66.6356 94.8157 66.6356C94.6385 66.5469 94.4613 66.5469 94.3727 66.3697C94.1954 66.2811 94.1068 66.1925 93.9296 66.0153C93.7524 65.7494 93.5752 65.4836 93.3979 65.2178C93.2207 64.8633 93.2207 64.5089 93.2207 64.0658C93.2207 63.8886 93.2207 63.7114 93.3093 63.5341C93.3979 63.3569 93.3979 63.1797 93.4865 63.0025C93.5752 62.8252 93.6638 62.648 93.7524 62.4708C93.841 62.2936 93.9296 62.205 94.1068 62.0277C94.284 61.8505 94.3727 61.7619 94.5499 61.6733C94.7271 61.5847 94.9043 61.4961 94.9929 61.4075C95.1702 61.3189 95.3474 61.3188 95.436 61.3188C95.6132 61.3188 95.7018 61.3188 95.8791 61.3188C96.0563 61.3188 96.1449 61.3188 96.3221 61.3188C96.4993 61.3188 96.6766 61.4075 96.8538 61.4075C97.031 61.4961 97.2082 61.5847 97.3855 61.6733C97.5627 61.7619 97.7399 61.9391 97.8285 62.1164C98.0057 62.2936 98.0944 62.4708 98.183 62.648C98.2716 62.8252 98.3602 63.0025 98.3602 63.1797C98.4488 63.3569 98.4488 63.5341 98.4488 63.7114C98.4488 63.8886 98.4488 64.0658 98.4488 64.243V64.1544H98.626ZM97.1196 63.1797C97.1196 63.0911 97.031 63.0025 97.031 62.9139C97.031 62.8253 96.9424 62.8253 96.9424 62.7366C96.9424 62.648 96.8538 62.648 96.7652 62.5594C96.6766 62.4708 96.588 62.3822 96.4107 62.3822C96.3221 62.2936 96.1449 62.2936 95.9677 62.2936C95.7904 62.2936 95.6132 62.2936 95.436 62.3822C95.3474 62.4708 95.1702 62.5594 95.1702 62.648C95.0816 62.7366 95.0815 62.8253 94.9929 62.9139C94.9043 63.0025 94.9043 63.0911 94.9043 63.1797H97.1196Z" fill="#1C1F18"/>
<path d="M101.107 69.0285H99.5117V61.3193H101.107V61.9396C101.195 61.7624 101.373 61.5851 101.55 61.4965C101.727 61.4079 101.816 61.3193 101.993 61.2307C102.17 61.1421 102.259 61.1421 102.347 61.1421C102.436 61.1421 102.613 61.1421 102.702 61.1421C102.879 61.1421 103.145 61.1421 103.322 61.2307C103.499 61.3193 103.676 61.3193 103.765 61.4079C103.942 61.4965 104.031 61.5851 104.12 61.6738C104.208 61.7624 104.297 61.851 104.385 61.9396C104.563 62.2054 104.74 62.4713 104.917 62.8257C105.094 63.1802 105.094 63.5346 105.094 63.9777C105.094 64.4207 105.006 64.7752 104.917 65.1296C104.74 65.4841 104.563 65.7499 104.385 66.0157C104.12 66.2816 103.854 66.4588 103.588 66.5474C103.322 66.636 103.056 66.7246 102.702 66.7246C102.436 66.7246 102.259 66.7246 102.081 66.636C101.904 66.5474 101.727 66.5474 101.638 66.4588C101.55 66.3702 101.461 66.2816 101.373 66.193C101.284 66.1043 101.195 66.0157 101.195 66.0157V69.0285H101.107ZM102.259 62.5599C102.17 62.5599 102.081 62.5599 101.993 62.5599C101.904 62.5599 101.816 62.6485 101.727 62.6485C101.638 62.6485 101.55 62.7371 101.55 62.7371C101.55 62.7371 101.461 62.8257 101.373 62.8257C101.284 63.0029 101.195 63.0915 101.107 63.2688C101.018 63.446 101.018 63.6232 101.018 63.7118C101.018 63.8891 101.018 64.0663 101.107 64.1549C101.195 64.3321 101.284 64.4207 101.373 64.5979C101.461 64.6866 101.638 64.7752 101.816 64.8638C101.993 64.9524 102.17 64.9524 102.347 64.9524C102.525 64.9524 102.613 64.9524 102.79 64.8638C102.968 64.7752 103.056 64.6866 103.145 64.5979C103.233 64.5093 103.322 64.3321 103.411 64.1549C103.499 63.9777 103.499 63.8004 103.499 63.6232C103.499 63.446 103.499 63.2688 103.411 63.0915C103.322 62.9143 103.233 62.8257 103.145 62.6485C103.056 62.5599 102.879 62.4713 102.79 62.3827C102.613 62.5599 102.436 62.5599 102.259 62.5599Z" fill="#1C1F18"/>
<path d="M111.03 64.1544H107.397C107.397 64.3317 107.397 64.4203 107.486 64.5975C107.574 64.7747 107.574 64.8633 107.663 65.0405C107.752 65.1292 107.752 65.1292 107.84 65.2178C107.929 65.3064 108.018 65.3064 108.018 65.3064C108.106 65.3064 108.195 65.3064 108.195 65.395C108.195 65.4836 108.283 65.395 108.372 65.395C108.461 65.395 108.638 65.395 108.726 65.395C108.815 65.395 108.904 65.3064 108.992 65.3064L109.081 65.2178L109.169 65.1292C109.169 65.0405 109.258 65.0405 109.258 64.9519L110.764 65.1292C110.676 65.3064 110.676 65.4836 110.587 65.5722C110.499 65.7494 110.41 65.8381 110.321 65.9267C110.233 66.0153 110.144 66.1039 110.056 66.1925C109.967 66.2811 109.878 66.2811 109.79 66.3697C109.524 66.5469 109.347 66.6356 109.081 66.6356C108.815 66.7242 108.549 66.7242 108.283 66.7242C108.106 66.7242 107.929 66.7242 107.752 66.7242C107.574 66.7242 107.397 66.6356 107.22 66.6356C107.043 66.5469 106.866 66.5469 106.777 66.3697C106.6 66.2811 106.511 66.1925 106.334 66.0153C106.157 65.7494 105.979 65.4836 105.802 65.2178C105.625 64.8633 105.625 64.5089 105.625 64.0658C105.625 63.8886 105.625 63.7114 105.714 63.5341C105.802 63.3569 105.802 63.1797 105.891 63.0025C105.979 62.8252 106.068 62.648 106.157 62.4708C106.245 62.2936 106.334 62.205 106.511 62.0277C106.688 61.8505 106.777 61.7619 106.954 61.6733C107.131 61.5847 107.309 61.4961 107.397 61.4075C107.574 61.3189 107.752 61.3188 107.84 61.3188C108.018 61.3188 108.106 61.3188 108.283 61.3188C108.461 61.3188 108.549 61.3188 108.726 61.3188C108.904 61.3188 109.081 61.4075 109.258 61.4075C109.435 61.4961 109.613 61.5847 109.79 61.6733C109.967 61.7619 110.144 61.9391 110.233 62.1164C110.41 62.2936 110.499 62.4708 110.587 62.648C110.676 62.8252 110.764 63.0025 110.764 63.1797C110.853 63.3569 110.853 63.5341 110.853 63.7114C110.853 63.8886 110.853 64.0658 110.853 64.243V64.1544H111.03ZM109.613 63.1797C109.613 63.0911 109.524 63.0025 109.524 62.9139C109.524 62.8253 109.435 62.8253 109.435 62.7366C109.435 62.648 109.347 62.648 109.258 62.5594C109.169 62.4708 109.081 62.3822 108.904 62.3822C108.815 62.2936 108.638 62.2936 108.461 62.2936C108.283 62.2936 108.106 62.2936 107.929 62.3822C107.84 62.4708 107.663 62.5594 107.663 62.648C107.574 62.7366 107.574 62.8253 107.486 62.9139C107.397 63.0025 107.397 63.0911 107.397 63.1797H109.613Z" fill="#1C1F18"/>
<path d="M114.574 61.3188C114.663 61.3188 114.752 61.3188 114.84 61.3188C114.929 61.3188 115.017 61.3188 115.195 61.3188C115.283 61.3188 115.372 61.4075 115.549 61.4075C115.638 61.4075 115.726 61.4961 115.815 61.5847C115.904 61.6733 115.992 61.8505 116.081 62.0277C116.169 62.205 116.169 62.3822 116.169 62.648C116.169 62.8252 116.169 62.9139 116.081 63.0911C115.992 63.2683 115.992 63.3569 115.815 63.4455C115.726 63.5341 115.638 63.6228 115.372 63.7114C115.549 63.7114 115.638 63.8 115.726 63.8886C115.815 63.9772 115.992 64.0658 116.081 64.0658C116.169 64.243 116.258 64.3317 116.347 64.5089C116.347 64.6861 116.435 64.7747 116.435 64.9519C116.435 65.2178 116.435 65.395 116.347 65.5722C116.258 65.7494 116.169 65.838 116.081 66.0153C115.992 66.1039 115.992 66.1039 115.904 66.1925C115.815 66.2811 115.726 66.2811 115.638 66.3697C115.549 66.4583 115.46 66.4583 115.283 66.4583C115.106 66.4583 115.017 66.4583 114.84 66.4583H111.916V61.3188H114.574ZM114.22 63.3569C114.309 63.3569 114.309 63.3569 114.397 63.3569C114.486 63.3569 114.574 63.3569 114.574 63.2683C114.663 63.1797 114.663 63.1797 114.663 63.0911C114.663 63.0025 114.663 62.9139 114.663 62.9139C114.663 62.8253 114.663 62.7366 114.574 62.648C114.574 62.5594 114.486 62.5594 114.486 62.5594C114.397 62.5594 114.397 62.4708 114.309 62.4708C114.22 62.4708 114.131 62.4708 114.043 62.4708H113.422V63.4455H114.22V63.3569ZM114.309 65.3064C114.397 65.3064 114.486 65.3064 114.574 65.3064C114.663 65.3064 114.752 65.2178 114.84 65.2178C114.929 65.1292 114.929 65.1292 114.929 65.0405C114.929 64.9519 114.929 64.8633 114.929 64.7747C114.929 64.6861 114.929 64.5975 114.84 64.5975C114.84 64.5089 114.752 64.5089 114.752 64.4203L114.663 64.3316C114.574 64.3316 114.574 64.3316 114.486 64.3316C114.397 64.3316 114.397 64.3316 114.309 64.3316C114.22 64.3316 114.22 64.3316 114.22 64.3316H113.6V65.395H114.309V65.3064Z" fill="#1C1F18"/>
<path d="M118.474 64.5975C118.297 64.5975 118.209 64.5089 118.031 64.4203C117.854 64.3316 117.766 64.243 117.677 64.1544C117.5 63.9772 117.411 63.8 117.411 63.6228C117.411 63.4455 117.322 63.2683 117.322 63.0911C117.322 62.9139 117.322 62.648 117.411 62.4708C117.5 62.2936 117.588 62.0277 117.766 61.8505C117.854 61.7619 118.031 61.6733 118.12 61.5847C118.297 61.4961 118.386 61.4961 118.563 61.4075C118.74 61.4075 118.829 61.3188 119.006 61.3188C119.183 61.3188 119.272 61.3188 119.449 61.3188H121.753V66.4583H120.158V64.6861H119.981L118.74 66.4583H117.057L118.474 64.5975ZM120.069 62.4708H119.538C119.449 62.4708 119.361 62.4708 119.272 62.4708C119.183 62.4708 119.095 62.5594 119.006 62.5594C118.917 62.648 118.917 62.648 118.917 62.7366C118.917 62.8253 118.829 62.9139 118.829 63.0025C118.829 63.0911 118.829 63.1797 118.917 63.2683C118.917 63.3569 119.006 63.3569 119.006 63.4455C119.006 63.4455 119.095 63.5341 119.183 63.5341C119.272 63.5341 119.272 63.5341 119.361 63.6228C119.449 63.6228 119.449 63.6228 119.538 63.6228C119.626 63.6228 119.626 63.6228 119.626 63.6228H120.158V62.4708H120.069Z" fill="#1C1F18"/>
<path d="M122.816 61.3188H124.411V63.0911H126.184V61.3188H127.779V66.4583H126.184V64.4203H124.411V66.4583H122.816V61.3188Z" fill="#1C1F18"/>
<path d="M128.93 61.3188H130.525V63.0911H132.297V61.3188H133.892V66.4583H132.297V64.4203H130.525V66.4583H128.93V61.3188Z" fill="#1C1F18"/>
<path d="M137.615 63.0911C137.792 63.0911 137.969 63.0911 138.058 63.0911C138.147 63.0911 138.324 63.1797 138.412 63.1797C138.501 63.1797 138.59 63.2683 138.678 63.3569C138.767 63.4455 138.855 63.4455 138.855 63.5341C138.944 63.6228 139.033 63.7114 139.033 63.8C139.121 63.8886 139.121 63.9772 139.121 64.1544C139.121 64.243 139.21 64.3316 139.21 64.4203C139.21 64.5089 139.21 64.5975 139.21 64.6861C139.21 64.7747 139.21 64.8633 139.21 64.9519C139.21 65.0405 139.21 65.1292 139.121 65.3064C139.033 65.4836 139.033 65.5722 139.033 65.6608C138.944 65.7494 138.855 65.838 138.767 66.0153C138.678 66.1039 138.59 66.1925 138.412 66.2811C138.324 66.3697 138.147 66.3697 138.058 66.4583C137.969 66.4583 137.792 66.5469 137.703 66.5469C137.615 66.5469 137.526 66.5469 137.349 66.5469H134.779V61.4075H136.374V63.1797H137.615V63.0911ZM137.172 65.2178H137.26H137.349H137.438L137.526 65.1292C137.615 65.0405 137.615 65.0405 137.615 64.9519C137.615 64.8633 137.615 64.7747 137.615 64.7747C137.615 64.6861 137.615 64.5975 137.526 64.5089C137.526 64.4203 137.438 64.4203 137.438 64.4203C137.349 64.3316 137.26 64.3316 137.172 64.3316C137.083 64.3316 136.995 64.3316 136.995 64.3316H136.374V65.395H137.172V65.2178ZM141.425 61.3188V66.4583H139.919V61.3188H141.425Z" fill="#1C1F18"/>
<path d="M147.628 64.1544H143.995C143.995 64.3317 143.995 64.4203 144.084 64.5975C144.172 64.7747 144.172 64.8633 144.261 65.0405C144.349 65.1292 144.349 65.1292 144.438 65.2178C144.527 65.3064 144.615 65.3064 144.615 65.3064C144.704 65.3064 144.792 65.3064 144.792 65.395C144.792 65.4836 144.881 65.395 144.97 65.395C145.058 65.395 145.235 65.395 145.324 65.395C145.413 65.395 145.501 65.3064 145.59 65.3064L145.679 65.2178L145.767 65.1292C145.767 65.0405 145.856 65.0405 145.856 64.9519L147.362 65.1292C147.274 65.3064 147.274 65.4836 147.185 65.5722C147.096 65.7494 147.008 65.8381 146.919 65.9267C146.83 66.0153 146.742 66.1039 146.653 66.1925C146.565 66.2811 146.476 66.2811 146.387 66.3697C146.122 66.5469 145.944 66.6356 145.679 66.6356C145.413 66.7242 145.147 66.7242 144.881 66.7242C144.704 66.7242 144.527 66.7242 144.349 66.7242C144.172 66.7242 143.995 66.6356 143.818 66.6356C143.64 66.5469 143.463 66.5469 143.375 66.3697C143.197 66.2811 143.109 66.1925 142.932 66.0153C142.754 65.7494 142.577 65.4836 142.4 65.2178C142.223 64.8633 142.223 64.5089 142.223 64.0658C142.223 63.8886 142.223 63.7114 142.311 63.5341C142.4 63.3569 142.4 63.1797 142.488 63.0025C142.577 62.8252 142.666 62.648 142.754 62.4708C142.843 62.2936 142.932 62.205 143.109 62.0277C143.286 61.8505 143.375 61.7619 143.552 61.6733C143.729 61.5847 143.906 61.4961 143.995 61.4075C144.172 61.3189 144.349 61.3188 144.438 61.3188C144.615 61.3188 144.704 61.3188 144.881 61.3188C145.058 61.3188 145.147 61.3188 145.324 61.3188C145.501 61.3188 145.679 61.4075 145.856 61.4075C146.033 61.4961 146.21 61.5847 146.387 61.6733C146.565 61.7619 146.742 61.9391 146.83 62.1164C147.008 62.2936 147.096 62.4708 147.185 62.648C147.274 62.8252 147.362 63.0025 147.362 63.1797C147.451 63.3569 147.451 63.5341 147.451 63.7114C147.451 63.8886 147.451 64.0658 147.451 64.243V64.1544H147.628ZM146.21 63.1797C146.21 63.0911 146.122 63.0025 146.122 62.9139C146.122 62.8253 146.033 62.8253 146.033 62.7366C146.033 62.648 145.944 62.648 145.856 62.5594C145.767 62.4708 145.679 62.3822 145.501 62.3822C145.413 62.2936 145.235 62.2936 145.058 62.2936C144.881 62.2936 144.704 62.2936 144.527 62.3822C144.438 62.4708 144.261 62.5594 144.261 62.648C144.172 62.7366 144.172 62.8253 144.084 62.9139C143.995 63.0025 143.995 63.0911 143.995 63.1797H146.21Z" fill="#1C1F18"/>
<path d="M156.399 61.3188V65.1292H157.108V67.7875H155.691V66.4583H152.412V67.8761H150.994V65.2178C151.171 65.2178 151.26 65.1292 151.349 65.1292C151.437 65.0405 151.526 65.0405 151.614 64.9519C151.703 64.8633 151.792 64.7747 151.88 64.5975C151.969 64.5089 151.969 64.3316 151.969 64.243C151.969 64.1544 152.057 63.9772 152.057 63.8C152.057 63.6228 152.057 63.5341 152.057 63.3569V61.4075H156.399V61.3188ZM154.804 62.5594H153.475V63.5341C153.475 63.8 153.475 63.9772 153.475 64.1544C153.475 64.3317 153.387 64.4203 153.387 64.5089C153.387 64.5975 153.298 64.6861 153.209 64.8633C153.121 64.9519 153.032 65.1292 152.944 65.2178H154.804V62.5594Z" fill="#1C1F18"/>
<path d="M163.313 63.8888C163.313 64.066 163.313 64.2432 163.224 64.4205C163.224 64.5977 163.135 64.7749 163.047 64.9521C162.958 65.1294 162.87 65.3066 162.781 65.3952C162.692 65.5724 162.604 65.661 162.427 65.8383C162.338 65.9269 162.161 66.0155 162.072 66.1927C161.895 66.2813 161.806 66.3699 161.629 66.4585C161.452 66.5472 161.275 66.6358 161.009 66.6358C160.832 66.6358 160.566 66.7244 160.3 66.7244C160.034 66.7244 159.857 66.7244 159.591 66.6358C159.325 66.5471 159.148 66.5472 158.971 66.4585C158.794 66.3699 158.616 66.2813 158.528 66.1927C158.35 66.1041 158.262 66.0155 158.173 65.8383C158.085 65.7496 157.907 65.5724 157.819 65.3952C157.73 65.218 157.642 65.0408 157.553 64.9521C157.464 64.7749 157.464 64.5977 157.376 64.4205C157.376 64.2432 157.287 64.066 157.287 63.8888C157.287 63.7116 157.287 63.5344 157.376 63.3571C157.376 63.1799 157.464 63.0027 157.553 62.8255C157.642 62.6482 157.73 62.471 157.819 62.3824C157.907 62.2052 157.996 62.1166 158.173 61.9393C158.262 61.8507 158.439 61.6735 158.528 61.5849C158.705 61.4963 158.794 61.4077 158.971 61.3191C159.148 61.2304 159.325 61.1418 159.591 61.1418C159.768 61.1418 160.034 61.0532 160.3 61.0532C160.566 61.0532 160.743 61.0532 161.009 61.1418C161.186 61.1418 161.452 61.2304 161.629 61.3191C161.806 61.4077 161.984 61.4963 162.072 61.5849C162.249 61.6735 162.338 61.7621 162.427 61.9393C162.515 62.028 162.692 62.2052 162.781 62.3824C162.87 62.5596 162.958 62.7368 163.047 62.8255C163.135 63.0027 163.135 63.1799 163.224 63.3571C163.313 63.5344 163.313 63.7116 163.313 63.8888ZM160.389 62.5596C160.034 62.5596 159.768 62.6482 159.502 62.9141C159.414 63.0027 159.325 63.1799 159.237 63.3571C159.148 63.5344 159.148 63.7116 159.148 63.8888C159.148 64.1546 159.148 64.3319 159.237 64.5091C159.325 64.6863 159.414 64.7749 159.502 64.8635C159.591 64.9521 159.68 65.0408 159.857 65.1294C160.034 65.218 160.211 65.218 160.389 65.218C160.566 65.218 160.743 65.218 160.832 65.1294C161.009 65.0408 161.097 64.9521 161.186 64.8635C161.275 64.7749 161.363 64.5977 161.452 64.4205C161.54 64.2432 161.54 64.066 161.54 63.8888C161.54 63.7116 161.54 63.5344 161.452 63.3571C161.363 63.1799 161.275 63.0913 161.186 62.9141C161.097 62.6482 160.743 62.5596 160.389 62.5596Z" fill="#1C1F18"/>
<path d="M164.729 61.3188H165.97L167.21 64.1544L168.451 61.3188H169.691L170.578 66.4583H169.071L168.717 63.7114L167.476 66.4583H166.944L165.792 63.7114L165.438 66.4583H163.932L164.729 61.3188Z" fill="#1C1F18"/>
<path d="M175.187 61.3191H176.782V66.4586H175.187V65.8383C175.098 66.0155 174.921 66.1927 174.832 66.2813C174.744 66.37 174.566 66.4586 174.478 66.5472C174.389 66.6358 174.212 66.6358 174.123 66.6358C174.035 66.6358 173.858 66.6358 173.769 66.6358C173.592 66.6358 173.415 66.6358 173.237 66.6358C173.06 66.6358 172.971 66.4586 172.794 66.4586C172.617 66.37 172.528 66.2813 172.351 66.1927C172.174 66.1041 172.085 65.9269 171.908 65.8383C171.642 65.5724 171.465 65.218 171.376 64.9522C171.288 64.5977 171.199 64.3319 171.199 63.9774C171.199 63.5344 171.288 63.1799 171.376 62.8255C171.465 62.471 171.731 62.2052 171.908 61.9394C172.085 61.6735 172.351 61.5849 172.617 61.4077C172.883 61.3191 173.237 61.2305 173.592 61.2305C173.68 61.2305 173.858 61.2305 173.946 61.2305C174.035 61.2305 174.212 61.3191 174.389 61.3191C174.566 61.4077 174.655 61.4077 174.832 61.5849C175.01 61.6735 175.098 61.8508 175.187 61.9394V61.3191ZM174.035 62.5596C173.858 62.5596 173.68 62.5596 173.592 62.6483C173.503 62.7369 173.326 62.8255 173.237 62.9141C173.149 63.0027 173.06 63.0913 172.971 63.2685C172.883 63.4458 172.883 63.623 172.883 63.8002C172.883 63.8888 172.883 63.9774 172.883 64.1547C172.883 64.3319 172.971 64.3319 172.971 64.4205C172.971 64.5091 173.06 64.5977 173.06 64.5977C173.06 64.6863 173.149 64.6863 173.149 64.7749C173.237 64.8636 173.415 64.9522 173.592 65.0408C173.769 65.1294 173.946 65.1294 174.123 65.1294C174.301 65.1294 174.478 65.1294 174.566 65.0408C174.655 64.9522 174.832 64.8636 174.921 64.7749C175.01 64.6863 175.098 64.5091 175.187 64.4205C175.275 64.2433 175.275 64.066 175.275 63.8888C175.275 63.7116 175.275 63.5344 175.187 63.3572C175.098 63.1799 175.01 63.0913 174.921 62.9141C174.832 62.8255 174.655 62.7369 174.478 62.6483C174.389 62.5596 174.212 62.5596 174.035 62.5596Z" fill="#1C1F18"/>
<path d="M186.44 63.8888C186.44 64.066 186.44 64.2432 186.351 64.4205C186.351 64.5977 186.262 64.7749 186.174 64.9521C186.085 65.1294 185.997 65.3066 185.908 65.3952C185.819 65.5724 185.731 65.661 185.554 65.8383C185.465 65.9269 185.288 66.0155 185.199 66.1927C185.022 66.2813 184.933 66.3699 184.756 66.4585C184.579 66.5472 184.402 66.6358 184.136 66.6358C183.87 66.6358 183.693 66.7244 183.427 66.7244C183.161 66.7244 182.984 66.7244 182.718 66.6358C182.452 66.5471 182.275 66.5472 182.098 66.4585C181.92 66.3699 181.743 66.2813 181.655 66.1927C181.477 66.1041 181.389 66.0155 181.3 65.8383C181.212 65.7496 181.034 65.5724 180.946 65.3952C180.857 65.218 180.768 65.0408 180.68 64.9521C180.591 64.8635 180.591 64.5977 180.503 64.4205C180.503 64.2432 180.414 64.066 180.414 63.8888C180.414 63.7116 180.414 63.5344 180.503 63.3571C180.591 63.1799 180.591 63.0027 180.68 62.8255C180.768 62.6482 180.857 62.471 180.946 62.3824C181.034 62.2052 181.123 62.1166 181.3 61.9393C181.389 61.8507 181.566 61.6735 181.655 61.5849C181.832 61.4963 181.92 61.4077 182.098 61.3191C182.275 61.2304 182.452 61.1418 182.718 61.1418C182.895 61.1418 183.161 61.0532 183.427 61.0532C183.693 61.0532 183.87 61.0532 184.136 61.1418C184.313 61.1418 184.579 61.2304 184.756 61.3191C184.933 61.4077 185.11 61.4963 185.199 61.5849C185.376 61.6735 185.465 61.7621 185.554 61.9393C185.642 62.028 185.819 62.2052 185.908 62.3824C185.997 62.5596 186.085 62.7368 186.174 62.8255C186.262 63.0027 186.262 63.1799 186.351 63.3571C186.44 63.5344 186.44 63.7116 186.44 63.8888ZM183.604 62.5596C183.25 62.5596 182.984 62.6482 182.718 62.9141C182.629 63.0027 182.541 63.1799 182.452 63.3571C182.364 63.5344 182.364 63.7116 182.364 63.8888C182.364 64.1546 182.364 64.3319 182.452 64.5091C182.541 64.6863 182.629 64.7749 182.718 64.8635C182.807 64.9521 182.895 65.0408 183.072 65.1294C183.25 65.218 183.427 65.218 183.604 65.218C183.781 65.218 183.959 65.218 184.047 65.1294C184.224 65.0408 184.313 64.9521 184.402 64.8635C184.49 64.7749 184.579 64.5977 184.667 64.4205C184.756 64.2432 184.756 64.066 184.756 63.8888C184.756 63.7116 184.756 63.5344 184.667 63.3571C184.579 63.1799 184.49 63.0913 184.402 62.9141C184.224 62.6482 183.959 62.5596 183.604 62.5596Z" fill="#1C1F18"/>
<path d="M189.719 62.648V66.4583H188.124V62.648H186.795V61.3188H190.96V62.648H189.719Z" fill="#1C1F18"/>
<path d="M194.768 61.3188H199.553V66.4583H197.958V62.648H196.275V66.4583H194.68V61.3188H194.768Z" fill="#1C1F18"/>
<path d="M202.3 69.0285H200.705V61.3193H202.3V61.9396C202.389 61.7624 202.566 61.5851 202.743 61.4965C202.92 61.4079 203.009 61.3193 203.186 61.2307C203.363 61.1421 203.452 61.1421 203.541 61.1421C203.629 61.1421 203.806 61.1421 203.895 61.1421C204.072 61.1421 204.338 61.1421 204.515 61.2307C204.693 61.3193 204.87 61.3193 204.958 61.4079C205.136 61.4965 205.224 61.5851 205.313 61.6738C205.401 61.7624 205.49 61.851 205.579 61.9396C205.756 62.2054 205.933 62.4713 206.11 62.8257C206.288 63.1802 206.288 63.5346 206.288 63.9777C206.288 64.4207 206.199 64.7752 206.11 65.1296C205.933 65.4841 205.756 65.7499 205.579 66.0157C205.313 66.2816 205.047 66.4588 204.781 66.5474C204.515 66.636 204.25 66.7246 203.895 66.7246C203.629 66.7246 203.452 66.7246 203.275 66.636C203.098 66.5474 202.92 66.5474 202.832 66.4588C202.743 66.3702 202.655 66.2816 202.566 66.193C202.477 66.1043 202.389 66.0157 202.389 66.0157V69.0285H202.3ZM203.452 62.5599C203.363 62.5599 203.275 62.5599 203.186 62.5599C203.098 62.5599 203.009 62.6485 202.92 62.6485C202.832 62.6485 202.743 62.7371 202.743 62.7371C202.655 62.7371 202.655 62.8257 202.566 62.8257C202.477 63.0029 202.389 63.0915 202.3 63.2688C202.211 63.446 202.211 63.6232 202.211 63.7118C202.211 63.8891 202.211 64.0663 202.3 64.1549C202.389 64.3321 202.477 64.4207 202.566 64.5979C202.655 64.6866 202.832 64.7752 203.009 64.8638C203.186 64.9524 203.363 64.9524 203.541 64.9524C203.718 64.9524 203.806 64.9524 203.984 64.8638C204.161 64.7752 204.25 64.6866 204.338 64.5979C204.427 64.5093 204.515 64.3321 204.604 64.1549C204.693 63.9777 204.693 63.8004 204.693 63.6232C204.693 63.446 204.693 63.2688 204.604 63.0915C204.515 62.9143 204.427 62.8257 204.338 62.6485C204.25 62.5599 204.072 62.4713 203.984 62.3827C203.806 62.5599 203.629 62.5599 203.452 62.5599Z" fill="#1C1F18"/>
<path d="M212.758 63.8888C212.758 64.066 212.758 64.2432 212.669 64.4205C212.669 64.5977 212.581 64.7749 212.492 64.9521C212.404 65.1294 212.315 65.3066 212.226 65.3952C212.138 65.5724 212.049 65.661 211.872 65.8383C211.783 65.9269 211.606 66.0155 211.517 66.1927C211.34 66.2813 211.252 66.3699 211.074 66.4585C210.897 66.5472 210.72 66.6358 210.454 66.6358C210.188 66.6358 210.011 66.7244 209.745 66.7244C209.479 66.7244 209.302 66.7244 209.036 66.6358C208.859 66.6358 208.593 66.5472 208.416 66.4585C208.239 66.3699 208.062 66.2813 207.973 66.1927C207.796 66.1041 207.707 66.0155 207.619 65.8383C207.53 65.7496 207.353 65.5724 207.264 65.3952C207.175 65.218 207.087 65.0408 206.998 64.9521C206.91 64.7749 206.91 64.5977 206.821 64.4205C206.821 64.2432 206.732 64.066 206.732 63.8888C206.732 63.7116 206.732 63.5344 206.821 63.3571C206.91 63.1799 206.91 63.0027 206.998 62.8255C207.087 62.6482 207.175 62.471 207.264 62.3824C207.353 62.2052 207.441 62.1166 207.619 61.9393C207.707 61.8507 207.884 61.6735 207.973 61.5849C208.062 61.4963 208.239 61.4077 208.416 61.3191C208.593 61.2304 208.77 61.1418 209.036 61.1418C209.214 61.1418 209.479 61.0532 209.745 61.0532C210.011 61.0532 210.188 61.0532 210.454 61.1418C210.631 61.1418 210.897 61.2304 211.074 61.3191C211.252 61.4077 211.429 61.4963 211.517 61.5849C211.606 61.6735 211.783 61.7621 211.872 61.9393C211.961 62.028 212.138 62.2052 212.226 62.3824C212.315 62.5596 212.404 62.7368 212.492 62.8255C212.581 63.0027 212.581 63.1799 212.669 63.3571C212.758 63.5344 212.758 63.7116 212.758 63.8888ZM209.922 62.5596C209.568 62.5596 209.302 62.6482 209.036 62.9141C208.948 63.0027 208.859 63.1799 208.77 63.3571C208.682 63.5344 208.682 63.7116 208.682 63.8888C208.682 64.1546 208.682 64.3319 208.77 64.5091C208.859 64.6863 208.948 64.7749 209.036 64.8635C209.125 64.9521 209.214 65.0408 209.391 65.1294C209.568 65.218 209.745 65.218 209.922 65.218C210.1 65.218 210.277 65.218 210.365 65.1294C210.543 65.0408 210.631 64.9521 210.72 64.8635C210.809 64.7749 210.897 64.5977 210.986 64.4205C211.074 64.2432 211.074 64.066 211.074 63.8888C211.074 63.7116 211.074 63.5344 210.986 63.3571C210.897 63.1799 210.809 63.0913 210.72 62.9141C210.543 62.6482 210.277 62.5596 209.922 62.5596Z" fill="#1C1F18"/>
<path d="M215.238 61.3188V64.243L217.276 61.3188H218.693V66.4583H217.098V63.5341L215.06 66.4583H213.643V61.3188H215.238Z" fill="#1C1F18"/>
<path d="M219.846 61.7621C219.935 61.7621 219.935 61.6735 220.023 61.6735C220.112 61.6735 220.2 61.5849 220.2 61.5849C220.289 61.5849 220.378 61.4963 220.378 61.4963L220.555 61.4077C220.732 61.3191 220.909 61.3191 221.086 61.2305C221.264 61.2305 221.441 61.2305 221.707 61.2305C221.795 61.2305 221.884 61.2305 221.973 61.2305C222.061 61.2305 222.238 61.2305 222.416 61.3191C222.593 61.3191 222.77 61.4077 222.859 61.4963C223.036 61.5849 223.125 61.6735 223.302 61.7621C223.479 61.9394 223.568 62.028 223.568 62.2052C223.656 62.3824 223.656 62.5596 223.656 62.7369C223.656 62.9141 223.656 63.0913 223.568 63.1799C223.568 63.3572 223.479 63.4458 223.302 63.623C223.213 63.7116 223.213 63.7116 223.125 63.8002C223.036 63.8888 222.947 63.8888 222.947 63.8888C223.125 63.9774 223.302 63.9774 223.39 64.066C223.479 64.1547 223.568 64.2433 223.568 64.2433C223.656 64.3319 223.745 64.5091 223.833 64.5977C223.922 64.7749 223.922 64.8636 223.922 65.0408C223.922 65.218 223.922 65.3952 223.833 65.5724C223.745 65.7497 223.656 65.9269 223.479 66.1041C223.302 66.2813 223.036 66.4586 222.77 66.5472C222.504 66.6358 222.15 66.6358 221.707 66.6358C221.53 66.6358 221.264 66.6358 221.086 66.5472C220.909 66.4586 220.643 66.4586 220.466 66.37C220.378 66.37 220.289 66.2813 220.2 66.1927C220.112 66.1041 220.023 66.1041 219.935 66.0155C219.846 65.9269 219.757 65.9269 219.757 65.8383C219.669 65.8383 219.669 65.7497 219.58 65.7497L220.2 64.6863C220.289 64.7749 220.378 64.8636 220.466 64.9522C220.555 65.0408 220.643 65.1294 220.732 65.1294C220.821 65.1294 220.998 65.218 221.086 65.218C221.264 65.218 221.352 65.3066 221.441 65.3066C221.53 65.3066 221.618 65.3066 221.707 65.3066C221.795 65.3066 221.884 65.218 221.973 65.218C222.061 65.1294 222.15 65.1294 222.15 65.0408C222.15 64.9522 222.15 64.8635 222.15 64.8635C222.15 64.7749 222.15 64.6863 222.061 64.6863C222.061 64.5977 221.973 64.5977 221.884 64.5977H221.795C221.795 64.5977 221.707 64.5977 221.618 64.5977C221.53 64.5977 221.53 64.5977 221.441 64.5977C221.352 64.5977 221.352 64.5977 221.264 64.5977H220.643V63.4458H221.086H221.175C221.264 63.4458 221.264 63.4458 221.352 63.4458C221.441 63.4458 221.441 63.4458 221.53 63.4458C221.618 63.4458 221.618 63.4458 221.707 63.3572C221.795 63.2685 221.884 63.2685 221.884 63.1799C221.884 63.0913 221.884 63.0913 221.884 63.0027C221.884 62.9141 221.884 62.9141 221.795 62.8255C221.707 62.7369 221.707 62.7369 221.618 62.6483C221.618 62.6483 221.53 62.6483 221.441 62.5596C221.352 62.5596 221.264 62.5596 221.086 62.5596C220.909 62.5596 220.821 62.5596 220.732 62.5596C220.643 62.5596 220.555 62.6483 220.466 62.6483C220.289 62.7369 220.112 62.8255 219.935 63.0027L219.846 61.7621Z" fill="#1C1F18"/>
<path d="M227.644 61.3188C227.733 61.3188 227.821 61.3188 227.91 61.3188C227.998 61.3188 228.087 61.3188 228.264 61.3188C228.353 61.3188 228.441 61.4075 228.619 61.4075C228.707 61.4075 228.796 61.4961 228.885 61.5847C228.973 61.6733 229.062 61.8505 229.15 62.0277C229.239 62.205 229.239 62.3822 229.239 62.648C229.239 62.8252 229.239 62.9139 229.15 63.0911C229.062 63.2683 229.062 63.3569 228.885 63.4455C228.796 63.5341 228.707 63.6228 228.441 63.7114C228.619 63.7114 228.707 63.8 228.796 63.8886C228.885 63.9772 229.062 64.0658 229.15 64.0658C229.239 64.243 229.328 64.3317 229.416 64.5089C229.416 64.6861 229.505 64.7747 229.505 64.9519C229.505 65.2178 229.505 65.395 229.416 65.5722C229.328 65.7494 229.239 65.838 229.15 66.0153C229.062 66.1039 229.062 66.1039 228.973 66.1925C228.885 66.2811 228.796 66.2811 228.707 66.3697C228.619 66.4583 228.53 66.4583 228.353 66.4583C228.264 66.4583 228.087 66.4583 227.91 66.4583H225.074V61.3188H227.644ZM227.29 63.3569C227.378 63.3569 227.378 63.3569 227.467 63.3569C227.555 63.3569 227.644 63.3569 227.644 63.2683C227.733 63.1797 227.733 63.1797 227.733 63.0911C227.733 63.0025 227.733 62.9139 227.733 62.9139C227.733 62.8253 227.733 62.7366 227.644 62.648C227.644 62.5594 227.555 62.5594 227.555 62.5594C227.467 62.5594 227.467 62.4708 227.378 62.4708C227.29 62.4708 227.201 62.4708 227.112 62.4708H226.492V63.4455H227.29V63.3569ZM227.29 65.3064C227.378 65.3064 227.467 65.3064 227.555 65.3064C227.644 65.3064 227.733 65.2178 227.821 65.2178C227.91 65.1292 227.91 65.1292 227.91 65.0405C227.91 64.9519 227.91 64.8633 227.91 64.7747C227.91 64.6861 227.91 64.5975 227.821 64.5975C227.821 64.5089 227.733 64.5089 227.733 64.4203L227.644 64.3316C227.644 64.3316 227.555 64.3316 227.467 64.3316C227.378 64.3316 227.378 64.3316 227.29 64.3316C227.201 64.3316 227.201 64.3316 227.201 64.3316H226.581V65.395H227.29V65.3064Z" fill="#1C1F18"/>
<path d="M235.973 63.8888C235.973 64.066 235.973 64.2432 235.884 64.4205C235.884 64.5977 235.796 64.7749 235.707 64.9521C235.618 65.1294 235.53 65.3066 235.441 65.3952C235.353 65.5724 235.264 65.661 235.087 65.8383C234.998 65.9269 234.821 66.0155 234.732 66.1927C234.555 66.2813 234.466 66.3699 234.289 66.4585C234.112 66.5472 233.935 66.6358 233.669 66.6358C233.403 66.6358 233.226 66.7244 232.96 66.7244C232.694 66.7244 232.517 66.7244 232.251 66.6358C232.074 66.6358 231.808 66.5472 231.631 66.4585C231.454 66.3699 231.276 66.2813 231.188 66.1927C231.011 66.1041 230.922 66.0155 230.833 65.8383C230.745 65.7496 230.568 65.5724 230.479 65.3952C230.39 65.218 230.302 65.0408 230.213 64.9521C230.124 64.7749 230.124 64.5977 230.036 64.4205C230.036 64.2432 229.947 64.066 229.947 63.8888C229.947 63.7116 229.947 63.5344 230.036 63.3571C230.124 63.1799 230.124 63.0027 230.213 62.8255C230.302 62.6482 230.39 62.471 230.479 62.3824C230.568 62.2052 230.656 62.1166 230.833 61.9393C230.922 61.8507 231.099 61.6735 231.188 61.5849C231.276 61.4963 231.454 61.4077 231.631 61.3191C231.808 61.2304 231.985 61.1418 232.251 61.1418C232.428 61.1418 232.694 61.0532 232.96 61.0532C233.226 61.0532 233.403 61.0532 233.669 61.1418C233.846 61.1418 234.112 61.2304 234.289 61.3191C234.466 61.4077 234.644 61.4963 234.732 61.5849C234.821 61.6735 234.998 61.7621 235.087 61.9393C235.175 62.028 235.353 62.2052 235.441 62.3824C235.53 62.5596 235.618 62.7368 235.707 62.8255C235.796 63.0027 235.796 63.1799 235.884 63.3571C235.973 63.5344 235.973 63.7116 235.973 63.8888ZM233.137 62.5596C232.783 62.5596 232.517 62.6482 232.251 62.9141C232.163 63.0027 232.074 63.1799 231.985 63.3571C231.897 63.5344 231.897 63.7116 231.897 63.8888C231.897 64.1546 231.897 64.3319 231.985 64.5091C232.074 64.6863 232.163 64.7749 232.251 64.8635C232.34 64.9521 232.428 65.0408 232.606 65.1294C232.783 65.218 232.96 65.218 233.137 65.218C233.315 65.218 233.492 65.218 233.58 65.1294C233.758 65.0408 233.846 64.9521 233.935 64.8635C234.023 64.7749 234.112 64.5977 234.201 64.4205C234.289 64.2432 234.289 64.066 234.289 63.8888C234.289 63.7116 234.289 63.5344 234.201 63.3571C234.112 63.1799 234.023 63.0913 233.935 62.9141C233.758 62.6482 233.492 62.5596 233.137 62.5596Z" fill="#1C1F18"/>
<path d="M241.734 61.3188V65.1292H242.443V67.7875H241.025V66.4583H237.658V67.8761H236.24V65.2178C236.417 65.2178 236.506 65.1292 236.595 65.1292C236.683 65.0405 236.772 65.0405 236.861 64.9519C236.949 64.8633 237.038 64.7747 237.126 64.5975C237.215 64.5089 237.215 64.3316 237.215 64.243C237.215 64.0658 237.304 63.9772 237.304 63.8C237.304 63.6228 237.304 63.5341 237.304 63.3569V61.4075H241.734V61.3188ZM240.139 62.5594H238.81V63.5341C238.81 63.8 238.81 63.9772 238.81 64.1544C238.81 64.3317 238.721 64.4203 238.721 64.5089C238.721 64.5975 238.633 64.6861 238.544 64.8633C238.456 64.9519 238.367 65.1292 238.278 65.2178H240.139V62.5594Z" fill="#1C1F18"/>
<path d="M244.745 61.3188V64.243L246.783 61.3188H248.201V66.4583H246.606V63.5341L244.568 66.4583H243.15V61.3188H244.745Z" fill="#1C1F18"/>
<path d="M251.834 62.648V66.4583H250.239V62.648H248.91V61.3188H253.075V62.648H251.834Z" fill="#1C1F18"/>
<path d="M258.746 64.1544H255.202C255.202 64.3317 255.202 64.4203 255.291 64.5975C255.379 64.7747 255.379 64.8633 255.468 65.0405C255.556 65.1292 255.556 65.1292 255.645 65.2178C255.734 65.3064 255.822 65.3064 255.822 65.3064C255.911 65.3064 255.999 65.3064 255.999 65.395C256.088 65.395 256.088 65.395 256.177 65.395C256.265 65.395 256.442 65.395 256.531 65.395C256.62 65.395 256.708 65.3064 256.797 65.3064L256.886 65.2178L256.974 65.1292C256.974 65.0405 257.063 65.0405 257.063 64.9519L258.569 65.1292C258.481 65.3064 258.481 65.4836 258.392 65.5722C258.303 65.6608 258.215 65.8381 258.126 65.9267C258.037 66.0153 257.949 66.1039 257.86 66.1925C257.772 66.2811 257.683 66.2811 257.594 66.3697C257.329 66.5469 257.151 66.6356 256.886 66.6356C256.62 66.7242 256.354 66.7242 256.088 66.7242C255.911 66.7242 255.734 66.7242 255.556 66.7242C255.379 66.7242 255.202 66.6356 255.025 66.6356C254.847 66.5469 254.67 66.5469 254.582 66.3697C254.404 66.2811 254.316 66.1925 254.139 66.0153C253.961 65.7494 253.784 65.4836 253.607 65.2178C253.43 64.8633 253.43 64.5089 253.43 64.0658C253.43 63.8886 253.43 63.7114 253.518 63.5341C253.607 63.3569 253.607 63.1797 253.696 63.0025C253.784 62.8252 253.873 62.648 253.961 62.4708C254.05 62.2936 254.139 62.205 254.316 62.0277C254.493 61.8505 254.582 61.7619 254.759 61.6733C254.936 61.5847 255.113 61.4961 255.202 61.4075C255.379 61.3189 255.556 61.3188 255.645 61.3188C255.822 61.3188 255.911 61.3188 256.088 61.3188C256.265 61.3188 256.354 61.3188 256.531 61.3188C256.708 61.3188 256.886 61.4075 257.063 61.4075C257.24 61.4961 257.417 61.5847 257.594 61.6733C257.772 61.7619 257.949 61.9391 258.038 62.1164C258.215 62.2936 258.303 62.4708 258.392 62.648C258.481 62.8252 258.569 63.0025 258.569 63.1797C258.658 63.3569 258.658 63.5341 258.658 63.7114C258.658 63.8886 258.658 64.0658 258.658 64.243V64.1544H258.746ZM257.329 63.1797C257.329 63.0911 257.24 63.0025 257.24 62.9139C257.24 62.8253 257.151 62.8253 257.151 62.7366C257.151 62.648 257.063 62.648 256.974 62.5594C256.886 62.4708 256.797 62.3822 256.62 62.3822C256.531 62.2936 256.354 62.2936 256.177 62.2936C255.999 62.2936 255.822 62.2936 255.645 62.3822C255.556 62.4708 255.379 62.5594 255.379 62.648C255.291 62.7366 255.291 62.8253 255.202 62.9139C255.113 63.0025 255.113 63.0911 255.113 63.1797H257.329Z" fill="#1C1F18"/>
<path d="M264.506 66.4588H262.911V62.6485H261.671V64.2435C261.671 64.5093 261.671 64.6866 261.671 64.8638C261.671 65.041 261.582 65.2182 261.582 65.3068C261.493 65.4841 261.493 65.5727 261.405 65.6613C261.316 65.7499 261.316 65.8385 261.228 65.9271C261.139 66.0157 261.05 66.1043 260.873 66.193C260.784 66.2816 260.607 66.2816 260.519 66.3702C260.43 66.3702 260.253 66.4588 260.164 66.4588C260.076 66.4588 259.898 66.4588 259.81 66.4588C259.721 66.4588 259.544 66.4588 259.455 66.4588C259.367 66.4588 259.278 66.4588 259.189 66.3702V65.041C259.278 65.041 259.278 65.041 259.367 65.041C259.455 65.041 259.455 65.041 259.544 65.041C259.633 65.041 259.721 65.041 259.721 64.9524C259.721 64.8638 259.81 64.8638 259.898 64.8638C259.898 64.8638 259.898 64.8638 259.987 64.7752C259.987 64.7752 259.987 64.6866 260.076 64.5979C260.076 64.5093 260.076 64.4207 260.164 64.3321C260.164 64.2435 260.164 64.1549 260.164 63.9777V61.1421H264.506V66.4588Z" fill="#1C1F18"/>
<path d="M266.722 64.5975C266.545 64.5975 266.456 64.5089 266.279 64.4203C266.101 64.3316 266.013 64.243 265.924 64.1544C265.747 63.9772 265.658 63.8 265.658 63.6228C265.658 63.4455 265.57 63.2683 265.57 63.0911C265.57 62.9139 265.57 62.648 265.658 62.4708C265.747 62.2936 265.836 62.0277 266.013 61.8505C266.101 61.7619 266.279 61.6733 266.367 61.5847C266.456 61.4961 266.633 61.4961 266.81 61.4075C266.988 61.3189 267.076 61.3188 267.253 61.3188C267.431 61.3188 267.519 61.3188 267.696 61.3188H270V66.4583H268.405V64.6861H268.228L267.076 66.3697H265.393L266.722 64.5975ZM268.317 62.4708H267.785C267.696 62.4708 267.608 62.4708 267.519 62.4708C267.431 62.4708 267.342 62.5594 267.253 62.5594C267.165 62.648 267.165 62.648 267.165 62.7366C267.165 62.8253 267.076 62.9139 267.076 63.0025C267.076 63.0911 267.076 63.1797 267.165 63.2683C267.253 63.3569 267.253 63.3569 267.253 63.4455C267.253 63.4455 267.342 63.5341 267.431 63.5341C267.519 63.5341 267.519 63.5341 267.608 63.6228C267.696 63.7114 267.696 63.6228 267.785 63.6228C267.874 63.6228 267.874 63.6228 267.874 63.6228H268.405V62.4708H268.317Z" fill="#1C1F18"/>
<path d="M69.2058 0H66.3702L66.0158 4.78503H61.2307L60.9649 0H53.167L52.8126 4.78503H48.0276L47.7617 0H40.0525L39.6981 4.78503H34.913L34.5586 0H26.8494L26.4949 4.78503H21.7099L21.444 0H13.7348L13.3804 4.78503H8.59534L8.24089 0H5.40532L0 5.40532V69.2944L3.54447 72.8389L5.75976 70.6236L6.0256 74.6997H15.7729L16.1273 69.9147H18.8743L19.2288 74.6997H28.976L29.3305 69.9147H31.1027C31.4572 70.0033 31.8116 70.0033 32.1661 70.0919L32.5205 74.6997H42.2678L42.6222 70.0919C42.9767 70.0033 43.3311 70.0033 43.6856 69.9147H45.4578L45.8123 74.6997H55.5596L55.914 69.9147H58.4838L58.8382 74.6997H68.5855L68.8513 70.6236L71.0666 72.8389L74.6111 69.2944V5.40532L69.2058 0ZM68.4969 7.44339L68.7627 3.36725L71.9527 6.55727V15.1526C70.1805 12.317 67.9652 9.74729 65.5727 7.44339H68.4969ZM45.2806 2.65835L45.4578 5.13948C44.4831 4.87365 43.4198 4.69642 42.3564 4.5192L42.5336 2.65835H45.2806ZM32.0775 2.65835L32.1661 4.5192C31.1027 4.69642 30.128 4.87365 29.0647 5.13948L29.3305 2.65835H32.0775ZM5.84838 3.36725L6.11421 7.44339H9.0384C6.64588 9.74729 4.43059 12.317 2.65835 15.1526V6.46866L5.84838 3.36725ZM8.59534 71.9527L8.24089 67.1677H5.40532L3.54447 69.0286L2.65835 68.1424V59.5471C5.49393 63.9777 9.12701 67.788 13.3804 70.8008L13.2918 71.9527H8.59534ZM26.4949 71.9527H21.7099L21.3554 67.1677H13.6462V67.6108C9.0384 64.0663 5.22809 59.4585 2.65835 54.1418V20.4693C5.13948 15.3298 8.68395 10.8992 13.1145 7.35478H15.8615L16.1273 2.65835H18.8743L19.2288 7.44339H22.9504C11.7854 12.7601 4.07614 24.191 4.07614 37.3055C4.07614 51.9265 13.5576 64.3321 26.6721 68.7627L26.4949 71.9527ZM39.6981 71.9527H34.913L34.5586 67.1677H31.2799C17.3679 64.4207 6.8231 52.1037 6.8231 37.3055C6.8231 22.1529 17.8996 9.57007 32.4319 7.17755V7.35478H42.1792V7.17755C56.7115 9.57007 67.788 22.1529 67.788 37.3055C67.788 52.1037 57.2432 64.4207 43.2425 67.1677H39.9639L39.6981 71.9527ZM53.167 67.1677L52.8126 71.9527H48.0276L47.8503 68.7627C60.9649 64.3321 70.4463 51.9265 70.4463 37.3055C70.4463 24.1024 62.7371 12.7601 51.572 7.44339H55.2937L55.6482 2.65835H58.4838L58.8382 7.44339H61.5852C65.9271 10.9879 69.4716 15.4184 72.0414 20.5579V54.1418C69.4716 59.4585 65.6613 64.0663 61.0535 67.6994V67.2563H53.167V67.1677ZM71.0666 69.0286L69.2058 67.1677H66.3702L66.0158 71.9527H61.2307L61.1421 70.8008C65.3955 67.788 69.0286 63.8891 71.8641 59.5471V68.1424L71.0666 69.0286Z" fill="#1C1F18"/>
<path d="M37.3063 28.71C32.6099 28.71 28.7109 32.5203 28.7109 37.3053C28.7109 42.0903 32.5212 45.9006 37.3063 45.9006C42.0913 45.9006 45.9016 42.0903 45.9016 37.3053C45.9016 32.5203 42.0027 28.71 37.3063 28.71ZM37.3063 43.2423C34.0276 43.2423 31.3693 40.5839 31.3693 37.3053C31.3693 34.0267 34.0276 31.3683 37.3063 31.3683C40.5849 31.3683 43.2433 34.0267 43.2433 37.3053C43.2433 40.5839 40.5849 43.2423 37.3063 43.2423Z" fill="#1C1F18"/>
<path d="M37.3051 21.1782C28.3553 21.1782 21.1777 28.3558 21.1777 37.3056C21.1777 46.2553 28.3553 53.5215 37.3051 53.5215C46.2549 53.5215 53.521 46.2553 53.521 37.3056C53.521 28.3558 46.2549 21.1782 37.3051 21.1782ZM37.3051 50.8632C29.8617 50.8632 23.7475 44.8376 23.7475 37.3056C23.7475 29.7736 29.7731 23.748 37.3051 23.748C44.8371 23.748 50.8627 29.7736 50.8627 37.3056C50.8627 44.8376 44.7485 50.8632 37.3051 50.8632Z" fill="#1C1F18"/>
<path d="M61.3186 37.3053C61.3186 24.0135 50.5079 13.2915 37.3048 13.2915C24.1016 13.2915 13.291 24.0135 13.291 37.3053C13.291 50.597 24.1016 61.3191 37.3048 61.3191C50.5079 61.3191 61.3186 50.597 61.3186 37.3053ZM37.3048 58.6607C25.5194 58.6607 15.9494 49.0906 15.9494 37.3053C15.9494 25.5199 25.5194 15.9499 37.3048 15.9499C49.0902 15.9499 58.6602 25.5199 58.6602 37.3053C58.6602 49.0906 49.0902 58.6607 37.3048 58.6607Z" fill="#1C1F18"/>
</svg>
