<svg width="30" height="30" viewBox="0 0 30 30" fill="none" xmlns="http://www.w3.org/2000/svg">
<path fill-rule="evenodd" clip-rule="evenodd" d="M7 9.96504C7 9.43206 7.43819 9 7.97872 9H22.0213C22.5618 9 23 9.43206 23 9.96504C23 10.498 22.5618 10.9301 22.0213 10.9301H7.97872C7.43819 10.9301 7 10.498 7 9.96504ZM7 15C7 14.467 7.43819 14.035 7.97872 14.035H22.0213C22.5618 14.035 23 14.467 23 15C23 15.533 22.5618 15.965 22.0213 15.965H7.97872C7.43819 15.965 7 15.533 7 15ZM7 20.035C7 19.502 7.43819 19.0699 7.97872 19.0699H22.0213C22.5618 19.0699 23 19.502 23 20.035C23 20.5679 22.5618 21 22.0213 21H7.97872C7.43819 21 7 20.5679 7 20.035Z" fill="white"/>
<path d="M23.3867 3.81771C23.7254 3.3661 23.6356 2.72219 23.162 2.41501C20.476 0.672872 17.2939 -0.169139 14.0805 0.0282084C10.5261 0.246503 7.16525 1.72226 4.59922 4.19149C2.03319 6.66073 0.429353 9.96235 0.0746097 13.5058C-0.280133 17.0492 0.637359 20.6032 2.66296 23.5321C4.68857 26.4611 7.69014 28.5738 11.1308 29.4924C14.5714 30.411 18.2266 30.0755 21.4425 28.546C24.6584 27.0165 27.2253 24.3927 28.684 21.144C30.0026 18.2071 30.3378 14.9326 29.6557 11.8045C29.5354 11.253 28.9646 10.9417 28.4226 11.0993C27.8805 11.2568 27.573 11.8235 27.6873 12.3763C28.2375 15.0367 27.9389 17.8126 26.8191 20.3067C25.5592 23.1126 23.3422 25.3788 20.5645 26.6999C17.7868 28.021 14.6298 28.3107 11.6581 27.5173C8.68636 26.7239 6.09385 24.8991 4.3443 22.3694C2.59476 19.8396 1.8023 16.7699 2.1087 13.7094C2.4151 10.6489 3.80036 7.79724 6.01668 5.66452C8.233 3.5318 11.1358 2.25717 14.2058 2.06862C16.9346 1.90103 19.6373 2.60124 21.9324 4.05495C22.4092 4.35702 23.048 4.26931 23.3867 3.81771Z" fill="white"/>
</svg>
