<svg width="135" height="28" viewBox="0 0 135 28" fill="none" xmlns="http://www.w3.org/2000/svg">
<g id="ps_logo">
<path id="Fill 1" fill-rule="evenodd" clip-rule="evenodd" d="M31.7548 12.9131H29.147V8.7373L31.7135 8.74724C33.0197 8.74724 33.7036 9.78543 33.7036 10.8119C33.7036 11.693 33.026 12.9131 31.7548 12.9131ZM28.2813 6.83887C27.6455 6.83887 27.2661 7.21487 27.2661 7.84366V18.6874C27.2661 19.2859 27.6213 19.6434 28.2162 19.6434C28.8008 19.6434 29.1502 19.2859 29.1502 18.6874V14.8194L31.7648 14.8158C34.2811 14.8041 35.6393 12.7178 35.6393 10.761C35.6393 8.56182 33.8608 6.83887 31.5897 6.83887H28.2813Z" fill="#A7A9A4"/>
<path id="Fill 3" fill-rule="evenodd" clip-rule="evenodd" d="M39.826 17.7496V7.77838C39.826 7.18074 39.4708 6.82324 38.8758 6.82324C38.2908 6.82324 37.9419 7.18074 37.9419 7.77838V18.3621C37.9419 19.1773 38.359 19.6441 39.0869 19.6441H44.6915C45.2864 19.6441 45.642 19.287 45.642 18.688C45.642 18.1008 45.2864 17.7496 44.6915 17.7496H39.826Z" fill="#A7A9A4"/>
<path id="Fill 5" fill-rule="evenodd" clip-rule="evenodd" d="M67.4731 16.9698C66.8732 17.5729 65.7372 17.994 64.7103 17.994C62.1235 17.994 60.7702 15.5904 60.7702 13.217C60.7702 10.9785 61.9978 8.57034 64.6937 8.57034C65.6096 8.57034 66.8633 8.89941 67.4906 9.5309C67.6872 9.72545 68.0164 9.82792 68.24 9.82792C68.7725 9.82792 69.1739 9.39684 69.1739 8.82357C69.1739 8.49902 69.0284 8.21104 68.7545 7.97902C67.6275 6.92187 65.9433 6.54541 64.7426 6.54541C60.8124 6.54541 58.7563 9.95882 58.7563 13.3312C58.7563 16.5207 60.5991 19.9535 64.6452 19.9535C66.1287 19.9535 67.6809 19.4014 68.702 18.5068C68.94 18.2892 69.0603 17.9985 69.0603 17.6433C69.0603 17.0718 68.6849 16.6881 68.1264 16.6881C67.8763 16.6881 67.6625 16.7802 67.4731 16.9698Z" fill="#A7A9A4"/>
<path id="Fill 7" fill-rule="evenodd" clip-rule="evenodd" d="M73.3455 17.7498V13.9604H77.6726C78.2676 13.9604 78.6227 13.6151 78.6227 13.0378C78.6227 12.4289 78.2676 12.0659 77.6726 12.0659H73.3455V8.75048H78.4517C79.0471 8.75048 79.4027 8.3993 79.4027 7.81159C79.4027 7.21395 79.0471 6.85645 78.4517 6.85645H72.4762C71.8408 6.85645 71.4614 7.26224 71.4614 7.94249V18.5578C71.4614 19.2624 71.6231 19.6443 72.4762 19.6443H78.5819C79.2379 19.6443 79.6294 19.2936 79.6294 18.705C79.6294 18.4179 79.5275 17.7498 78.5819 17.7498H73.3455Z" fill="#A7A9A4"/>
<path id="Fill 9" fill-rule="evenodd" clip-rule="evenodd" d="M86.9602 12.4054L86.4686 12.1467C85.3635 11.5699 84.32 11.025 84.32 10.3141C84.32 9.30976 85.2257 8.62861 86.0716 8.62319H86.0954C87.2068 8.62319 88.0365 9.08316 88.5637 9.48896L88.6476 9.54267C88.8712 9.68712 89.1025 9.83698 89.3782 9.83698C89.8896 9.83698 90.3058 9.39372 90.3058 8.84889C90.3058 8.38847 89.9924 8.06302 89.7064 7.81927C89.4523 7.62337 88.0949 6.64746 86.3334 6.64746C83.9393 6.64746 82.2667 8.18173 82.2667 10.3791C82.2667 12.2736 84.1651 13.2495 85.8925 14.1369C86.1601 14.2759 86.4416 14.4005 86.72 14.522C87.891 15.0356 88.5637 15.4031 88.609 16.4182C88.6669 17.7146 86.1628 18.7808 83.8638 17.3689C83.607 17.2113 83.3457 17.1165 83.0951 17.1165C82.5249 17.1165 82.1841 17.4555 82.1841 18.0234C82.1841 18.3037 82.2887 18.7068 82.792 19.0377C83.6982 19.6163 84.7174 19.9097 85.8215 19.9097C88.9328 19.9097 90.6458 18.64 90.6458 16.3361C90.6458 14.1581 89.0998 13.4296 87.7361 12.7873C87.4712 12.6622 87.2085 12.5385 86.9602 12.4054Z" fill="#A7A9A4"/>
<path id="Fill 11" fill-rule="evenodd" clip-rule="evenodd" d="M93.4859 6.90918C92.8505 6.90918 92.4868 7.2572 92.4868 7.86522C92.4868 8.45293 92.8604 8.80366 93.4859 8.80366H96.5612V18.6769C96.5612 19.326 96.9226 19.7133 97.5283 19.7133C98.113 19.7133 98.4623 19.326 98.4623 18.6769V8.80366H101.554C102.16 8.80366 102.521 8.45293 102.521 7.86522C102.521 7.26668 102.16 6.90918 101.554 6.90918H93.4859Z" fill="#A7A9A4"/>
<path id="Fill 13" fill-rule="evenodd" clip-rule="evenodd" d="M109.142 14.3229H106.02L107.602 9.9751L109.142 14.3229ZM108.859 7.89036C108.632 7.2679 108.181 6.92529 107.589 6.92529C106.997 6.92529 106.546 7.2679 106.318 7.89398L102.644 18.3531C102.605 18.47 102.561 18.6253 102.561 18.791C102.561 19.343 102.91 19.7132 103.43 19.7132C103.711 19.7132 104.223 19.6026 104.491 18.8587L105.423 16.2144H109.76L110.934 19.0934C111.083 19.4929 111.407 19.7132 111.845 19.7132C112.376 19.7132 112.747 19.3403 112.747 18.8063C112.747 18.7097 112.735 18.5215 112.658 18.3346L108.859 7.89036Z" fill="#A7A9A4"/>
<path id="Fill 15" fill-rule="evenodd" clip-rule="evenodd" d="M119.349 12.9669H116.784V8.80371H119.35C120.8 8.80371 121.34 10.0703 121.34 10.8684C121.34 11.68 120.8 12.9669 119.349 12.9669ZM120.933 14.4456C122.535 13.7974 123.27 12.1616 123.27 10.8191C123.27 8.92328 121.85 6.90918 119.217 6.90918H116.172C115.29 6.90918 114.897 7.35967 114.897 8.36852V18.6232C114.897 19.6072 115.562 19.7133 115.847 19.7133C116.432 19.7133 116.781 19.3075 116.781 18.6277V14.8604H118.951L121.456 19.21C121.574 19.4465 121.82 19.73 122.32 19.73C122.84 19.73 123.189 19.3725 123.189 18.8399C123.189 18.6038 123.126 18.3528 122.998 18.0951L120.933 14.4456Z" fill="#A7A9A4"/>
<path id="Fill 17" fill-rule="evenodd" clip-rule="evenodd" d="M125.859 6.90967C125.224 6.90967 124.86 7.25769 124.86 7.86571C124.86 8.45342 125.234 8.80415 125.859 8.80415H128.935V18.6774C128.935 19.3265 129.296 19.7138 129.902 19.7138C130.486 19.7138 130.835 19.3265 130.835 18.6774V8.80415H133.928C134.533 8.80415 134.894 8.45342 134.894 7.86571C134.894 7.26717 134.533 6.90967 133.928 6.90967H125.859Z" fill="#A7A9A4"/>
<path id="Fill 19" fill-rule="evenodd" clip-rule="evenodd" d="M53.8798 14.2814H50.7583L52.3402 9.93359L53.8798 14.2814ZM53.5996 7.84984C53.3733 7.22737 52.9216 6.88477 52.3293 6.88477C51.7366 6.88477 51.2858 7.22737 51.0577 7.85345L47.3843 18.3117C47.3453 18.4277 47.3013 18.583 47.3013 18.7495C47.3013 19.3016 47.6506 19.6717 48.1706 19.6717C48.4521 19.6717 48.964 19.5611 49.2307 18.8173L50.1633 16.173H54.5003L55.674 19.052C55.8236 19.4515 56.1473 19.6717 56.586 19.6717C57.1167 19.6717 57.4872 19.2989 57.4872 18.7658C57.4872 18.6692 57.4755 18.4801 57.3982 18.2932L53.5996 7.84984Z" fill="#A7A9A4"/>
<path id="Fill 21" fill-rule="evenodd" clip-rule="evenodd" d="M10.9571 20.6454C10.2535 20.6386 8.79197 20.366 7.65956 20.1118C7.29541 20.0279 6.90162 20.143 6.63401 20.407L1.78241 25.1985C1.78017 19.5151 1.77882 11.4822 1.78062 11.2754C1.83674 6.18871 5.98698 2.05127 11.0308 2.05127H11.0923C13.5394 2.06707 15.8518 3.06193 17.6034 4.85079C19.3496 6.63197 20.2993 8.96069 20.2777 11.4081C20.2333 16.4149 16.0031 20.6454 11.0406 20.6454H10.9571ZM11.1035 0.365723H11.0316C5.07412 0.365723 0.173578 5.25157 0.107124 11.2546C0.10443 11.502 0.107124 20.9333 0.108022 24.9615L0.108471 26.4962C0.108471 26.8163 0.235542 27.1106 0.466784 27.3259C0.678718 27.5245 0.954413 27.6346 1.24313 27.6346C1.54083 27.6346 1.82191 27.5182 2.03564 27.3074L7.59353 21.8207C8.49426 22.0135 10.0537 22.32 10.9441 22.3285H11.0415C16.9043 22.3285 21.9009 17.333 21.953 11.4212C21.9786 8.52504 20.8579 5.77066 18.7978 3.66764C16.7314 1.55829 13.9992 0.385584 11.1035 0.365723Z" fill="#A7A9A4"/>
<path id="Fill 24" fill-rule="evenodd" clip-rule="evenodd" d="M12.7149 7.00175C12.4985 7.06675 12.3198 7.21165 12.212 7.40981C12.1038 7.60932 12.0796 7.83908 12.1438 8.05665C12.2075 8.27377 12.3517 8.45342 12.5501 8.56176C13.5775 9.12329 14.2155 10.2026 14.2155 11.3771C14.2155 13.1434 12.7863 14.5792 11.0298 14.5792C9.27372 14.5792 7.84453 13.1434 7.84453 11.3771C7.84453 10.2743 8.39905 9.26186 9.3276 8.67099C9.71959 8.41957 9.83678 7.8937 9.58803 7.49828C9.46725 7.30644 9.27911 7.17373 9.05865 7.12408C8.83908 7.07714 8.61278 7.1155 8.42285 7.23602C7.00264 8.14106 6.15491 9.68888 6.15491 11.3771C6.15491 14.0795 8.34203 16.2783 11.0298 16.2783C13.718 16.2783 15.9051 14.0795 15.9051 11.3771C15.9051 9.58009 14.929 7.92936 13.3575 7.07036C13.1599 6.96203 12.9313 6.93675 12.7149 7.00175Z" fill="#A7A9A4"/>
<path id="Fill 26" fill-rule="evenodd" clip-rule="evenodd" d="M10.0825 6.73819V10.3403C10.0825 10.8088 10.4615 11.1898 10.9271 11.1898C11.3927 11.1898 11.7717 10.8088 11.7717 10.3403V6.73819C11.7717 6.26964 11.3927 5.88867 10.9271 5.88867C10.4615 5.88867 10.0825 6.26964 10.0825 6.73819Z" fill="#A7A9A4"/>
</g>
</svg>
