<svg width="30" height="30" viewBox="0 0 30 30" fill="none" xmlns="http://www.w3.org/2000/svg">
<path d="M18.8804 20.6207C16.9023 22.1562 14.4134 22.8801 11.9204 22.6451C9.42743 22.4101 7.11767 21.2338 5.46132 19.3557C3.80497 17.4776 2.92653 15.0389 3.00482 12.5359C3.0831 10.0329 4.11223 7.6538 5.88271 5.88289C7.6535 4.1123 10.0324 3.08311 12.5353 3.00482C15.0381 2.92653 17.4767 3.80502 19.3547 5.46148C21.2327 7.11793 22.4089 9.42784 22.6438 11.921C22.8788 14.4142 22.155 16.9032 20.6196 18.8814L25.6073 23.8695C25.7693 24.0199 25.8877 24.2112 25.9501 24.4233C26.0124 24.6354 26.0165 24.8603 25.9617 25.0745C25.9069 25.2887 25.7954 25.4841 25.6389 25.6402C25.4824 25.7963 25.2867 25.9073 25.0724 25.9615C24.8585 26.0163 24.6338 26.0125 24.4219 25.9504C24.21 25.8884 24.0187 25.7703 23.8682 25.6087L18.8804 20.6207ZM20.2258 12.8432C20.2404 11.8646 20.0602 10.8929 19.6959 9.98463C19.3315 9.07631 18.7902 8.24952 18.1034 7.55235C17.4166 6.85518 16.598 6.30154 15.6952 5.92365C14.7925 5.54576 13.8237 5.35115 12.8451 5.35115C11.8664 5.35115 10.8976 5.54576 9.99486 5.92365C9.09214 6.30154 8.27356 6.85518 7.58675 7.55235C6.89994 8.24952 6.3586 9.07631 5.99424 9.98463C5.62987 10.8929 5.44974 11.8646 5.46433 12.8432C5.49323 14.7818 6.28356 16.6311 7.66457 17.9918C9.04558 19.3525 10.9064 20.1152 12.8451 20.1152C14.7837 20.1152 16.6445 19.3525 18.0255 17.9918C19.4066 16.6311 20.1969 14.7818 20.2258 12.8432Z" fill="white"/>
</svg>
