<svg width="18" height="18" viewBox="0 0 18 18" fill="none" xmlns="http://www.w3.org/2000/svg">
<path fill-rule="evenodd" clip-rule="evenodd" d="M0.464805 3.82843L3.64679 0.646446C3.84205 0.451185 4.15863 0.451185 4.35389 0.646446L7.53587 3.82843C7.73114 4.02369 7.73114 4.34027 7.53587 4.53553C7.34061 4.7308 7.02403 4.7308 6.82877 4.53553L4.50034 2.20711L4.50034 17C4.50034 17.2761 4.27648 17.5 4.00034 17.5C3.7242 17.5 3.50034 17.2761 3.50034 17L3.50034 2.20711L1.17191 4.53553C0.97665 4.7308 0.660068 4.7308 0.464805 4.53553C0.269543 4.34027 0.269543 4.02369 0.464805 3.82843Z" fill="#7A7D77"/>
<path fill-rule="evenodd" clip-rule="evenodd" d="M10.4648 14.1716L13.6468 17.3536C13.842 17.5488 14.1586 17.5488 14.3539 17.3536L17.5359 14.1716C17.7311 13.9763 17.7311 13.6597 17.5359 13.4645C17.3406 13.2692 17.024 13.2692 16.8288 13.4645L14.5003 15.7929L14.5003 1C14.5003 0.723858 14.2765 0.5 14.0003 0.5C13.7242 0.5 13.5003 0.723858 13.5003 1L13.5003 15.7929L11.1719 13.4645C10.9766 13.2692 10.6601 13.2692 10.4648 13.4645C10.2695 13.6597 10.2695 13.9763 10.4648 14.1716Z" fill="#7A7D77"/>
</svg>
