<svg width="30" height="30" viewBox="0 0 30 30" fill="none" xmlns="http://www.w3.org/2000/svg">
<g id="Frame 32">
<path id="Vector" d="M15.759 2.67871C9.32718 2.67871 4.10718 8.07871 4.10718 14.7323C4.10718 21.3859 9.32718 26.7859 15.759 26.7859C22.1907 26.7859 27.4107 21.3859 27.4107 14.7323C27.4107 8.07871 22.1907 2.67871 15.759 2.67871ZM21.1654 10.8751C20.9906 12.7796 20.2332 17.4082 19.8487 19.5417C19.6856 20.4457 19.3594 20.747 19.0564 20.7832C18.3806 20.8434 17.8679 20.3251 17.2154 19.8792C16.1901 19.18 15.6075 18.7461 14.6171 18.0711C13.4636 17.2876 14.2093 16.8537 14.8734 16.1546C15.0482 15.9738 18.0311 13.1653 18.0893 12.9122C18.0974 12.8739 18.0963 12.8341 18.0862 12.7962C18.076 12.7584 18.0571 12.7238 18.0311 12.6952C17.9612 12.635 17.8679 12.6591 17.7864 12.6711C17.6815 12.6952 16.0503 13.8162 12.8693 16.0341C12.4032 16.3595 11.9838 16.5283 11.6109 16.5162C11.1915 16.5042 10.3991 16.2751 9.8049 16.0702C9.07084 15.8292 8.4999 15.6966 8.54651 15.2747C8.56981 15.0577 8.86111 14.8408 9.40874 14.6117C12.8111 13.0809 15.0715 12.0684 16.2017 11.5863C19.4409 10.1881 20.1051 9.94701 20.5478 9.94701C20.6411 9.94701 20.8624 9.97112 21.0023 10.0917C21.1188 10.1881 21.1537 10.3207 21.1654 10.4171C21.1537 10.4894 21.177 10.7064 21.1654 10.8751Z" fill="#4E5249"/>
</g>
</svg>
