<svg width="30" height="30" viewBox="0 0 30 30" fill="none" xmlns="http://www.w3.org/2000/svg">
<g id="Frame 34">
<g id="Group 10">
<path id="Vector" d="M10.7566 7.45036C10.5358 7.41711 10.3107 7.46309 10.1186 7.58063H10.102C9.65651 7.851 9.25497 8.19142 8.91283 8.59206C8.62771 8.93249 8.47327 9.2766 8.43288 9.60842C8.40912 9.80505 8.42575 10.0041 8.48158 10.1922L8.50297 10.2045C8.82373 11.179 9.2419 12.1167 9.75274 12.9991C10.4114 14.2385 11.222 15.3848 12.1644 16.4095L12.1929 16.4513L12.238 16.4857L12.2654 16.5189L12.2986 16.5484C13.2926 17.5262 14.4033 18.3687 15.6036 19.0554C16.9758 19.8285 17.8085 20.1935 18.3087 20.3459V20.3532C18.4548 20.3999 18.5879 20.4208 18.7221 20.4208C19.1481 20.3883 19.5512 20.2092 19.8673 19.912C20.2534 19.5581 20.5801 19.1415 20.8344 18.6782V18.6696C21.0732 18.2025 20.9924 17.7626 20.6479 17.4639C19.9558 16.8384 19.2076 16.2829 18.4132 15.8048C17.881 15.5062 17.3405 15.6869 17.1219 15.9892L16.655 16.5988C16.415 16.9011 15.9802 16.8593 15.9802 16.8593L15.9683 16.8667C12.7239 16.0101 11.8579 12.612 11.8579 12.612C11.8579 12.612 11.8175 12.1499 12.118 11.9139L12.7025 11.4273C12.9829 11.1913 13.1777 10.6334 12.8772 10.0828C12.4181 9.26033 11.8822 8.48647 11.2769 7.77235C11.1449 7.60428 10.9598 7.48981 10.7542 7.44913L10.7566 7.45036ZM16.2392 5.97314C16.0817 5.97314 15.9306 6.03788 15.8192 6.15312C15.7078 6.26836 15.6452 6.42466 15.6452 6.58763C15.6452 6.7506 15.7078 6.90689 15.8192 7.02213C15.9306 7.13737 16.0817 7.20211 16.2392 7.20211C17.7408 7.20211 18.9882 7.70967 19.9755 8.68301C20.4827 9.21515 20.8783 9.84561 21.1373 10.5363C21.3975 11.2282 21.5163 11.9668 21.4854 12.7066C21.4788 12.8696 21.535 13.0286 21.6417 13.1487C21.7485 13.2688 21.8969 13.3401 22.0544 13.3469C22.212 13.3538 22.3657 13.2956 22.4818 13.1852C22.5978 13.0748 22.6668 12.9212 22.6734 12.7582C22.7102 11.8482 22.5642 10.9401 22.2445 10.0914C21.9235 9.23866 21.4366 8.46317 20.8142 7.8129L20.8023 7.80061C19.5775 6.59008 18.0283 5.97314 16.2392 5.97314Z" fill="#4E5249"/>
<path id="Vector_2" d="M16.1974 7.99342C16.0399 7.99342 15.8888 8.05816 15.7774 8.17339C15.666 8.28863 15.6034 8.44493 15.6034 8.6079C15.6034 8.77087 15.666 8.92716 15.7774 9.0424C15.8888 9.15764 16.0399 9.22238 16.1974 9.22238H16.2176C17.301 9.30226 18.0899 9.67587 18.6423 10.2891C19.209 10.9208 19.5024 11.7061 19.4798 12.677C19.4762 12.84 19.5353 12.9977 19.6441 13.1156C19.753 13.2335 19.9026 13.3019 20.0602 13.3056C20.2177 13.3094 20.3702 13.2482 20.4842 13.1356C20.5981 13.023 20.6642 12.8682 20.6678 12.7053C20.6963 11.4308 20.2995 10.3309 19.5131 9.45342V9.45097C18.7088 8.55874 17.6052 8.08682 16.277 7.99465L16.2568 7.99219L16.1974 7.99342Z" fill="#4E5249"/>
<path id="Vector_3" d="M16.1748 10.0522C16.0953 10.0449 16.0152 10.0543 15.9393 10.0798C15.8634 10.1053 15.7932 10.1463 15.733 10.2004C15.6727 10.2546 15.6236 10.3207 15.5887 10.3949C15.5537 10.4691 15.5335 10.5499 15.5294 10.6323C15.5252 10.7148 15.5372 10.7972 15.5645 10.8748C15.5918 10.9523 15.634 11.0234 15.6885 11.0837C15.7429 11.1441 15.8086 11.1924 15.8816 11.2259C15.9545 11.2594 16.0332 11.2774 16.113 11.2787C16.6096 11.3057 16.9268 11.4606 17.1264 11.6683C17.3271 11.8772 17.4768 12.2127 17.5041 12.7375C17.5056 12.8199 17.5231 12.9012 17.5556 12.9765C17.5881 13.0519 17.635 13.1196 17.6933 13.1758C17.7517 13.232 17.8204 13.2755 17.8953 13.3036C17.9703 13.3318 18.0499 13.344 18.1295 13.3397C18.2092 13.3353 18.2871 13.3144 18.3587 13.2782C18.4304 13.242 18.4942 13.1912 18.5465 13.129C18.5988 13.0667 18.6384 12.9942 18.663 12.9157C18.6876 12.8373 18.6967 12.7545 18.6898 12.6723C18.6517 11.935 18.4284 11.2836 17.971 10.8043C17.5113 10.325 16.8852 10.0915 16.1748 10.0522Z" fill="#4E5249"/>
<path id="Vector_4" fill-rule="evenodd" clip-rule="evenodd" d="M9.68976 2.75816C13.47 1.884 17.3903 1.884 21.1706 2.75816L21.5733 2.85033C22.6784 3.10589 23.6933 3.6734 24.5053 4.48979C25.3174 5.30619 25.8947 6.3395 26.1732 7.47491C27.1328 11.3866 27.1328 15.4842 26.1732 19.3958C25.8947 20.5313 25.3174 21.5646 24.5053 22.381C23.6933 23.1974 22.6784 23.7649 21.5733 24.0204L21.1694 24.1126C18.8017 24.6603 16.3722 24.8667 13.9499 24.7259L10.7982 27.6434C10.6793 27.7535 10.5341 27.8285 10.3777 27.8607C10.2213 27.8929 10.0594 27.8811 9.90888 27.8265C9.75839 27.7719 9.62482 27.6764 9.52212 27.5502C9.41943 27.424 9.35137 27.2715 9.32505 27.1088L8.80352 23.8865C7.80344 23.5646 6.89988 22.9827 6.1792 22.1965C5.45851 21.4103 4.94478 20.446 4.68711 19.3958C3.72751 15.4842 3.72751 11.3866 4.68711 7.47491C4.9656 6.3395 5.54294 5.30619 6.35498 4.48979C7.16702 3.6734 8.18196 3.10589 9.28703 2.85033L9.68976 2.75816ZM20.7821 4.55613C17.2576 3.74109 13.6027 3.74109 10.0782 4.55613L9.67432 4.64953C8.89109 4.83099 8.17182 5.23348 7.59636 5.81229C7.02091 6.3911 6.61179 7.12358 6.41445 7.9284C5.52787 11.5424 5.52787 15.3283 6.41445 18.9424C6.61189 19.7473 7.02118 20.4799 7.59686 21.0588C8.17254 21.6376 8.89207 22.04 9.67551 22.2212L9.78243 22.2458C9.95539 22.2858 10.1129 22.3783 10.2348 22.5114C10.3567 22.6445 10.4374 22.8122 10.4667 22.993L10.816 25.1535L13.0399 23.095C13.1287 23.0126 13.2326 22.9494 13.3455 22.9093C13.4583 22.8692 13.5778 22.8529 13.6969 22.8615C16.0718 23.0358 18.4585 22.8516 20.7821 22.3146L21.1848 22.2212C21.9683 22.04 22.6878 21.6376 23.2635 21.0588C23.8391 20.4799 24.2484 19.7473 24.4459 18.9424C25.3321 15.3292 25.3321 11.5428 24.4459 7.9284C24.2484 7.12343 23.8391 6.39084 23.2635 5.81201C22.6878 5.23319 21.9683 4.83079 21.1848 4.64953L20.7821 4.55613Z" fill="#4E5249"/>
</g>
</g>
</svg>
