<svg width="30" height="30" viewBox="0 0 30 30" fill="none" xmlns="http://www.w3.org/2000/svg">
<g id="Frame 33">
<path id="Vector" d="M24.0748 5.80661C22.9017 4.64075 21.5043 3.71638 19.9642 3.0874C18.4242 2.45842 16.7722 2.13743 15.1047 2.14314C8.11805 2.14314 2.42378 7.74536 2.42378 14.6191C2.42378 16.8222 3.0124 18.9624 4.11287 20.8508L2.32141 27.3216L9.03938 25.5843C10.8948 26.5789 12.9806 27.1076 15.1047 27.1076C22.0914 27.1076 27.7857 21.5054 27.7857 14.6317C27.7857 11.2955 26.4677 8.1608 24.0748 5.80661ZM15.1047 24.9926C13.2109 24.9926 11.3555 24.4891 9.73037 23.5449L9.34648 23.3183L5.35409 24.3506L6.41617 20.5234L6.16025 20.1332C5.10808 18.4802 4.5494 16.5695 4.54794 14.6191C4.54794 8.90357 9.2825 4.24555 15.0919 4.24555C17.9071 4.24555 20.5559 5.32822 22.5393 7.29214C23.5214 8.25392 24.2996 9.3979 24.829 10.6578C25.3584 11.9177 25.6283 13.2684 25.6232 14.6317C25.6487 20.3472 20.9142 24.9926 15.1047 24.9926ZM20.8886 17.2376C20.5687 17.0866 19.0076 16.3312 18.726 16.2179C18.4317 16.1172 18.227 16.0668 18.0095 16.369C17.7919 16.6837 17.1905 17.3887 17.0114 17.5901C16.8322 17.8042 16.6403 17.8293 16.3204 17.6657C16.0005 17.5146 14.9768 17.1747 13.7739 16.1172C12.827 15.2863 12.2 14.2666 12.0081 13.9519C11.8289 13.6371 11.9825 13.4735 12.1488 13.3098C12.2896 13.1713 12.4687 12.9447 12.6223 12.7685C12.7758 12.5922 12.8398 12.4537 12.9422 12.2523C13.0446 12.0383 12.9934 11.862 12.9166 11.711C12.8398 11.5599 12.2 10.024 11.9441 9.39455C11.6882 8.79026 11.4195 8.8658 11.2275 8.85321H10.6133C10.3958 8.85321 10.0631 8.92875 9.76875 9.24348C9.48724 9.55821 8.66829 10.3136 8.66829 11.8495C8.66829 13.3853 9.80714 14.8709 9.9607 15.0723C10.1143 15.2863 12.2 18.4336 15.3735 19.7807C16.1284 20.108 16.717 20.2968 17.1777 20.4353C17.9327 20.6745 18.6237 20.6367 19.1739 20.5612C19.7881 20.4731 21.0549 19.8059 21.3109 19.0757C21.5796 18.3455 21.5796 17.7286 21.49 17.5901C21.4004 17.4517 21.2085 17.3887 20.8886 17.2376Z" fill="#4E5249"/>
</g>
</svg>
