<svg width="33" height="32" viewBox="0 0 33 32" fill="none" xmlns="http://www.w3.org/2000/svg">
<path fill-rule="evenodd" clip-rule="evenodd" d="M24.5171 19.6438C24.5171 19.4592 24.1533 19.4592 23.7875 19.2781C23.42 19.0934 21.4104 17.9981 21.2257 17.9981C20.86 17.8153 20.6771 17.8153 20.4961 18.1792C20.3114 18.5449 19.5818 19.4592 19.2161 19.8267C19.0314 20.0077 18.8486 20.0077 18.4829 19.8267C18.1171 19.6438 16.839 19.2781 15.3743 17.8153C14.0961 16.901 13.3629 15.4363 13.1818 15.2553C12.9971 14.8877 13.1818 14.7067 13.3629 14.522C13.5457 14.341 13.7304 14.1581 13.9114 13.9734C14.0961 13.7924 14.0961 13.6077 14.2771 13.4267C14.46 13.2438 14.2771 13.0592 14.2771 12.8781C14.2771 12.6934 13.5457 10.6838 12.9971 10.1353C12.6314 9.40202 12.4486 9.58671 12.2675 9.58671H11.5343C11.3533 9.58671 10.9875 9.58671 10.62 9.95059C10.2543 10.3163 9.15897 11.4153 9.15897 13.0592C9.15897 15.0724 10.62 16.901 10.8029 17.0838C10.9875 17.2649 13.5457 21.4724 17.5686 22.9353C21.5914 24.5792 21.5914 23.8496 22.3247 23.8496C23.0543 23.8496 24.7018 22.9353 24.8829 22.021C24.5171 20.741 24.5171 19.8267 24.5171 19.6438M16.283 2.81921C8.96873 2.81921 2.93444 8.8535 2.93444 16.1678C2.93444 19.0917 3.84873 21.6535 5.49627 23.8478L3.84873 28.7849L8.96873 27.1392C11.163 28.6002 13.5402 29.3335 16.283 29.3335C23.5973 29.3335 29.6334 23.2992 29.6334 15.9849C29.6334 8.67064 23.782 2.81921 16.283 2.81921M32.3788 16.1695C32.3788 23.1163 27.2569 29.1506 20.6741 31.1638C16.2855 32.4438 12.2645 31.5295 8.78837 29.701L2.57122 31.7124C1.47408 32.0781 0.559795 30.9791 0.927338 30.0648L2.93694 24.0306C1.65694 21.8363 0.927338 19.2781 0.742652 16.5352C0.378767 8.67239 6.22837 1.72199 14.0931 0.443823C23.7845 -1.20189 32.5598 6.47811 32.3788 16.1695" fill="white"/>
</svg>
